<?xml version="1.0" encoding="UTF-8" standalone="no"?>
<!-- Created with Inkscape (http://www.inkscape.org/) -->

<svg
   xmlns:dc="http://purl.org/dc/elements/1.1/"
   xmlns:cc="http://creativecommons.org/ns#"
   xmlns:rdf="http://www.w3.org/1999/02/22-rdf-syntax-ns#"
   xmlns:svg="http://www.w3.org/2000/svg"
   xmlns="http://www.w3.org/2000/svg"
   xmlns:sodipodi="http://sodipodi.sourceforge.net/DTD/sodipodi-0.dtd"
   xmlns:inkscape="http://www.inkscape.org/namespaces/inkscape"
   version="1.1"
   id="svg10"
   width="160"
   height="160"
   viewBox="0 0 160 160"
   sodipodi:docname="fragments.svg"
   inkscape:version="0.92.4 (5da689c313, 2019-01-14)">
  <metadata
     id="metadata16">
    <rdf:RDF>
      <cc:Work
         rdf:about="">
        <dc:format>image/svg+xml</dc:format>
        <dc:type
           rdf:resource="http://purl.org/dc/dcmitype/StillImage" />
        <dc:title></dc:title>
      </cc:Work>
    </rdf:RDF>
  </metadata>
  <defs
     id="defs14" />
  <sodipodi:namedview
     pagecolor="#ffffff"
     bordercolor="#666666"
     borderopacity="1"
     objecttolerance="10"
     gridtolerance="10"
     guidetolerance="10"
     inkscape:pageopacity="0"
     inkscape:pageshadow="2"
     inkscape:window-width="1920"
     inkscape:window-height="1051"
     id="namedview12"
     showgrid="false"
     inkscape:zoom="5.3625"
     inkscape:cx="80"
     inkscape:cy="80"
     inkscape:window-x="-9"
     inkscape:window-y="-9"
     inkscape:window-maximized="1"
     inkscape:current-layer="g20" />
  <g
     id="g20"
     transform="translate(-2.8205128e-6,0.37296039)">
    <g
       id="g39">
      <path
         inkscape:connector-curvature="0"
         id="path34"
         d="M 74.08,141.44495 C 67.960144,140.78763 61.975565,139.15738 55.7748,136.45845 35.040899,127.43388 21.07133,106.9876 19.971653,84.055898 18.954946,62.854362 29.782956,42.079725 47.749936,30.76044 55.053658,26.159061 62.086346,23.439521 70.72,21.877917 c 4.252349,-0.769139 14.652976,-0.766458 18.88,0.0049 11.95249,2.181025 21.97075,6.978344 30.79628,14.747024 8.39469,7.389424 15.34931,18.81617 18.11894,29.770192 1.43728,5.684506 1.75672,8.419379 1.75672,15.04 0,8.252685 -0.91128,13.577715 -3.53217,20.639997 -7.61114,20.50913 -25.24142,35.09997 -46.97977,38.88049 -3.448838,0.59979 -12.113747,0.8675 -15.68,0.48446 z M 47.103315,72.169434 C 48.363747,70.968595 49.020659,70.05688 49.231222,69.216163 49.965459,66.284576 49.967104,66.24 49.34096,66.24 c -0.670512,0 -3.170278,1.575808 -4.060867,2.559898 -0.593821,0.656166 -1.544583,4.37215 -1.243351,4.859552 0.378708,0.612764 1.359802,0.13606 3.066573,-1.490016 z M 95.304563,61.147578 C 95.410557,60.43519 93.990534,58.24 93.423715,58.24 c -0.428601,0 -0.379558,3.316157 0.05548,3.75119 0.527447,0.527447 1.702154,-0.01546 1.825373,-0.843612 z m 14.892307,-0.906122 c -0.032,-1.230662 -0.35232,-2.25777 -1.24405,-3.989411 -1.73616,-3.371389 -2.86335,-4.665171 -4.8174,-5.529341 -1.89986,-0.840208 -3.50802,-2.731565 -3.84362,-4.520483 -0.322171,-1.717325 -1.028235,-1.355699 -3.074046,1.574454 -0.434116,0.62177 -0.932964,0.820845 -2.501607,0.998317 C 92.425606,49.034138 91.84,49.221178 91.84,49.693613 c 0,0.189827 -0.303462,0.66816 -0.674358,1.06296 L 90.49128,51.474397 92.205642,52.338 c 0.942896,0.474982 1.763955,0.994035 1.824572,1.15345 0.06062,0.159414 0.991293,0.734608 2.068164,1.278211 1.07687,0.543603 2.539273,1.356048 3.249785,1.80543 2.836137,1.793802 8.099557,4.789299 8.988707,5.115619 1.63927,0.601613 1.90792,0.392288 1.86,-1.449254 z"
         style="fill:#d8d4c9;stroke-width:0.31999999" />
    </g>
    <path
       style="fill:#f3e19e;stroke-width:0.31999999"
       d="m 88.16,129.70082 c -0.352,-0.0466 -5.824,-0.74023 -12.16,-1.54147 -6.336,-0.80123 -11.921504,-1.61661 -12.41223,-1.81196 -1.047303,-0.4169 -1.50777,-1.1545 -1.50777,-2.41525 0,-0.80762 7.910054,-24.008223 8.668717,-25.425798 0.417357,-0.77984 1.529395,-1.05288 10.851283,-2.664332 l 8.16,-1.410602 12.64,-5.069498 12.64,-5.0695 4.4418,-3.106205 c 4.95363,-3.464128 5.95566,-3.77784 7.41274,-2.320749 0.94657,0.946566 0.96251,1.583984 0.33414,13.368029 -0.30102,5.645382 -0.54904,8.095895 -0.86532,8.549925 -0.33908,0.48676 -28.732829,23.17959 -34.646816,27.69041 -1.173318,0.89494 -2.529635,1.36286 -3.556544,1.227 z M 43.500605,111.52858 c -4.146669,-0.5761 -7.86633,-1.24571 -8.265917,-1.48802 -0.467133,-0.28327 -2.265398,-3.51182 -5.036746,-9.04283 -3.528095,-7.041308 -4.273932,-8.767509 -4.110219,-9.512892 0.29496,-1.342944 9.037176,-28.346585 9.391045,-29.007795 0.166198,-0.310541 6.105485,-4.660886 13.198416,-9.66743 12.641754,-8.923178 12.93439,-9.107395 14.82953,-9.335223 3.773292,-0.453619 5.614486,0.544109 5.611932,3.04106 -6.4e-4,0.728502 -0.779548,8.39654 -1.730675,17.040083 l -1.729318,15.715529 -4.963277,14.204471 c -6.343216,18.153727 -6.188726,17.754127 -7.158797,18.517187 -1.01912,0.80164 -0.878291,0.80815 -10.035974,-0.46414 z m 3.60271,-39.359146 C 48.363747,70.968595 49.020659,70.05688 49.231222,69.216163 49.965459,66.284576 49.967104,66.24 49.34096,66.24 c -0.670512,0 -3.170278,1.575808 -4.060867,2.559898 -0.593821,0.656166 -1.544583,4.37215 -1.243351,4.859552 0.378708,0.612764 1.359802,0.13606 3.066573,-1.490016 z M 75.36,84.750486 C 73.556016,83.763782 73.534733,82.913277 75.189069,77.92 c 1.23952,-3.741238 1.313776,-4.226816 2.887184,-18.88 1.959491,-18.248758 1.82808,-17.373424 2.746003,-18.291347 L 81.570909,40 h 14.388374 c 7.913607,0 14.612507,0.08601 14.886447,0.19113 0.55611,0.213398 18.50293,19.146854 19.63427,20.71367 0.79749,1.104461 0.9016,2.247619 0.30281,3.325098 -0.21698,0.390441 -2.47908,2.185382 -5.02689,3.988752 l -4.63237,3.278857 -13.44177,5.32601 L 94.24,82.149526 85.561722,83.634765 C 75.984198,85.273901 76.261507,85.243571 75.36,84.750486 Z M 95.304563,61.147555 c 0.05751,-0.386531 -0.05482,-0.894829 -0.249622,-1.129552 -0.291565,-0.351315 0.142569,-0.409549 2.455437,-0.329363 1.545292,0.05357 3.308552,0.252368 3.918372,0.441763 0.88372,0.274464 1.15945,0.253738 1.35861,-0.102125 0.20961,-0.37456 0.46916,-0.380272 1.61125,-0.03546 0.74876,0.226061 1.95869,0.723034 2.68872,1.104384 0.73004,0.381351 1.73804,0.722487 2.24,0.75808 0.90004,0.06382 0.91207,0.04163 0.86954,-1.603238 -0.0321,-1.243133 -0.349,-2.261917 -1.24405,-4 -1.73616,-3.371389 -2.86335,-4.665171 -4.8174,-5.529341 -1.89986,-0.840208 -3.50802,-2.731565 -3.84362,-4.520483 -0.322171,-1.717325 -1.028235,-1.355699 -3.074046,1.574454 -0.434116,0.62177 -0.932964,0.820845 -2.501607,0.998317 C 92.372858,49.040106 91.84,49.21975 91.84,49.74464 c 0,0.217891 -0.288,0.656803 -0.64,0.97536 -0.922861,0.835178 -0.916125,3.970918 0.01034,4.80935 1.192819,1.079488 1.817901,2.506717 1.88361,4.300778 0.03525,0.96257 0.21008,1.926029 0.388508,2.141021 0.475079,0.572438 1.696548,0.02032 1.822112,-0.823594 z"
       id="path32"
       inkscape:connector-curvature="0" />
    <path
       style="fill:#f9d464;stroke-width:0.31999999"
       d="m 88.16,129.70082 c -0.352,-0.0466 -5.824,-0.74023 -12.16,-1.54147 -6.336,-0.80123 -11.921504,-1.61661 -12.41223,-1.81196 -1.047303,-0.4169 -1.50777,-1.1545 -1.50777,-2.41525 0,-0.80762 7.910054,-24.008223 8.668717,-25.425798 0.417357,-0.77984 1.529395,-1.05288 10.851283,-2.664332 l 8.16,-1.410602 12.64,-5.069498 12.64,-5.0695 4.4418,-3.106205 c 4.95363,-3.464128 5.95566,-3.77784 7.41274,-2.320749 0.94657,0.946566 0.96251,1.583984 0.33414,13.368029 -0.30102,5.645382 -0.54904,8.095895 -0.86532,8.549925 -0.33908,0.48676 -28.732829,23.17959 -34.646816,27.69041 -1.173318,0.89494 -2.529635,1.36286 -3.556544,1.227 z m 9.76,-25.25789 c 1.559715,-0.49853 3.82013,-2.16946 3.44385,-2.54575 -0.12763,-0.12763 -1.17345,2.6e-4 -2.324032,0.28419 -2.381946,0.58781 -5.302116,2.36931 -4.597498,2.80478 0.469517,0.29018 1.25335,0.16775 3.47768,-0.54322 z m 0.239587,-3.33217 c 1.706925,-0.97891 2.964333,-2.505634 3.624223,-4.400482 0.21136,-0.606915 0.7559,-1.251571 1.29088,-1.528217 1.67773,-0.867591 1.09311,-1.380832 -0.9164,-0.804515 -0.78363,0.224742 -1.14944,0.185593 -1.49503,-0.16 -0.64129,-0.641287 -0.758543,-0.617946 -4.533682,0.902454 -2.524704,1.0168 -3.780106,1.735315 -4.974784,2.84727 l -1.597917,1.487268 1.075728,0.820502 c 2.692864,2.05394 4.963222,2.30602 7.526982,0.83572 z M 111.86207,98.96 c 1.13166,-1.012 2.05765,-2.02 2.05775,-2.24 1.1e-4,-0.234477 -0.41252,-0.4 -0.99714,-0.4 -0.88011,0 -0.97385,-0.08462 -0.79758,-0.72 0.10986,-0.396 0.29083,-1.544778 0.40216,-2.552838 0.16849,-1.525671 0.11434,-1.866634 -0.32314,-2.034509 -0.748,-0.287037 -2.03502,0.09825 -2.7643,0.827526 -0.61853,0.618535 -0.61846,0.636583 0.008,2.098391 0.96839,2.259168 0.84918,3.003161 -0.69388,4.330553 l -1.33583,1.149123 0.69087,0.690874 c 0.37998,0.37998 0.91689,0.69088 1.19312,0.69088 0.27624,0 1.42816,-0.828 2.55983,-1.84 z m -68.361465,12.56858 c -4.146669,-0.5761 -7.86633,-1.24571 -8.265917,-1.48802 -0.467133,-0.28327 -2.265398,-3.51182 -5.036746,-9.04283 -3.528095,-7.041308 -4.273932,-8.767509 -4.110219,-9.512892 0.29496,-1.342944 9.037176,-28.346585 9.391045,-29.007795 0.166198,-0.310541 6.105485,-4.660886 13.198416,-9.66743 12.641754,-8.923178 12.93439,-9.107395 14.82953,-9.335223 3.773292,-0.453619 5.614486,0.544109 5.611932,3.04106 -6.4e-4,0.728502 -0.779548,8.39654 -1.730675,17.040083 l -1.729318,15.715529 -4.963277,14.204471 c -6.343216,18.153727 -6.188726,17.754127 -7.158797,18.517187 -1.01912,0.80164 -0.878291,0.80815 -10.035974,-0.46414 z M 43.394502,85.547965 c 1.323005,-0.866864 2.679021,-3.549603 2.682496,-5.307043 0.0026,-1.295015 0.174448,-1.708848 1.165348,-2.805655 0.639289,-0.707619 1.88039,-1.88776 2.758,-2.622537 l 1.595654,-1.335956 1.591645,0.5653 c 0.875405,0.310918 1.668595,0.488352 1.762649,0.3943 0.321792,-0.321792 0.701828,-2.915123 0.708743,-4.836374 0.0045,-1.262144 -0.21696,-2.413392 -0.646471,-3.36 -0.444595,-0.979859 -0.591094,-1.772323 -0.45847,-2.48 0.190112,-1.014419 0.167002,-1.04 -0.939597,-1.04 -0.921165,0 -1.134499,-0.120346 -1.134499,-0.64 0,-0.821136 -0.618474,-0.811578 -2.484282,0.03839 -1.188256,0.541315 -1.876041,0.643315 -3.403769,0.504784 -2.488205,-0.225623 -4.169853,0.554633 -4.90465,2.275673 -0.569017,1.332746 -0.622176,4.900915 -0.106349,7.138352 0.478596,2.075946 0.409232,3.070653 -0.258723,3.71033 -0.491504,0.470697 -0.637203,1.270243 -0.819571,4.49751 l -0.221798,3.925043 0.954953,0.954957 c 1.116256,1.116256 1.104154,1.113885 2.158691,0.422922 z M 75.36,84.750486 C 73.556016,83.763782 73.534733,82.913277 75.189069,77.92 c 1.23952,-3.741238 1.313776,-4.226816 2.887184,-18.88 1.959491,-18.248758 1.82808,-17.373424 2.746003,-18.291347 L 81.570909,40 h 14.388374 c 7.913607,0 14.612507,0.08601 14.886447,0.19113 0.55611,0.213398 18.50293,19.146854 19.63427,20.71367 0.79749,1.104461 0.9016,2.247619 0.30281,3.325098 -0.21698,0.390441 -2.47908,2.185382 -5.02689,3.988752 l -4.63237,3.278857 -13.44177,5.32601 L 94.24,82.149526 85.561722,83.634765 C 75.984198,85.273901 76.261507,85.243571 75.36,84.750486 Z m 24.7805,-16.900537 c 0.67925,-0.346531 1.55142,-1.142023 1.93815,-1.76776 1.0288,-1.664631 2.29057,-2.226352 4.02177,-1.790429 0.76064,0.191533 2.4076,0.34824 3.65991,0.34824 2.24683,0 2.29634,-0.01834 3.74603,-1.388051 1.23047,-1.162592 1.43558,-1.521619 1.26272,-2.210349 -0.11352,-0.452266 -1.45156,-2.527642 -2.97344,-4.611949 -3.76877,-5.161571 -4.2553,-5.980915 -4.58562,-7.722365 -0.25129,-1.324864 -0.18979,-1.672422 0.50815,-2.871753 l 0.79404,-1.364467 -1.5361,-0.715533 c -1.42303,-0.662861 -1.97189,-0.713821 -7.45611,-0.692291 -4.982893,0.01955 -6.198598,0.120867 -7.68,0.64 -1.505373,0.527529 -1.77479,0.745542 -1.862237,1.506934 -0.07167,0.624038 -0.484531,1.143165 -1.380937,1.736378 -2.593613,1.716374 -2.875584,4.49207 -0.573728,5.647747 0.684064,0.343443 0.76799,0.579795 0.702329,1.977875 -0.192032,4.088867 -0.15031,5.526771 0.196506,6.772288 0.311049,1.117072 0.630073,1.48439 1.886217,2.17177 0.831517,0.45502 1.817453,1.262086 2.19097,1.793484 0.627344,0.892519 4.50584,3.120343 5.493629,3.155565 0.227011,0.0081 0.968499,-0.268806 1.647751,-0.615334 z"
       id="path30"
       inkscape:connector-curvature="0" />
    <path
       style="fill:#e1ab53;stroke-width:0.31999999"
       d="m 88.16,129.70082 c -0.352,-0.0466 -5.824,-0.74023 -12.16,-1.54147 -6.336,-0.80123 -11.921504,-1.61661 -12.41223,-1.81196 -1.047303,-0.4169 -1.50777,-1.1545 -1.50777,-2.41525 0,-0.80762 7.910054,-24.008223 8.668717,-25.425798 0.417357,-0.77984 1.529395,-1.05288 10.851283,-2.664332 l 8.16,-1.410602 12.64,-5.069498 12.64,-5.0695 4.4418,-3.106205 c 4.95363,-3.464128 5.95566,-3.77784 7.41274,-2.320749 0.94657,0.946566 0.96251,1.583984 0.33414,13.368029 -0.30102,5.645382 -0.54904,8.095895 -0.86532,8.549925 -0.33908,0.48676 -28.732829,23.17959 -34.646816,27.69041 -1.173318,0.89494 -2.529635,1.36286 -3.556544,1.227 z m 5.571885,-17.27401 c 2.079561,-1.20853 3.490921,-2.25986 5.148115,-3.83485 1.34183,-1.27527 6.30779,-4.15084 6.62334,-3.83528 0.0777,0.0777 -0.15967,0.73126 -0.52752,1.45231 -0.36786,0.72105 -0.53293,1.31101 -0.36683,1.31101 0.34055,0 2.89666,-1.87149 4.35101,-3.18566 0.528,-0.47711 2.112,-1.63059 3.52,-2.56329 2.86203,-1.895895 3.93755,-2.817101 5.33631,-4.570688 l 0.9569,-1.199642 -0.51831,-1.360358 C 117.96982,93.892163 117.63385,92.344 117.50829,91.2 117.28671,89.181114 117.2518,89.117318 116.32,89.028714 c -0.528,-0.05021 -1.2784,-0.251543 -1.66756,-0.447415 -0.56406,-0.283904 -1.11568,-0.209472 -2.72,0.367018 -2.7106,0.974019 -5.05244,2.259936 -5.05244,2.774323 0,0.231507 -0.45161,0.654461 -1.00358,0.939894 -0.78494,0.405914 -1.15093,0.440634 -1.68,0.159373 -0.79519,-0.422733 -3.45983,0.407472 -10.43642,3.251619 -2.376,0.968624 -4.824,1.867572 -5.44,1.997661 -1.350019,0.285107 -4.48,2.005173 -4.48,2.461973 0,0.1794 0.782214,1.19055 1.738253,2.24701 0.956038,1.05646 1.670637,2.09704 1.587993,2.3124 -0.08264,0.21536 -0.800281,0.70737 -1.594752,1.09336 -0.794473,0.38598 -1.359369,0.83952 -1.255328,1.00787 0.104045,0.16834 1.620541,1.60661 3.369997,3.19614 1.965293,1.78564 3.447715,2.89006 3.879219,2.89006 0.384112,0 1.35904,-0.38394 2.166503,-0.85319 z M 103.3612,99.8 c 0.002,-0.672586 1.21634,-2.516118 1.80691,-2.742739 0.32008,-0.122829 0.69345,0.02989 0.95817,0.391907 0.55771,0.762717 0.54737,0.903043 -0.12628,1.714416 -0.68613,0.82641 -2.6406,1.297776 -2.6388,0.636416 z m -59.860595,11.72858 c -4.146669,-0.5761 -7.86633,-1.24571 -8.265917,-1.48802 -0.467133,-0.28327 -2.265398,-3.51182 -5.036746,-9.04283 -3.528095,-7.041308 -4.273932,-8.767509 -4.110219,-9.512892 0.29496,-1.342944 9.037176,-28.346585 9.391045,-29.007795 0.166198,-0.310541 6.105485,-4.660886 13.198416,-9.66743 12.641754,-8.923178 12.93439,-9.107395 14.82953,-9.335223 3.773292,-0.453619 5.614486,0.544109 5.611932,3.04106 -6.4e-4,0.728502 -0.779548,8.39654 -1.730675,17.040083 l -1.729318,15.715529 -4.963277,14.204471 c -6.343216,18.153727 -6.188726,17.754127 -7.158797,18.517187 -1.01912,0.80164 -0.878291,0.80815 -10.035974,-0.46414 z M 46.03223,93.52 c 0.162112,-0.308 0.297002,-2.072 0.299754,-3.92 0.0032,-2.170966 0.18479,-3.926208 0.513046,-4.96 0.279424,-0.88 0.510138,-2.104 0.512701,-2.72 0.0055,-1.315562 0.916771,-2.945763 2.068595,-3.700467 1.02152,-0.669325 1.520903,-0.323264 2.399405,1.662742 0.35024,0.791773 0.835459,1.397725 1.119232,1.397725 0.275523,0 0.943975,-0.72 1.485443,-1.6 1.047959,-1.703149 1.367101,-1.853821 2.350756,-1.109824 0.880099,0.665674 1.696035,0.582467 2.123664,-0.216563 0.202038,-0.377514 0.747107,-1.014893 1.21126,-1.4164 L 60.96,76.2072 l 0.257491,0.748877 c 0.417232,1.213456 1.133287,1.250864 1.327751,0.06936 0.633235,-3.847306 1.830009,-16.276858 1.590291,-16.516573 -0.55801,-0.558009 -1.379047,1.996919 -1.430391,4.451133 -0.01658,0.792 -0.166019,1.728 -0.332115,2.08 -0.20208,0.428259 -0.243542,-0.259894 -0.125331,-2.08 0.09717,-1.496 0.302438,-4.808 0.456166,-7.36 0.412714,-6.851322 1.058023,-9.28 2.465735,-9.28 0.23672,0 0.430403,-0.132224 0.430403,-0.293827 0,-0.161607 0.08741,-0.521607 0.194237,-0.8 0.158505,-0.413056 -0.05814,-0.50617 -1.17769,-0.50617 -1.066336,0 -1.82239,0.293488 -3.394237,1.317587 -2.137446,1.392599 -2.336182,1.67496 -1.505939,2.139587 0.403786,0.225968 0.442346,0.427296 0.176858,0.923367 -0.469408,0.877101 -5.191827,5.14712 -7.143069,6.458781 -1.842093,1.238288 -7.420173,3.60902 -7.570912,3.217708 -0.05541,-0.143852 0.07064,-0.581795 0.280112,-0.973206 0.362547,-0.677427 0.30583,-0.668234 -1.179248,0.191101 C 38.961213,63.072688 37.44,64.58655 37.44,66.801987 c 0,0.623527 0.116032,0.738717 0.56,0.555946 0.308,-0.1268 0.848,-0.307005 1.2,-0.400458 0.352,-0.09345 0.82,-0.310745 1.04,-0.482877 0.305171,-0.238768 0.398701,-0.0192 0.394515,0.926221 -0.005,1.135175 -0.331664,2.548663 -1.728355,7.479181 -0.616771,2.177293 -0.6232,3.602531 -0.03104,6.88 0.254397,1.408 0.467562,3.36047 0.473702,4.338826 0.0091,1.450518 0.219328,2.129712 1.139044,3.68 2.0827,3.51064 4.726668,5.294713 5.544352,3.741174 z M 64.96,54.221114 c 0,-0.67777 -0.129562,-1.05881 -0.32,-0.941114 -0.176,0.108774 -0.32,0.621274 -0.32,1.138886 0,0.517613 0.144,0.941114 0.32,0.941114 0.176,0 0.32,-0.512499 0.32,-1.138886 z m 10.4,30.529372 C 73.556016,83.763782 73.534733,82.913277 75.189069,77.92 c 1.23952,-3.741238 1.313776,-4.226816 2.887184,-18.88 1.959491,-18.248758 1.82808,-17.373424 2.746003,-18.291347 L 81.570909,40 h 14.388374 c 7.913607,0 14.612507,0.08601 14.886447,0.19113 0.55611,0.213398 18.50293,19.146854 19.63427,20.71367 0.79749,1.104461 0.9016,2.247619 0.30281,3.325098 -0.21698,0.390441 -2.47908,2.185382 -5.02689,3.988752 l -4.63237,3.278857 -13.44177,5.32601 L 94.24,82.149526 85.561722,83.634765 C 75.984198,85.273901 76.261507,85.243571 75.36,84.750486 Z M 97.097296,71.326941 c 4.554264,-1.354704 5.132264,-1.651517 5.249474,-2.695741 0.12349,-1.100074 0.79422,-1.94151 2.076,-2.604342 1.22775,-0.634893 3.30567,-0.627005 4.01535,0.01523 0.90398,0.818086 2.37194,0.613104 4.89966,-0.68418 2.26708,-1.16352 2.35132,-1.249072 2.62595,-2.667008 0.26254,-1.355504 0.20191,-1.594374 -0.81165,-3.19792 -2.53638,-4.012787 -3.92119,-8.43488 -3.22174,-10.287945 0.35018,-0.927741 0.29583,-1.168765 -0.59507,-2.638739 -1.73479,-2.862391 -2.00983,-3.115168 -3.6897,-3.391047 -1.97785,-0.324816 -7.50875,-0.351945 -17.00557,-0.08341 -5.901322,0.166864 -7.44,0.299072 -7.44,0.639264 0,0.496755 0.343891,0.519517 2.008848,0.13296 2.168035,-0.50336 2.716515,1.059174 1.574614,4.485833 -0.443571,1.331092 -0.51926,2.135997 -0.328185,3.490096 0.139801,0.990746 0.112064,2.431242 -0.06346,3.295751 -0.171497,0.844662 -0.311814,2.975571 -0.311814,4.73535 0,3.012045 0.04691,3.240903 0.800291,3.90425 0.652615,0.574617 0.862135,1.177053 1.135424,3.264649 0.411933,3.146682 0.894551,3.68 3.330141,3.68 1.268554,0 1.815482,0.155284 2.254144,0.64 0.7156,0.79073 0.728275,0.790608 3.497296,-0.03306 z m 18.257814,-1.149053 c 1.24782,-0.595043 1.3317,-1.269216 0.14052,-1.129418 -1.44167,0.169197 -3.01137,1.67153 -1.74649,1.67153 0.25803,0 0.98072,-0.243949 1.60597,-0.542112 z M 83.369014,51.190038 c 0.547956,-0.605481 0.551872,-0.686297 0.05722,-1.18095 -0.637808,-0.637808 -0.796854,-0.515971 -1.062896,0.814246 -0.234611,1.173047 0.149274,1.313024 1.00568,0.366704 z"
       id="path28"
       inkscape:connector-curvature="0" />
    <path
       style="fill:#e59c2f;stroke-width:0.31999999"
       d="M 75.452893,128.00911 C 63.414016,126.4092 62.60328,126.20134 62.204502,124.61249 61.903405,123.41283 70.560422,98.676915 71.492042,98.074963 71.859418,97.837587 76.048,96.978701 80.8,96.16633 l 8.64,-1.477044 12.82394,-5.108675 12.82394,-5.108675 4.29606,-3.044573 c 2.36283,-1.674515 4.64608,-3.134841 5.07389,-3.245171 0.44731,-0.11536 1.12718,-0.0048 1.6,0.260227 1.66443,0.932919 1.70628,1.348707 1.16795,11.604704 -0.27132,5.16913 -0.62671,9.749283 -0.78975,10.178117 -0.17933,0.47166 -6.59782,5.77389 -16.24624,13.42078 -21.715268,17.21052 -20.003732,15.96131 -21.808916,15.91784 -0.825482,-0.0199 -6.643072,-0.71951 -12.927981,-1.55475 z M 94.362701,112.1998 c 1.164515,-0.59411 2.981299,-1.60174 4.037299,-2.23918 2.26923,-1.36978 2.53295,-1.41388 2.27352,-0.38023 -0.10773,0.42921 -0.0744,0.85548 0.0741,0.94725 0.47111,0.29117 4.10443,-2.0749 6.94954,-4.52562 2.88709,-2.48689 4.86908,-3.46866 6.22281,-3.08244 1.01829,0.29052 1.01414,0.28908 1.68,0.5823 0.308,0.13562 0.776,0.16371 1.04,0.0624 0.29861,-0.11459 0.48,0.002 0.48,0.30862 0,0.43949 0.0544,0.43841 0.50286,-0.0101 0.27657,-0.27657 0.64507,-0.50286 0.81888,-0.50286 0.17382,0 0.23893,-0.12475 0.14469,-0.27723 -0.0942,-0.15248 0.11327,-0.5348 0.46112,-0.8496 0.8012,-0.72507 0.80479,-1.11317 0.0103,-1.11317 -0.34219,0 -0.99904,-0.32418 -1.45969,-0.72041 l -0.83753,-0.720415 1.33283,-1.861267 c 1.02402,-1.430026 1.29287,-2.060135 1.16039,-2.719588 -0.0948,-0.472073 -0.32231,-1.578316 -0.50548,-2.458316 -0.18317,-0.88 -0.41495,-2.067642 -0.51505,-2.639204 -0.12871,-0.73487 -0.46655,-1.186339 -1.1536,-1.541628 -0.65456,-0.33849 -0.90974,-0.663607 -0.78203,-0.996397 0.26115,-0.680544 -0.63933,-0.428781 -5.57768,1.559453 -2.2,0.885744 -6.52,2.582988 -9.6,3.771651 -3.080004,1.188665 -6.871908,2.67783 -8.426458,3.309257 -1.55455,0.631431 -4.044144,1.376228 -5.532435,1.655108 -3.013466,0.564672 -4.320784,0.984806 -4.215469,1.354729 0.03868,0.135866 -0.111523,0.575123 -0.333786,0.976127 -0.36504,0.65861 -0.249382,0.95155 1.19625,3.02986 l 1.600365,2.30076 -0.96217,0.81014 -0.962166,0.81014 1.697933,1.65199 c 3.111078,3.0269 5.162416,4.55406 6.140633,4.57154 0.507488,0.009 1.875488,-0.46962 3.04,-1.06373 z M 42.72224,111.30807 c -3.807267,-0.53068 -7.024906,-1.13761 -7.426685,-1.40087 -0.422963,-0.27714 -2.406275,-3.84362 -4.916873,-8.84176 -3.618716,-7.204186 -4.186172,-8.537456 -4.052405,-9.521344 0.198864,-1.462701 8.801605,-28.12103 9.363576,-29.016026 0.232048,-0.369561 6.228761,-4.761561 13.326025,-9.76 L 61.92,43.68 64.552102,43.567488 c 2.567719,-0.10976 2.65578,-0.08884 3.6,0.855382 0.532343,0.532346 0.967898,1.204903 0.967898,1.494576 0,1.787012 -3.614835,32.90626 -3.959056,34.082554 -0.751536,2.568202 -10.441139,30.11216 -10.916317,31.03105 -0.253526,0.49027 -0.694061,0.98084 -0.978963,1.09017 -0.924771,0.35487 -3.698278,0.14097 -10.543424,-0.81315 z M 46.92753,93.84 c 0.298252,-0.484 1.453574,-2.272288 2.567376,-3.973978 1.246608,-1.904588 2.03008,-3.442268 2.038064,-4 0.0081,-0.563376 0.528323,-1.571632 1.375667,-2.666022 1.36727,-1.765907 1.578317,-1.878106 4.559177,-2.423754 0.382276,-0.06998 1.097024,-0.812691 1.671629,-1.73704 l 1.003811,-1.614793 1.184964,0.49511 c 1.154384,0.482333 1.689248,0.306698 1.706883,-0.560489 0.0026,-0.132532 0.280704,-2.724532 0.617798,-5.76 1.112778,-10.020388 1.124288,-10.341847 0.396285,-11.06985 -0.352406,-0.352406 -0.795638,-0.930173 -0.984963,-1.283923 -0.482455,-0.901479 -0.427597,-3.886525 0.129616,-7.052771 0.460669,-2.617668 1.100886,-3.87249 1.97576,-3.87249 0.23672,0 0.430403,-0.132224 0.430403,-0.293827 0,-0.161607 0.09053,-0.529757 0.201187,-0.818112 0.173693,-0.45264 -0.0475,-0.514221 -1.618774,-0.45065 -1.437331,0.05815 -2.186032,0.302608 -3.561184,1.162775 C 59.663552,48.519213 58.88,49.134064 58.88,49.286518 c 0,0.152455 0.300422,0.487613 0.667603,0.744797 0.862058,0.603811 0.540432,1.242535 -1.576608,3.13104 -1.740387,1.552512 -7.765657,4.862954 -8.556457,4.701143 -0.420682,-0.08608 -0.364192,-0.311776 0.335641,-1.341015 0.4628,-0.680633 0.798336,-1.271414 0.745639,-1.312845 -0.0779,-0.06124 -9.334333,6.233488 -12.044221,8.190532 -0.539072,0.389312 -1.121264,1.838339 -2.314253,5.76 -0.876691,2.881907 -1.682947,5.794236 -1.79168,6.471846 l -0.197699,1.232013 0.990125,-0.512013 C 35.682659,76.070406 36.44233,75.84 36.826243,75.84 c 0.640467,0 0.68089,0.112144 0.490234,1.36 -0.114285,0.748 -0.296976,2.390061 -0.405978,3.649027 -0.179603,2.07433 -0.126547,2.389475 0.565655,3.36 0.611468,0.857328 0.786588,1.56625 0.877852,3.553712 l 0.11401,2.482739 1.48599,1.312861 c 1.951946,1.724528 4.469136,3.154909 5.558618,3.158659 0.609059,0.0022 1.03641,-0.26279 1.414906,-0.876998 z M 65.405763,54.853827 c 0.278922,-0.726857 0.239232,-1.668249 -0.07862,-1.864691 -0.15007,-0.09275 -0.520432,0.01238 -0.823027,0.233658 -0.40063,0.29295 -0.490992,0.638073 -0.332451,1.26975 0.239472,0.954138 0.929126,1.156035 1.234098,0.361283 z m 9.299693,29.160717 c -0.432,-0.432 -0.784221,-1.044 -0.78271,-1.36 0.0016,-0.316 0.578547,-2.205277 1.282304,-4.198394 1.268259,-3.591843 1.295324,-3.767062 3.064643,-19.84 0.981798,-8.918883 1.952761,-16.571936 2.157696,-17.006787 0.740166,-1.570541 1.023248,-1.5996 15.631779,-1.604646 7.622982,-0.0026 14.003802,0.12631 14.439022,0.291785 0.96169,0.365632 19.94692,20.479661 20.3628,21.573498 0.65666,1.727152 0.0822,2.425414 -4.95855,6.027251 l -4.78244,3.417251 -13.41151,5.314813 -13.411517,5.314816 -8.188487,1.425667 c -9.641068,1.678576 -10.330236,1.717543 -11.40303,0.644746 z M 95.899168,71.653648 c 0.495459,-0.190496 1.986774,-0.45736 3.314035,-0.593034 2.147937,-0.219564 2.665997,-0.414774 4.712887,-1.775865 2.05454,-1.366179 2.53389,-1.545943 4.49693,-1.686397 2.16183,-0.154678 2.20855,-0.141331 2.89883,0.828067 0.38587,0.541901 0.85439,1.423645 1.04117,1.959427 0.39818,1.142218 0.87407,1.197357 2.79838,0.324237 1.35811,-0.616221 1.3955,-0.672221 1.21042,-1.812739 -0.10504,-0.647283 -0.0474,-1.349866 0.12806,-1.561296 0.21426,-0.258166 0.19255,-0.662032 -0.0661,-1.229715 -0.35343,-0.775706 -0.28835,-0.944419 0.79054,-2.049306 1.14974,-1.17744 1.17569,-1.258793 1.17569,-3.686409 0,-1.621901 0.17284,-2.816637 0.49862,-3.446624 0.47234,-0.913402 0.45617,-1.03666 -0.30681,-2.33858 -0.44298,-0.755894 -1.43756,-2.150844 -2.21017,-3.099884 -0.77261,-0.94904 -2.05244,-2.73353 -2.84406,-3.96553 -0.79163,-1.232 -2.10795,-2.8536 -2.92515,-3.603552 l -1.48584,-1.363552 -13.203294,0.08355 c -12.940874,0.08189 -13.20441,0.09627 -13.25927,0.723552 -0.03078,0.352 -0.308119,2.820675 -0.616295,5.485942 l -0.56032,4.845943 1.641325,1.598701 c 1.63119,1.588832 2.202931,2.74544 1.910298,3.864464 -0.08411,0.321632 -0.05066,1.7479 0.07433,3.169491 0.212276,2.414358 0.301632,2.654925 1.355815,3.650083 0.790249,0.746006 1.195843,1.464525 1.353005,2.396877 0.321584,1.907824 1.121446,2.500329 3.438694,2.547251 1.300573,0.02634 2.080781,0.205766 2.435014,0.56 0.612695,0.612694 0.987264,0.642429 2.203274,0.174896 z"
       id="path26"
       inkscape:connector-curvature="0" />
    <path
       style="fill:#b35f25;stroke-width:0.31999999"
       d="M 75.452893,128.00911 C 63.414016,126.4092 62.60328,126.20134 62.204502,124.61249 61.903405,123.41283 70.560422,98.676915 71.492042,98.074963 71.859418,97.837587 76.048,96.978701 80.8,96.16633 l 8.64,-1.477044 12.82394,-5.108675 12.82394,-5.108675 4.29606,-3.044573 c 2.36283,-1.674515 4.64608,-3.134841 5.07389,-3.245171 0.44731,-0.11536 1.12718,-0.0048 1.6,0.260227 1.66443,0.932919 1.70628,1.348707 1.16795,11.604704 -0.27132,5.16913 -0.62671,9.749283 -0.78975,10.178117 -0.17933,0.47166 -6.59782,5.77389 -16.24624,13.42078 -21.715268,17.21052 -20.003732,15.96131 -21.808916,15.91784 -0.825482,-0.0199 -6.643072,-0.71951 -12.927981,-1.55475 z M 83.84,125.44 c 0,-0.37559 -0.245958,-0.37559 -1.12,0 -0.56712,0.2437 -0.539789,0.27758 0.24,0.29751 0.484,0.0124 0.88,-0.12151 0.88,-0.29751 z m 12.099856,-4.38602 c 1.311216,-1.00431 2.243619,-1.87282 2.072006,-1.93002 -0.942022,-0.31401 -5.211862,2.4862 -5.211862,3.418 0,0.68091 0.808275,0.29787 3.139856,-1.48798 z m -4.047974,-2.73924 c 0.644534,-0.39311 2.588534,-1.73277 4.32,-2.97702 5.201248,-3.73769 6.986678,-4.69923 8.864778,-4.77412 0.90384,-0.036 1.75081,-0.007 1.88217,0.0636 0.13135,0.071 0.0146,0.5627 -0.25942,1.09262 -0.48899,0.94561 -0.48563,0.95674 0.18137,0.59977 0.81289,-0.43505 15.31039,-11.44852 17.00592,-12.919074 0.16057,-0.139261 0.74664,-17.365293 0.59726,-17.554861 -0.10157,-0.128896 -1.98001,0.95688 -4.17432,2.412835 -2.90028,1.924384 -4.95077,3.008496 -7.50964,3.970429 -1.936,0.727782 -5.104,1.959075 -7.04,2.736205 -14.03953,5.635625 -15.858384,6.25447 -22.24,7.566902 -11.233834,2.310334 -10.239731,1.928934 -10.707565,4.107984 -0.194582,0.9063 -0.139405,1.04 0.429191,1.04 0.35886,0 1.021897,-0.396 1.473414,-0.88 0.692154,-0.74195 0.869357,-0.8047 1.129587,-0.4 0.169757,0.264 0.226301,0.696 0.125655,0.96 -0.100647,0.264 -0.262096,1.22454 -0.358778,2.13453 l -0.175786,1.65453 1.355453,0.4061 c 0.745495,0.22336 1.400432,0.55882 1.455411,0.74547 0.05498,0.18665 0.186733,0.73537 0.292788,1.21937 0.11439,0.52205 0.405395,0.88 0.715411,0.88 0.793609,0 3.219776,1.95746 3.749353,3.02502 0.755988,1.52397 0.256653,1.99178 -2.41207,2.25979 -3.016096,0.3029 -4.099389,0.63469 -4.65304,1.42514 -0.250854,0.35814 -0.84233,0.66476 -1.317168,0.68281 -0.778362,0.0296 -0.753354,0.0612 0.258144,0.32667 0.624333,0.16384 3.952394,0.20908 7.52,0.10223 5.485619,-0.1643 6.491437,-0.12099 7.04,0.30315 0.844202,0.65272 1.06879,0.63348 2.451882,-0.21007 z M 42.72224,111.30807 c -3.807267,-0.53068 -7.024906,-1.13761 -7.426685,-1.40087 -0.422963,-0.27714 -2.406275,-3.84362 -4.916873,-8.84176 -3.618716,-7.204186 -4.186172,-8.537456 -4.052405,-9.521344 0.198864,-1.462701 8.801605,-28.12103 9.363576,-29.016026 0.232048,-0.369561 6.228761,-4.761561 13.326025,-9.76 L 61.92,43.68 64.552102,43.567488 c 2.567719,-0.10976 2.65578,-0.08884 3.6,0.855382 0.532343,0.532346 0.967898,1.204903 0.967898,1.494576 0,1.787012 -3.614835,32.90626 -3.959056,34.082554 -0.751536,2.568202 -10.441139,30.11216 -10.916317,31.03105 -0.253526,0.49027 -0.694061,0.98084 -0.978963,1.09017 -0.924771,0.35487 -3.698278,0.14097 -10.543424,-0.81315 z M 54.062122,101.936 c 0.02624,-0.91605 -0.57881,-0.20136 -1.091111,1.28883 -0.621942,1.8091 -0.189043,2.44693 0.502947,0.74104 0.313655,-0.77323 0.57833,-1.68667 0.588164,-2.02987 z m -2.685792,-0.32572 c 0.713667,-1.70805 0.585993,-2.519483 -0.525751,-3.341432 -2.185232,-1.615613 -2.202285,-4.69711 -0.04963,-8.967482 1.248519,-2.476764 1.85721,-3.04288 2.202016,-2.047977 0.111818,0.322637 0.473159,1.219782 0.802986,1.993657 0.597165,1.401143 0.602502,1.4045 1.271453,0.8 C 55.446877,89.713171 56.12961,88.72 56.594589,87.84 L 57.44,86.24 57.53462,88.4 c 0.05204,1.188 0.216928,2.16 0.366416,2.16 0.289651,0 1.79087,-3.60345 3.836864,-9.209802 1.175049,-3.21982 1.311171,-3.979724 2.219462,-12.390198 0.532202,-4.928 1.282355,-11.86705 1.667008,-15.420106 0.384653,-3.553059 0.613047,-6.685059 0.507543,-6.96 C 65.997763,46.230301 65.511814,46.08 64.515683,46.08 c -1.3288,0 -1.914723,0.350067 -8.730041,5.215853 C 51.767539,54.16457 46.32,57.985251 43.68,59.786253 c -2.64,1.801001 -5.059434,3.471181 -5.376522,3.711507 -0.568528,0.430899 -3.54335,9.551395 -3.957814,12.134256 l -0.197699,1.232013 0.990125,-0.512013 c 1.183686,-0.612109 2.300678,-0.666387 2.3051,-0.112016 0.0016,0.22 -0.241321,1.942749 -0.540166,3.828333 l -0.543354,3.428329 0.7573,1.616868 c 0.588624,1.256732 0.744262,2.090016 0.698768,3.741171 -0.04807,1.744557 0.08067,2.358576 0.720176,3.434803 1.094704,1.842298 7.29766,8.190496 8.003104,8.190496 0.320876,0 1.141283,0.504 1.82312,1.12 1.60423,1.44932 2.411766,1.45208 3.014192,0.0103 z M 74.705456,84.014544 c -0.432,-0.432 -0.784221,-1.044 -0.78271,-1.36 0.0016,-0.316 0.578547,-2.205277 1.282304,-4.198394 1.268259,-3.591843 1.295324,-3.767062 3.064643,-19.84 0.981798,-8.918883 1.952761,-16.571936 2.157696,-17.006787 0.740166,-1.570541 1.023248,-1.5996 15.631779,-1.604646 7.622982,-0.0026 14.003802,0.12631 14.439022,0.291785 0.96169,0.365632 19.94692,20.479661 20.3628,21.573498 0.65666,1.727152 0.0822,2.425414 -4.95855,6.027251 l -4.78244,3.417251 -13.41151,5.314813 -13.411517,5.314816 -8.188487,1.425667 c -9.641068,1.678576 -10.330236,1.717543 -11.40303,0.644746 z m 24.467546,-7.0244 c 2.842028,-1.127424 5.509298,-2.273926 5.927268,-2.547792 l 0.75994,-0.49793 -1.4101,-1.410105 C 103.67455,71.758758 103.04,70.906355 103.04,70.640086 c 0,-1.115433 3.58098,-3.077536 5.66874,-3.106041 1.30981,-0.01789 1.76478,0.774697 1.65306,2.87968 -0.0459,0.864237 -0.006,1.648784 0.0887,1.74344 0.61221,0.612214 9.2158,-3.06024 10.57273,-4.512986 L 121.88645,66.72 120.54323,66.7143 c -0.91115,-0.0039 -1.72819,-0.27001 -2.53995,-0.827299 l -1.19673,-0.821568 0.71673,-0.629341 c 1.65575,-1.453882 4.34883,-3.32871 5.43097,-3.780861 2.14046,-0.894339 2.60115,-0.193299 -7.52103,-11.445033 -3.14117,-3.491696 -6.00605,-6.399005 -6.4,-6.494788 C 108.64095,42.62001 102.56,42.582032 95.52,42.630989 l -12.8,0.08901 -0.07936,0.96 c -0.04365,0.528 -0.294445,2.904 -0.557325,5.28 -0.786992,7.113171 -1.432976,14.026163 -1.655325,17.714397 l -0.209456,3.474393 0.691943,-0.432124 c 0.380569,-0.237668 1.231398,-1.441146 1.890732,-2.674394 L 84,64.8 l 0.192435,4.193597 c 0.10584,2.306477 0.305155,4.375981 0.442928,4.598899 0.188349,0.304758 1.33137,0.375808 4.607565,0.286403 L 93.6,73.76 l 0.01773,2.4 c 0.0183,2.476893 0.0554,2.88 0.26511,2.88 0.06756,0 2.448135,-0.922435 5.290167,-2.049856 z m 28.009108,-13.81447 c 0.6022,-0.442436 0.58685,-0.493524 -0.48,-1.597239 L 125.6,60.438246 l -0.18848,1.540877 c -0.10367,0.847482 -0.30763,1.815171 -0.45325,2.150423 -0.2561,0.58958 -0.2342,0.591427 0.66848,0.05636 0.51329,-0.304249 1.2132,-0.758857 1.55536,-1.010236 z"
       id="path24"
       inkscape:connector-curvature="0" />
    <path
       style="fill:#4f443c;stroke-width:0.31999999"
       d="m 75.445101,128.00166 c -12.020768,-1.59932 -12.844125,-1.80948 -13.238067,-3.37908 -0.297098,-1.18373 8.375961,-25.961918 9.292854,-26.548903 0.363062,-0.232429 4.533382,-1.082234 9.267379,-1.888451 l 8.607264,-1.465856 12.836009,-5.115479 12.836,-5.115481 4.45146,-3.108205 c 3.42869,-2.394064 4.69256,-3.108205 5.50081,-3.108205 1.23355,0 2.24962,0.811565 2.51206,2.006445 0.25341,1.153779 -0.70569,18.975843 -1.07321,19.942505 -0.17407,0.45784 -6.74776,5.88398 -16.24502,13.4092 -21.899936,17.35254 -20.01719,15.97738 -21.811766,15.93137 -0.825482,-0.0212 -6.64658,-0.7231 -12.935773,-1.55986 z m 16.046413,-2.78098 c 1.335667,-1.00064 6.172486,-4.78536 10.748486,-8.41051 4.576,-3.62514 11.31375,-8.94666 14.97278,-11.82559 3.65903,-2.87893 6.77137,-5.466206 6.91631,-5.749502 0.14494,-0.283292 0.3559,-2.819078 0.46879,-5.635078 0.1129,-2.816 0.29817,-6.812 0.41171,-8.88 0.1707,-3.109216 0.12889,-3.759046 -0.24158,-3.75449 -0.2464,0.0029 -2.29855,1.294612 -4.56033,2.870176 -4.10589,2.860183 -4.13267,2.872743 -17.10936,8.025079 l -12.99703,5.160409 -8.44378,1.471239 c -7.240457,1.261571 -8.504448,1.565037 -8.869513,2.129407 -0.497264,0.76875 -2.539869,7.47476 -2.802074,9.19939 l -0.179587,1.1812 1.016832,-0.62001 c 0.559258,-0.341 1.340832,-0.62055 1.736832,-0.6212 0.64616,-9.6e-4 0.72,0.15527 0.72,1.52452 0,1.10593 -0.223286,1.85431 -0.811536,2.72 -0.446346,0.65685 -0.939894,1.19428 -1.096774,1.19428 -0.575703,0 -1.611968,-1.71487 -1.62138,-2.68316 -0.0092,-0.94207 -0.07034,-0.89135 -1.11368,0.92316 -1.3159,2.28853 -3.90015,9.99155 -3.483977,10.38489 0.158041,0.14936 2.591347,0.57395 5.407347,0.94351 2.816,0.36956 6.704,0.89126 8.64,1.15933 4.696336,0.6503 7.798416,1.02255 8.931514,1.07179 0.672473,0.0292 1.606835,-0.46544 3.36,-1.77884 z M 79.04,122.66002 c -0.686266,-0.3554 -1.159574,-0.85865 -1.222189,-1.2995 -0.154701,-1.08922 1.164698,-1.43765 4.902189,-1.29457 4.855018,0.18586 5.877379,1.15056 2.460176,2.32141 -2.45248,0.8403 -4.839405,0.9463 -6.140176,0.27266 z M 42.932915,111.32751 c -3.578899,-0.5052 -6.890899,-1.10057 -7.36,-1.32303 -0.670925,-0.31817 -1.754819,-2.17977 -5.079733,-8.72448 -2.324751,-4.576 -4.232751,-8.716864 -4.24,-9.20192 -0.0073,-0.485056 2.070913,-7.325056 4.61814,-15.2 3.582796,-11.076486 4.802265,-14.467168 5.386371,-14.976602 0.41528,-0.362188 6.359184,-4.608867 13.208678,-9.437062 L 61.92,43.685872 l 2.24,-0.10993 c 2.578275,-0.126534 3.751046,0.226624 4.488099,1.351511 0.489616,0.747245 0.410205,1.81159 -1.296073,17.371193 C 66.2312,72.519482 65.3176,79.549728 64.968915,80.636912 63.63633,84.791872 54.664854,110.21842 54.244806,111.03071 c -0.253625,0.49045 -0.69424,0.98118 -0.979142,1.09051 -0.926026,0.35535 -3.704835,0.1419 -10.332749,-0.79371 z M 54.210138,103.84 c 1.039721,-3.168 2.386908,-7.056 2.99375,-8.64 0.606842,-1.584 2.180525,-5.904 3.497078,-9.6 l 2.393728,-6.72 1.80001,-16.259485 c 2.016285,-18.213104 2.063219,-17.017421 -0.65672,-16.730656 -1.59016,0.167648 -1.501267,0.108365 -22.31751,14.884071 L 37.60095,63.84 36.868707,66.08 c -1.30247,3.984378 -4.799385,15.59208 -5.667885,18.814035 -0.871859,3.234416 -0.928646,4.558301 -0.130256,3.036653 C 31.515769,87.082179 33.448528,85.44 34.001974,85.44 c 0.152701,0 0.238426,0.828 0.190496,1.84 -0.08336,1.760173 0.01194,2.013536 2.196944,5.84 1.256247,2.2 2.785712,4.936 3.398813,6.08 1.095517,2.04415 1.15385,2.09396 3.384743,2.89016 1.248508,0.44559 2.54663,1.047 2.884713,1.33648 0.832957,0.7132 0.517239,1.74315 -0.738355,2.4087 -1.367859,0.72505 -6.285002,0.72358 -7.959328,-0.002 -1.140157,-0.49435 -1.2,-0.49097 -1.2,0.0679 0,1.47329 0.867738,1.81748 6.88,2.72896 3.168,0.48028 5.904,0.92304 6.08,0.98391 0.176,0.0609 0.967939,0.0827 1.759866,0.0485 l 1.439865,-0.0622 1.890407,-5.76 z M 74.987766,84.327466 c -1.193308,-0.835828 -1.155619,-1.809693 0.225661,-5.830848 1.283514,-3.736541 1.31609,-3.948103 3.069824,-19.936618 0.974896,-8.888 1.939987,-16.515786 2.144647,-16.950637 0.739136,-1.570496 1.022652,-1.5996 15.63127,-1.604646 7.517842,-0.0026 14.006082,0.127181 14.430762,0.288643 1.18191,0.449363 20.38255,21.00599 20.42692,21.86952 0.11351,2.209107 0.2256,2.085334 -5.55494,6.133952 l -4.39809,3.080362 -13.33432,5.284729 -13.334319,5.28473 -8.25728,1.426675 c -9.059075,1.565203 -10.054947,1.651194 -11.050135,0.954138 z M 85.92,80.79311 c 8.029955,-1.24943 9.614787,-1.72824 19.04,-5.752361 2.552,-1.089584 5.432,-2.239091 6.4,-2.554458 5.36932,-1.749283 8.19672,-3.144278 12.53915,-6.186608 2.92361,-2.048301 4.39657,-3.273734 4.34257,-3.612816 -0.045,-0.282224 -4.18572,-4.921043 -9.20172,-10.308489 l -9.12,-9.795357 -13.665501,-0.01152 -13.665497,-0.01152 -0.17832,1.04 c -0.155815,0.908729 -2.629575,23.844179 -3.21186,29.778704 -0.117571,1.198288 -0.69223,3.599462 -1.27702,5.335942 -0.584788,1.73648 -0.983047,3.237443 -0.885018,3.335469 0.09803,0.09803 0.480851,0.11297 0.850723,0.03321 C 78.257379,82.003542 81.872,81.422947 85.92,80.793091 Z"
       id="path22"
       inkscape:connector-curvature="0" />
  </g>
</svg>
