<?xml version="1.0" encoding="UTF-8" standalone="no"?>
<!-- Created with Inkscape (http://www.inkscape.org/) -->

<svg
   xmlns:dc="http://purl.org/dc/elements/1.1/"
   xmlns:cc="http://creativecommons.org/ns#"
   xmlns:rdf="http://www.w3.org/1999/02/22-rdf-syntax-ns#"
   xmlns:svg="http://www.w3.org/2000/svg"
   xmlns="http://www.w3.org/2000/svg"
   xmlns:sodipodi="http://sodipodi.sourceforge.net/DTD/sodipodi-0.dtd"
   xmlns:inkscape="http://www.inkscape.org/namespaces/inkscape"
   version="1.1"
   id="svg41"
   width="200"
   height="200"
   viewBox="0 0 200 200"
   sodipodi:docname="brobnar.svg"
   inkscape:version="0.92.4 (5da689c313, 2019-01-14)">
  <metadata
     id="metadata47">
    <rdf:RDF>
      <cc:Work
         rdf:about="">
        <dc:format>image/svg+xml</dc:format>
        <dc:type
           rdf:resource="http://purl.org/dc/dcmitype/StillImage" />
        <dc:title></dc:title>
      </cc:Work>
    </rdf:RDF>
  </metadata>
  <defs
     id="defs45" />
  <sodipodi:namedview
     pagecolor="#ffffff"
     bordercolor="#666666"
     borderopacity="1"
     objecttolerance="10"
     gridtolerance="10"
     guidetolerance="10"
     inkscape:pageopacity="0"
     inkscape:pageshadow="2"
     inkscape:window-width="1920"
     inkscape:window-height="1051"
     id="namedview43"
     showgrid="false"
     inkscape:zoom="2.36"
     inkscape:cx="74.147895"
     inkscape:cy="98.669106"
     inkscape:window-x="-9"
     inkscape:window-y="-9"
     inkscape:window-maximized="1"
     inkscape:current-layer="svg41" />
  <g
     id="g37095">
    <path
       style="fill:#fdf18a"
       d="m 80.715295,181.94184 c -9.82177,-2.41402 -21.043947,-7.57364 -29.324452,-13.48248 -7.39759,-5.27881 -8.912215,-7.32324 -9.784136,-13.20655 -1.436562,-9.69324 -8.711856,-21.42368 -17.008794,-27.4244 -2.253852,-1.63009 -4.61236,-3.94584 -5.241128,-5.14611 -2.19416,-4.18847 -3.653989,-17.51138 -3.063932,-27.962506 0.682175,-12.082733 3.303897,-21.973264 8.635271,-32.57684 5.923516,-11.781289 10.893332,-17.478323 18.352931,-21.038461 6.874152,-3.28073 9.014072,-5.184474 11.561446,-10.285447 2.169561,-4.344421 13.276452,-9.976022 25.192714,-12.773628 15.45943,-3.629443 39.725425,-2.324496 49.758075,2.675829 3.92477,1.956125 4.48939,2.784492 6.15401,9.028753 1.25796,4.718799 2.36867,5.13169 6.0527,2.25 3.847,-3.009169 6.07739,-2.440902 13.05543,3.326314 14.3661,11.87331 24.54964,28.800484 28.33316,47.095672 3.29759,15.945422 1.21716,39.176744 -3.83995,42.879214 -2.06563,1.51231 -2.30819,2.20104 -1.51236,4.29423 0.75691,1.99083 0.35502,3.66744 -1.99508,8.32296 -2.96732,5.87823 -4.82918,7.48394 -7.49267,6.46186 -1.15147,-0.44186 -1.33817,0.14121 -0.90329,2.82102 0.46252,2.85019 -0.0316,4.07494 -3.16259,7.83837 -10.19267,12.25168 -26.57543,22.3234 -43.15091,26.52812 -12.26892,3.11226 -28.85431,3.26502 -40.616445,0.37408 z"
       id="path37113"
       inkscape:connector-curvature="0" />
    <path
       style="fill:#f9d30f"
       d="m 92,183.41926 c -1.375,-0.24341 -5.2,-0.92878 -8.5,-1.52304 -8.83668,-1.5913 -20.434667,-6.36273 -28.708555,-11.81073 C 45.416987,163.9128 43.579263,161.71484 42.131389,154.94375 39.644117,143.31184 34.268411,135.09746 22.862633,125.5 c -3.043827,-2.56124 -3.76846,-4.02376 -4.954703,-10 -1.968031,-9.91485 -1.515198,-26.197754 1.001173,-36 2.518672,-9.811214 9.70129,-24.377308 15.153174,-30.730098 2.274243,-2.650053 6.030779,-5.602171 8.542503,-6.713226 6.749751,-2.985736 10.467859,-5.986277 12.019468,-9.6998 1.765922,-4.226448 7.50861,-7.919749 17.875752,-11.496453 17.911406,-6.179504 35.63974,-6.458615 53.8076,-0.847134 6.67834,2.062728 7.49237,2.955853 9.10228,9.986711 1.17553,5.13383 1.98061,5.441505 6.81903,2.606004 l 4.47105,-2.620215 3.90002,2.60163 C 164.47757,41.844905 177.95824,61.963618 182.36909,80 c 4.0461,16.544941 2.481,40.14053 -2.95811,44.59664 -2.1293,1.74447 -2.46072,2.66828 -1.97314,5.5 0.44615,2.59105 -0.0732,4.59675 -2.17591,8.40336 -2.35015,4.25454 -3.25846,5.04761 -6.09231,5.31935 -2.42206,0.23226 -3.17208,0.70954 -2.75,1.75 0.31921,0.78686 0.8209,2.02062 1.11486,2.74169 0.86363,2.11844 -6.12839,10.34133 -14.3776,16.90861 -9.06668,7.21808 -20.62377,12.98922 -31.59556,15.77754 -7.68262,1.95242 -24.45265,3.32646 -29.56132,2.42207 z m 38.34307,-45.75684 c 4.61656,-4.92098 4.78707,-5.30273 3.64571,-8.16242 -0.65854,-1.65 -2.07607,-6.12399 -3.15007,-9.94221 -2.60537,-9.26246 -4.5084,-12.21948 -9.38259,-14.57903 -4.86519,-2.3552 -14.26417,-2.65061 -18.25578,-0.57377 -13.893596,7.22883 -14.735098,30.34494 -1.36985,37.62996 3.23428,1.76292 4.85557,1.92838 13.66951,1.39502 l 10,-0.60514 z M 54,86 c 0,-1.1 -0.401855,-2 -0.893011,-2 -1.12404,0 -2.172536,2.601119 -1.371421,3.402234 C 52.939331,88.605998 54,87.949186 54,86 Z m 65.72917,-31.604167 c -0.3323,-0.332291 -1.1948,-0.367818 -1.91667,-0.07895 -0.79773,0.319226 -0.56078,0.556183 0.60417,0.604167 1.05416,0.04342 1.64479,-0.192928 1.3125,-0.52522 z"
       id="path37111"
       inkscape:connector-curvature="0" />
    <path
       style="fill:#eda31e"
       d="m 92,183.41926 c -1.375,-0.24341 -5.2,-0.92878 -8.5,-1.52304 -8.83668,-1.5913 -20.434667,-6.36273 -28.708555,-11.81073 C 45.416987,163.9128 43.579263,161.71484 42.131389,154.94375 39.644117,143.31184 34.268411,135.09746 22.862633,125.5 c -3.043827,-2.56124 -3.76846,-4.02376 -4.954703,-10 -1.968031,-9.91485 -1.515198,-26.197754 1.001173,-36 2.518672,-9.811214 9.70129,-24.377308 15.153174,-30.730098 2.274243,-2.650053 6.030779,-5.602171 8.542503,-6.713226 6.749751,-2.985736 10.467859,-5.986277 12.019468,-9.6998 1.765922,-4.226448 7.50861,-7.919749 17.875752,-11.496453 17.911406,-6.179504 35.63974,-6.458615 53.8076,-0.847134 6.67834,2.062728 7.49237,2.955853 9.10228,9.986711 1.17553,5.13383 1.98061,5.441505 6.81903,2.606004 l 4.47105,-2.620215 3.90002,2.60163 C 164.47757,41.844905 177.95824,61.963618 182.36909,80 c 4.0461,16.544941 2.481,40.14053 -2.95811,44.59664 -2.1293,1.74447 -2.46072,2.66828 -1.97314,5.5 0.44615,2.59105 -0.0732,4.59675 -2.17591,8.40336 -2.35015,4.25454 -3.25846,5.04761 -6.09231,5.31935 -2.42206,0.23226 -3.17208,0.70954 -2.75,1.75 0.31921,0.78686 0.8209,2.02062 1.11486,2.74169 0.86363,2.11844 -6.12839,10.34133 -14.3776,16.90861 -9.06668,7.21808 -20.62377,12.98922 -31.59556,15.77754 -7.68262,1.95242 -24.45265,3.32646 -29.56132,2.42207 z m 36.77475,-36.36788 c 2.58457,-0.0405 3.48354,-0.60054 4.26542,-2.65702 0.54486,-1.43311 3.90872,-5.80289 7.47524,-9.71063 3.56653,-3.90774 6.48459,-7.4602 6.48459,-7.89436 0,-0.43415 -0.7875,-0.79626 -1.75,-0.80468 -3.29308,-0.0288 -4.37313,-1.68432 -5.89455,-9.03512 -2.5401,-12.27267 -5.89774,-17.090176 -14.59163,-20.935896 -11.47332,-5.075194 -24.53218,-3.302712 -32.194362,4.369746 -6.322786,6.33127 -8.074568,10.71417 -8.040308,20.11658 0.02431,6.6716 0.46612,8.83025 2.660707,13 5.964183,11.33204 12.79569,14.65001 28.810143,13.99269 5.225,-0.21446 10.97364,-0.41305 12.77475,-0.44131 z M 126,142.62244 c 0,-0.20765 0.7875,-0.99515 1.75,-1.75 1.58606,-1.24387 1.62143,-1.2085 0.37756,0.37756 C 126.82119,142.91575 126,143.44548 126,142.62244 Z m 27.90814,-30.08778 c 1.15052,-3.28094 2.09186,-6.9511 2.09186,-8.15592 0,-1.92281 -0.27503,-2.05948 -2.25,-1.11809 -2.01047,0.95831 -2.26642,1.86073 -2.40427,8.47685 -0.0848,4.0724 -0.0137,7.25995 0.15814,7.08343 0.17183,-0.17651 1.25375,-3.00533 2.40427,-6.28627 z M 45.524494,101.42601 c 1.906836,-6.770465 4.34637,-8.799886 11.326377,-9.422284 L 62.5,91.5 62.188043,83.820151 C 61.759786,73.277183 63.028082,71.121314 72.76719,65.83755 81.996006,60.830636 86.877659,56.065416 90.395162,48.630026 93.358196,42.366686 93.661185,40 91.5,40 90.675,40 90,40.439626 90,40.976947 90,43.316964 84.470108,45.5 78.542564,45.5 c -5.750582,0 -6.107082,0.144963 -7.377765,3 -0.73436,1.65 -3.13428,4.125 -5.333156,5.5 -9.323356,5.830077 -20.699454,21.121272 -22.932722,30.825045 -1.390827,6.043281 -1.619368,18.563885 -0.432143,23.674955 0.901668,3.88174 0.93948,3.9113 1.278908,1 0.192373,-1.65 0.992836,-5.28329 1.778808,-8.07399 z M 70,61.360243 C 70,60.53563 72.764647,58.362207 76.223139,56.467931 80.099075,54.345013 78.912985,56.855419 74.672461,59.75 71.306963,62.047289 70,62.4977 70,61.360243 Z m 86.0076,20.176345 C 152.51444,64.71015 137.78322,50.079029 118.84609,44.627592 115.73644,43.732416 111.74269,43 109.97109,43 c -3.07429,0 -3.19261,0.142423 -2.59609,3.125 0.34375,1.71875 0.63189,4.53125 0.64031,6.25 0.008,1.71875 0.37795,3.696346 0.82117,4.394658 0.44322,0.698312 5.01814,1.950946 10.1665,2.78363 10.9684,1.774007 16.23466,3.901001 22.61311,9.133222 4.70066,3.85594 14.28621,17.204261 14.49991,20.191795 0.0977,1.365338 0.18811,1.346014 0.57216,-0.122242 0.25088,-0.959165 -0.0554,-4.207929 -0.68056,-7.219475 z"
       id="path37109"
       inkscape:connector-curvature="0" />
    <path
       style="fill:#e66724"
       d="m 92,183.41926 c -1.375,-0.24341 -5.2,-0.92878 -8.5,-1.52304 -8.83668,-1.5913 -20.434667,-6.36273 -28.708555,-11.81073 C 45.416987,163.9128 43.579263,161.71484 42.131389,154.94375 39.644117,143.31184 34.268411,135.09746 22.862633,125.5 c -3.043827,-2.56124 -3.76846,-4.02376 -4.954703,-10 -1.968031,-9.91485 -1.515198,-26.197754 1.001173,-36 2.518672,-9.811214 9.70129,-24.377308 15.153174,-30.730098 2.274243,-2.650053 6.030779,-5.602171 8.542503,-6.713226 6.749751,-2.985736 10.467859,-5.986277 12.019468,-9.6998 1.765922,-4.226448 7.50861,-7.919749 17.875752,-11.496453 17.911406,-6.179504 35.63974,-6.458615 53.8076,-0.847134 6.67834,2.062728 7.49237,2.955853 9.10228,9.986711 1.17553,5.13383 1.98061,5.441505 6.81903,2.606004 l 4.47105,-2.620215 3.90002,2.60163 C 164.47757,41.844905 177.95824,61.963618 182.36909,80 c 4.0461,16.544941 2.481,40.14053 -2.95811,44.59664 -2.1293,1.74447 -2.46072,2.66828 -1.97314,5.5 0.44615,2.59105 -0.0732,4.59675 -2.17591,8.40336 -2.35015,4.25454 -3.25846,5.04761 -6.09231,5.31935 -2.42206,0.23226 -3.17208,0.70954 -2.75,1.75 0.31921,0.78686 0.8209,2.02062 1.11486,2.74169 0.86363,2.11844 -6.12839,10.34133 -14.3776,16.90861 -9.06668,7.21808 -20.62377,12.98922 -31.59556,15.77754 -7.68262,1.95242 -24.45265,3.32646 -29.56132,2.42207 z m 41.48691,-35.40839 c 0.7896,-0.65532 1.73879,-2.16334 2.10931,-3.35118 0.37052,-1.18783 3.51172,-5.17783 6.98045,-8.86666 22.70735,-24.14822 21.19646,-65.009339 -3.04339,-82.306532 -8.17126,-5.830889 -15.56039,-9.154988 -24.81482,-11.163275 -10.36448,-2.24918 -10.73284,-2.01258 -9.08825,5.837428 0.73046,3.486642 1.33749,7.336016 1.34895,8.554165 0.027,2.865707 2.15105,3.927947 9.52084,4.761313 9.77864,1.105755 17.82858,4.180723 23.10616,8.826234 9.76755,8.597735 17.47507,22.253535 15.96225,28.281094 -0.34423,1.371538 -1.73319,2.908893 -3.09634,3.427163 -2.28492,0.86872 -2.47634,1.45277 -2.52851,7.71463 -0.0711,8.53196 -1.72609,13.67224 -4.53107,14.07301 -2.87902,0.41134 -3.87128,-1.18399 -5.84771,-9.40181 -2.01567,-8.38098 -4.1609,-12.22388 -8.79831,-15.761002 -5.07293,-3.869309 -11.43105,-5.835727 -19.29603,-5.967805 -5.8073,-0.09752 -8.01687,0.364999 -12.707912,2.660112 -20.779159,10.166295 -20.993511,43.151765 -0.343343,52.835115 3.600755,1.68848 5.818995,1.86217 18.856445,1.47653 9.35003,-0.27657 15.3028,-0.87457 16.21128,-1.62853 z M 76.963888,115.11668 c 6.276117,-20.278536 20.752926,-30.036305 40.115672,-27.039066 8.53726,1.321518 15.08536,4.32599 20.44504,9.380815 2.06534,1.947864 3.9388,3.541571 4.16324,3.541571 0.22445,0 1.46776,-1.23194 2.76292,-2.737645 2.22892,-2.591283 2.27242,-2.898694 0.81362,-5.75 C 142.44762,87.006832 136.20736,80.430127 131.32339,77.819706 128.31441,76.21145 122.73831,74.626178 116.5,73.605457 104.72467,71.678759 102.06219,70.06363 99.97117,63.578619 L 98.442339,58.83717 95.21108,63.823851 C 91.099814,70.168616 86.446325,74.241107 79.029558,77.985079 75.793433,79.61867 72.775413,81.527814 72.322847,82.227622 71.870281,82.92743 71.5,87.247273 71.5,91.827274 c 0,8.160706 -0.06614,8.386466 -3.306375,11.286276 -1.818507,1.62745 -4.640371,3.2258 -6.27081,3.55189 -1.630439,0.32608 -3.166421,0.91971 -3.413295,1.31916 -1.184059,1.91584 13.587409,15.69156 15.535071,14.48784 0.437106,-0.27014 1.75079,-3.58024 2.919297,-7.35576 z M 45.466164,111.75 c 0.950732,-8.4989 3.509014,-14.925064 6.555365,-16.466459 1.363159,-0.689731 4.36861,-1.260691 6.678781,-1.268799 5.385605,-0.0189 6.147204,-1.413699 5.524449,-10.117512 -0.446692,-6.243108 -0.257358,-7.165709 2.106547,-10.264948 1.473472,-1.931821 5.449514,-4.838517 9.188864,-6.717542 8.092661,-4.066567 13.755548,-10.040738 17.641689,-18.611439 2.805408,-6.187196 2.868207,-6.612597 1.241519,-8.410067 -2.286926,-2.527024 -3.850646,-2.385756 -5.754484,0.519868 -1.706019,2.603716 -5.544651,3.813595 -12.630709,3.98101 -3.822872,0.09032 -4.671389,0.499976 -5.771207,2.786287 -0.709165,1.474219 -3.447742,4.264773 -6.085725,6.201231 C 58.233964,57.732659 51.211405,65.197145 48.056355,70.5 c -1.308938,2.2 -3.139194,4.9 -4.067237,6 -2.377603,2.818151 -4.407813,17.673062 -3.713109,27.16858 C 40.852146,111.54346 42.521453,118 43.981328,118 c 0.432123,0 1.100299,-2.8125 1.484836,-6.25 z"
       id="path37107"
       inkscape:connector-curvature="0" />
    <path
       style="fill:#625d5c"
       d="m 92,183.41926 c -1.375,-0.24341 -5.2,-0.92878 -8.5,-1.52304 -8.83668,-1.5913 -20.434667,-6.36273 -28.708555,-11.81073 C 45.416987,163.9128 43.579263,161.71484 42.131389,154.94375 39.644117,143.31184 34.268411,135.09746 22.862633,125.5 c -3.043827,-2.56124 -3.76846,-4.02376 -4.954703,-10 -1.968031,-9.91485 -1.515198,-26.197754 1.001173,-36 2.518672,-9.811214 9.70129,-24.377308 15.153174,-30.730098 2.274243,-2.650053 6.030779,-5.602171 8.542503,-6.713226 6.749751,-2.985736 10.467859,-5.986277 12.019468,-9.6998 1.765922,-4.226448 7.50861,-7.919749 17.875752,-11.496453 17.911406,-6.179504 35.63974,-6.458615 53.8076,-0.847134 6.67834,2.062728 7.49237,2.955853 9.10228,9.986711 1.17553,5.13383 1.98061,5.441505 6.81903,2.606004 l 4.47105,-2.620215 3.90002,2.60163 C 164.47757,41.844905 177.95824,61.963618 182.36909,80 c 4.0461,16.544941 2.481,40.14053 -2.95811,44.59664 -2.1293,1.74447 -2.46072,2.66828 -1.97314,5.5 0.44615,2.59105 -0.0732,4.59675 -2.17591,8.40336 -2.35015,4.25454 -3.25846,5.04761 -6.09231,5.31935 -2.42206,0.23226 -3.17208,0.70954 -2.75,1.75 0.31921,0.78686 0.8209,2.02062 1.11486,2.74169 0.86363,2.11844 -6.12839,10.34133 -14.3776,16.90861 -9.06668,7.21808 -20.62377,12.98922 -31.59556,15.77754 -7.68262,1.95242 -24.45265,3.32646 -29.56132,2.42207 z m 26,-14.44285 c 11.66977,-2.59322 26.65957,-10.89925 34.88152,-19.32826 3.64206,-3.73379 4.29028,-4.96911 3.84093,-7.31975 -0.92424,-4.8348 1.62762,-9.12088 6.73348,-11.30951 4.29284,-1.84013 5.77129,-4.14239 3.54407,-5.51889 -2.4443,-1.51066 -0.99386,-6.03192 3.05171,-9.51274 3.85045,-3.31292 4.14578,-3.96239 5.19192,-11.41763 1.36517,-9.728702 -0.24746,-24.734238 -3.6721,-34.169019 -3.18685,-8.779666 -9.62287,-19.261945 -16.16584,-26.329135 -6.41529,-6.929283 -8.2016,-7.745497 -12.30605,-5.623001 -6.89837,3.567287 -12.12559,0.652957 -15.60504,-8.700285 -1.6326,-4.388642 -2.15851,-4.87275 -6.88115,-6.334214 -7.9475,-2.459427 -25.574096,-2.986058 -34.952883,-1.04429 C 75.027188,24.571203 65.92923,28.360901 63.5,31.600533 59.032523,37.558381 53.113713,42.71202 47.908057,45.176781 41.701199,48.11559 38.602758,51.688015 33.611167,61.660738 27.152764,74.564011 26.5,77.749169 26.5,96.359606 v 16.859604 l 3.455563,2.88483 c 1.900559,1.58666 3.761041,2.54984 4.134404,2.1404 0.373363,-0.40944 0.232388,-4.08805 -0.313276,-8.17467 -0.696158,-5.21372 -0.647439,-10.117901 0.163315,-16.439824 1.098234,-8.563574 1.050876,-9.151004 -0.956645,-11.866322 -3.302249,-4.466531 -2.065068,-6.895832 4.176272,-8.200434 1.813783,-0.379128 4.126748,-2.61191 7.272731,-7.02061 2.537203,-3.555572 7.395052,-8.844705 10.795219,-11.753629 3.400167,-2.908923 7.327438,-6.56927 8.727269,-8.134104 7.515377,-8.401239 6.758822,-7.963862 12.590031,-7.278518 5.171804,0.607844 5.51533,0.496791 8.884139,-2.872018 3.769171,-3.769171 5.986497,-4.291213 9.098472,-2.142124 1.084878,0.749203 5.721376,1.683301 10.303316,2.075774 11.23114,0.962016 18.14382,2.835249 27.66919,7.497926 9.16247,4.485041 18.75736,12.673346 23.48703,20.043907 1.77511,2.766259 4.57402,9.189956 6.2198,14.274884 5.26523,16.267802 3.8305,34.649252 -3.92163,50.243222 -3.91715,7.87964 -8.59151,14.5619 -13.2923,19.0021 -1.74683,1.65 -4.0953,4.8 -5.21882,7 -2.43559,4.76923 -3.35085,5.46457 -7.21936,5.48469 -1.80661,0.009 -4.01234,1.03762 -5.70532,2.6596 -2.74372,2.62865 -2.77656,2.63337 -5.55472,0.79836 -2.07121,-1.36807 -4.86566,-1.88142 -10.79468,-1.98302 -13.103229,-0.22453 -22.400071,-5.25172 -28.73304,-15.53715 -4.859546,-7.89242 -6.053263,-21.54971 -2.802834,-32.06714 3.399301,-10.99914 8.74509,-17.690445 17.786499,-22.263289 12.443505,-6.293508 31.887415,-2.490455 41.167195,8.051928 3.76772,4.280351 6.08218,4.978991 6.08218,1.835961 0,-0.77112 0.97323,-2.308729 2.16273,-3.416917 2.13695,-1.990875 2.14117,-2.06269 0.35394,-6.026046 -1.99741,-4.429484 -11.31648,-13.847855 -16.20119,-16.373837 -1.71953,-0.889202 -7.73722,-2.38248 -13.37266,-3.318395 -12.21941,-2.029363 -14.96651,-3.822819 -15.85393,-10.350304 -0.32389,-2.382408 -1.092922,-4.498789 -1.708961,-4.703069 -0.616039,-0.204281 -2.560208,1.872839 -4.320375,4.615821 -4.192869,6.53402 -9.608995,11.331777 -17.00962,15.0676 -7.99,4.033339 -9.204887,6.008691 -7.845804,12.75692 C 72.025826,98.776938 67.657967,105 59.487586,105 c -2.435399,0 -4.742277,0.60196 -5.415479,1.41312 -0.64503,0.77721 -1.557577,6.22067 -2.027881,12.09657 -0.751036,9.38332 -1.15955,11.00638 -3.356809,13.33689 l -2.501711,2.65342 2.955244,8.99548 c 1.734143,5.27857 4.034544,10.12203 5.567308,11.72189 5.286577,5.518 21.296099,12.47502 34.122598,14.82815 5.462894,1.00222 22.689274,0.37084 29.169144,-1.06911 z m 9.88461,-19.73395 c 4.70477,-0.48009 5.58856,-0.9294 7,-3.55875 0.88846,-1.65511 4.42819,-6.1218 7.86605,-9.92599 18.18506,-20.12281 21.22326,-50.593756 7.14646,-71.673923 -6.78816,-10.165347 -20.32085,-18.536307 -35.17866,-21.760574 -10.36448,-2.24918 -10.73284,-2.01258 -9.08825,5.837428 0.73046,3.486642 1.33749,7.336016 1.34895,8.554165 0.0271,2.877842 2.46827,4.103332 9.66568,4.852226 9.38791,0.976816 17.33248,3.996687 22.76523,8.653463 9.79432,8.395374 17.69097,22.256466 16.15834,28.362952 -0.34423,1.371538 -1.73319,2.908893 -3.09634,3.427163 -2.28492,0.86872 -2.47634,1.45277 -2.52851,7.71463 -0.0711,8.53196 -1.72609,13.67224 -4.53107,14.07301 -2.87902,0.41134 -3.87128,-1.18399 -5.84771,-9.40181 -2.01567,-8.38098 -4.1609,-12.22388 -8.79831,-15.761002 -5.07293,-3.869309 -11.43105,-5.835727 -19.29603,-5.967805 -5.8073,-0.09752 -8.01687,0.364999 -12.707912,2.660112 -20.772615,10.163095 -20.987829,43.264275 -0.343343,52.808045 4.205615,1.94422 16.669865,2.41235 29.465425,1.10666 z M 45.383518,112.25 C 46.952782,98.555154 50.326624,94 58.90065,94 c 5.164614,0 5.941484,-1.47415 5.324109,-10.10277 -0.446692,-6.243108 -0.257358,-7.165709 2.106547,-10.264948 1.473472,-1.931821 5.449514,-4.838517 9.188864,-6.717542 8.092661,-4.066567 13.755548,-10.040738 17.641689,-18.611439 2.805408,-6.187196 2.868207,-6.612597 1.241519,-8.410067 -2.286926,-2.527024 -3.850646,-2.385756 -5.754484,0.519868 -1.706019,2.603716 -5.544651,3.813595 -12.630709,3.98101 -3.822872,0.09032 -4.671389,0.499976 -5.771207,2.786287 -0.709165,1.474219 -3.447742,4.264773 -6.085725,6.201231 C 58.233964,57.732659 51.211405,65.197145 48.056355,70.5 c -1.308938,2.2 -3.139194,4.9 -4.067237,6 -2.377603,2.818151 -4.407813,17.673062 -3.713109,27.16858 0.57291,7.83078 2.244009,14.33142 3.684135,14.33142 0.420471,0 1.06099,-2.5875 1.423374,-5.75 z"
       id="path37105"
       inkscape:connector-curvature="0" />
    <path
       style="fill:#a05320"
       d="m 83.5,180.51534 c -9.491281,-2.09704 -18.742403,-5.836 -26.670819,-10.77937 -9.746123,-6.0767 -11.679629,-8.33456 -13.38037,-15.62498 C 40.75757,142.57467 33.998113,132.32668 24.225318,124.96632 21.421059,122.8543 20.72557,121.42259 19.383929,115 17.465372,105.81565 17.999811,88.572957 20.499752,79 24.301613,64.441638 34.532104,47.477406 41.40124,44.341085 49.124819,40.814643 53.936479,37.101586 55.723994,33.288516 57.176735,30.189577 58.865134,28.817296 65,25.749247 c 11.239991,-5.621124 20.99598,-7.752088 35.40996,-7.734466 11.45967,0.01401 20.24886,1.32394 28.34519,4.224531 2.83462,1.01553 3.46862,1.926997 4.90754,7.055279 0.90882,3.238999 2.3156,6.143582 3.12617,6.454629 0.81058,0.311047 3.39694,-0.485038 5.74749,-1.769076 4.21624,-2.303218 4.31197,-2.309586 7.11868,-0.473545 1.56473,1.023589 5.26185,4.140845 8.2158,6.927236 19.48504,18.379717 28.74983,47.110971 23.99543,74.412775 -0.90096,5.17367 -1.75899,7.08151 -4.17884,9.29171 -2.69317,2.45983 -2.91506,3.06665 -1.91992,5.25074 0.94491,2.07386 0.6932,3.32188 -1.57117,7.79021 -2.42423,4.78379 -2.98927,5.28926 -5.59912,5.00893 -3.60192,-0.3869 -4.66342,1.17614 -3.28278,4.83386 0.95416,2.52785 0.67467,3.28526 -2.75808,7.47448 -9.06318,11.06041 -26.94429,21.76251 -42.55635,25.47058 -9.98061,2.37053 -27.089109,2.6275 -36.5,0.54822 z M 118,168.97641 c 11.66977,-2.59322 26.65957,-10.89925 34.88152,-19.32826 3.64206,-3.73379 4.29028,-4.96911 3.84093,-7.31975 -0.92424,-4.8348 1.62762,-9.12088 6.73348,-11.30951 4.29284,-1.84013 5.77129,-4.14239 3.54407,-5.51889 -2.4443,-1.51066 -0.99386,-6.03192 3.05171,-9.51274 3.85045,-3.31292 4.14578,-3.96239 5.19192,-11.41763 1.36517,-9.728702 -0.24746,-24.734238 -3.6721,-34.169019 -3.18685,-8.779666 -9.62287,-19.261945 -16.16584,-26.329135 -6.41529,-6.929283 -8.2016,-7.745497 -12.30605,-5.623001 -6.89837,3.567287 -12.12559,0.652957 -15.60504,-8.700285 -1.6326,-4.388642 -2.15851,-4.87275 -6.88115,-6.334214 -7.9475,-2.459427 -25.574096,-2.986058 -34.952883,-1.04429 C 75.027188,24.571203 65.92923,28.360901 63.5,31.600533 59.032523,37.558381 53.113713,42.71202 47.908057,45.176781 41.701199,48.11559 38.602758,51.688015 33.611167,61.660738 27.152764,74.564011 26.5,77.749169 26.5,96.359606 v 16.859604 l 3.455563,2.88483 c 1.900559,1.58666 3.761041,2.54984 4.134404,2.1404 0.373363,-0.40944 0.232388,-4.08805 -0.313276,-8.17467 -0.696158,-5.21372 -0.647439,-10.117901 0.163315,-16.439824 1.098234,-8.563574 1.050876,-9.151004 -0.956645,-11.866322 -3.302249,-4.466531 -2.065068,-6.895832 4.176272,-8.200434 1.813783,-0.379128 4.126748,-2.61191 7.272731,-7.02061 2.537203,-3.555572 7.395052,-8.844705 10.795219,-11.753629 3.400167,-2.908923 7.327438,-6.56927 8.727269,-8.134104 7.515377,-8.401239 6.758822,-7.963862 12.590031,-7.278518 5.171804,0.607844 5.51533,0.496791 8.884139,-2.872018 3.769171,-3.769171 5.986497,-4.291213 9.098472,-2.142124 1.084878,0.749203 5.721376,1.683301 10.303316,2.075774 11.23114,0.962016 18.14382,2.835249 27.66919,7.497926 9.16247,4.485041 18.75736,12.673346 23.48703,20.043907 1.77511,2.766259 4.57402,9.189956 6.2198,14.274884 5.26523,16.267802 3.8305,34.649252 -3.92163,50.243222 -3.91715,7.87964 -8.59151,14.5619 -13.2923,19.0021 -1.74683,1.65 -4.0953,4.8 -5.21882,7 -2.43559,4.76923 -3.35085,5.46457 -7.21936,5.48469 -1.80661,0.009 -4.01234,1.03762 -5.70532,2.6596 -2.74372,2.62865 -2.77656,2.63337 -5.55472,0.79836 -2.07121,-1.36807 -4.86566,-1.88142 -10.79468,-1.98302 -13.103229,-0.22453 -22.400071,-5.25172 -28.73304,-15.53715 -4.859546,-7.89242 -6.053263,-21.54971 -2.802834,-32.06714 3.399301,-10.99914 8.74509,-17.690445 17.786499,-22.263289 12.443505,-6.293508 31.887415,-2.490455 41.167195,8.051928 3.76772,4.280351 6.08218,4.978991 6.08218,1.835961 0,-0.77112 0.97323,-2.308729 2.16273,-3.416917 2.13695,-1.990875 2.14117,-2.06269 0.35394,-6.026046 -1.99741,-4.429484 -11.31648,-13.847855 -16.20119,-16.373837 -1.71953,-0.889202 -7.73722,-2.38248 -13.37266,-3.318395 -12.21941,-2.029363 -14.96651,-3.822819 -15.85393,-10.350304 -0.32389,-2.382408 -1.092922,-4.498789 -1.708961,-4.703069 -0.616039,-0.204281 -2.560208,1.872839 -4.320375,4.615821 -4.192869,6.53402 -9.608995,11.331777 -17.00962,15.0676 -7.99,4.033339 -9.204887,6.008691 -7.845804,12.75692 C 72.025826,98.776938 67.657967,105 59.487586,105 c -2.435399,0 -4.742277,0.60196 -5.415479,1.41312 -0.64503,0.77721 -1.557577,6.22067 -2.027881,12.09657 -0.751036,9.38332 -1.15955,11.00638 -3.356809,13.33689 l -2.501711,2.65342 2.955244,8.99548 c 1.734143,5.27857 4.034544,10.12203 5.567308,11.72189 5.286577,5.518 21.296099,12.47502 34.122598,14.82815 5.462894,1.00222 22.689274,0.37084 29.169144,-1.06911 z m 9.88461,-19.73395 c 4.70477,-0.48009 5.58856,-0.9294 7,-3.55875 0.88846,-1.65511 4.42819,-6.1218 7.86605,-9.92599 18.18506,-20.12281 21.22326,-50.593756 7.14646,-71.673923 -6.78816,-10.165347 -20.32085,-18.536307 -35.17866,-21.760574 -10.36448,-2.24918 -10.73284,-2.01258 -9.08825,5.837428 0.73046,3.486642 1.33749,7.336016 1.34895,8.554165 0.0271,2.877842 2.46827,4.103332 9.66568,4.852226 9.38791,0.976816 17.33248,3.996687 22.76523,8.653463 9.79432,8.395374 17.69097,22.256466 16.15834,28.362952 -0.34423,1.371538 -1.73319,2.908893 -3.09634,3.427163 -2.28492,0.86872 -2.47634,1.45277 -2.52851,7.71463 -0.0711,8.53196 -1.72609,13.67224 -4.53107,14.07301 -2.87902,0.41134 -3.87128,-1.18399 -5.84771,-9.40181 -2.01567,-8.38098 -4.1609,-12.22388 -8.79831,-15.761002 -5.07293,-3.869309 -11.43105,-5.835727 -19.29603,-5.967805 -5.8073,-0.09752 -8.01687,0.364999 -12.707912,2.660112 -20.772615,10.163095 -20.987829,43.264275 -0.343343,52.808045 4.205615,1.94422 16.669865,2.41235 29.465425,1.10666 z M 45.383518,112.25 C 46.952782,98.555154 50.326624,94 58.90065,94 c 5.164614,0 5.941484,-1.47415 5.324109,-10.10277 -0.446692,-6.243108 -0.257358,-7.165709 2.106547,-10.264948 1.473472,-1.931821 5.449514,-4.838517 9.188864,-6.717542 8.092661,-4.066567 13.755548,-10.040738 17.641689,-18.611439 2.805408,-6.187196 2.868207,-6.612597 1.241519,-8.410067 -2.286926,-2.527024 -3.850646,-2.385756 -5.754484,0.519868 -1.706019,2.603716 -5.544651,3.813595 -12.630709,3.98101 -3.822872,0.09032 -4.671389,0.499976 -5.771207,2.786287 -0.709165,1.474219 -3.447742,4.264773 -6.085725,6.201231 C 58.233964,57.732659 51.211405,65.197145 48.056355,70.5 c -1.308938,2.2 -3.139194,4.9 -4.067237,6 -2.377603,2.818151 -4.407813,17.673062 -3.713109,27.16858 0.57291,7.83078 2.244009,14.33142 3.684135,14.33142 0.420471,0 1.06099,-2.5875 1.423374,-5.75 z"
       id="path37103"
       inkscape:connector-curvature="0" />
    <path
       style="fill:#8c3b1d"
       d="m 83.5,180.51534 c -9.491281,-2.09704 -18.742403,-5.836 -26.670819,-10.77937 -9.746123,-6.0767 -11.679629,-8.33456 -13.38037,-15.62498 C 40.75757,142.57467 33.998113,132.32668 24.225318,124.96632 21.421059,122.8543 20.72557,121.42259 19.383929,115 17.465372,105.81565 17.999811,88.572957 20.499752,79 24.301613,64.441638 34.532104,47.477406 41.40124,44.341085 49.124819,40.814643 53.936479,37.101586 55.723994,33.288516 57.176735,30.189577 58.865134,28.817296 65,25.749247 c 11.239991,-5.621124 20.99598,-7.752088 35.40996,-7.734466 11.45967,0.01401 20.24886,1.32394 28.34519,4.224531 2.83462,1.01553 3.46862,1.926997 4.90754,7.055279 0.90882,3.238999 2.3156,6.143582 3.12617,6.454629 0.81058,0.311047 3.39694,-0.485038 5.74749,-1.769076 4.21624,-2.303218 4.31197,-2.309586 7.11868,-0.473545 1.56473,1.023589 5.26185,4.140845 8.2158,6.927236 19.48504,18.379717 28.74983,47.110971 23.99543,74.412775 -0.90096,5.17367 -1.75899,7.08151 -4.17884,9.29171 -2.69317,2.45983 -2.91506,3.06665 -1.91992,5.25074 0.94491,2.07386 0.6932,3.32188 -1.57117,7.79021 -2.42423,4.78379 -2.98927,5.28926 -5.59912,5.00893 -3.60192,-0.3869 -4.66342,1.17614 -3.28278,4.83386 0.95416,2.52785 0.67467,3.28526 -2.75808,7.47448 -9.06318,11.06041 -26.94429,21.76251 -42.55635,25.47058 -9.98061,2.37053 -27.089109,2.6275 -36.5,0.54822 z M 93.750467,176.75 C 93.120444,174.85781 90,174.5888 90,176.42668 90,177.35431 90.854996,178 92.083333,178 c 1.221973,0 1.911255,-0.51682 1.667134,-1.25 z M 116.5,176.60032 c 7.68868,-1.74021 15.97216,-4.82917 18.23249,-6.799 0.97213,-0.84719 2.28877,-1.35031 2.92587,-1.11805 0.6371,0.23227 1.45115,-0.0514 1.80902,-0.63048 C 139.85815,167.4205 139.09592,167 137.55902,167 c -4.42668,0 -2.80716,-1.93428 4.41621,-5.27451 3.83638,-1.77402 6.98638,-3.78799 7,-4.47549 0.0136,-0.6875 1.11297,-1.25 2.44298,-1.25 3.16654,0 5.58179,-0.96217 5.58179,-2.22362 0,-0.5553 -0.9164,-0.77 -2.03644,-0.4771 -1.67553,0.43816 -1.49148,-0.0249 1.03847,-2.61256 3.28848,-3.36354 4.58903,-6.70405 3.60671,-9.26395 -0.75189,-1.95938 0.29028,-6.42277 1.49967,-6.42277 0.49037,0 0.89159,0.85787 0.89159,1.90638 0,1.41405 0.51651,1.77131 2,1.38337 1.1,-0.28766 2,-1.11564 2,-1.83996 0,-0.72432 1.2375,-1.45934 2.75,-1.63337 2.92168,-0.33617 2.99484,-0.68159 1.65567,-7.81642 -0.36132,-1.925 -1.15426,-4.12125 -1.76211,-4.88057 -0.85208,-1.0644 -0.56904,-1.75142 1.23595,-3 1.28762,-0.89068 3.4803,-2.6753 4.87264,-3.96581 2.43794,-2.25964 2.51126,-2.26889 1.98331,-0.25 -0.30152,1.15301 -0.0815,2.09638 0.489,2.09638 0.62692,0 0.81255,-1.38454 0.46925,-3.5 -0.33628,-2.07227 -0.15434,-3.5 0.44601,-3.5 0.92253,0 0.56711,-16.64628 -0.54445,-25.5 -0.65755,-5.237425 -4.33679,-16.250854 -7.25542,-21.718364 C 165.16843,53.093941 156.75106,42.5123 150.5827,37.944514 l -3.91731,-2.900833 -3.20073,1.978159 C 141.70426,38.109828 139.11221,39 137.70455,39 c -3.10822,0 -6.40036,-3.861598 -7.2773,-8.536078 -0.34392,-1.833252 -1.36824,-3.997259 -2.27628,-4.808905 -6.11646,-5.467195 -33.822956,-7.117244 -48.460287,-2.886031 -11.090731,3.205997 -17.250886,6.58147 -20.068226,10.996437 -3.347058,5.245072 -6.203131,7.642973 -13.27651,11.146687 -5.02566,2.489401 -6.893308,4.15538 -10.185819,9.085954 C 30.362816,62.679607 26.950927,70.361388 24.833357,79.5 c -1.91805,8.277562 -3.574002,30.6303 -2.000502,27.00362 0.696932,-1.60632 1.011544,-1.02017 1.610241,3 0.409242,2.74801 1.207063,5.55888 1.772935,6.24638 0.716196,0.87013 0.644451,1.71318 -0.236087,2.77417 -0.69572,0.83829 -0.939028,1.85008 -0.540684,2.24842 0.398344,0.39835 1.393112,-0.17503 2.210595,-1.27416 1.469591,-1.97592 1.510909,-1.97004 3.668239,0.52206 1.522191,1.75841 2.978759,2.42197 4.817374,2.19463 l 2.635468,-0.32586 -1.514897,-4.69463 c -1.758931,-5.45089 -2.048047,-23.385105 -0.482738,-29.944845 0.876511,-3.673197 0.744108,-4.593582 -0.975257,-6.779401 -2.545902,-3.23659 -1.814295,-5.048688 2.372117,-5.875432 2.685076,-0.530257 4.186664,-1.928544 7.754856,-7.221366 2.433759,-3.610078 7.131362,-8.883486 10.439118,-11.718682 5.707457,-4.892068 9.101823,-8.235757 13.676932,-13.47274 1.817634,-2.080588 2.577034,-2.24885 7.41912,-1.643871 5.231334,0.653612 5.503118,0.565069 9.000351,-2.932165 C 88.443909,35.622758 90.278298,34 90.536958,34 c 0.25866,0 2.149496,0.9 4.201857,2 2.584573,1.385248 5.642085,2 9.947155,2 9.22945,0 15.75601,1.660729 26.1746,6.660304 16.2342,7.79032 26.10828,19.812272 30.66851,37.339696 2.01558,7.746932 1.53041,26.69793 -0.87044,34 -3.68788,11.21651 -9.25055,20.64454 -16.39718,27.79117 -2.46099,2.46099 -5.10085,5.97352 -5.86635,7.80561 -1.59563,3.8189 -4.00205,5.40322 -8.20692,5.40322 -1.61882,0 -3.5035,0.675 -4.18819,1.5 -1.5137,1.82389 -3.88805,1.95455 -4.54324,0.25 -0.33997,-0.88448 -3.47424,-1.25878 -10.71861,-1.28001 C 102.23702,157.44507 99.821353,157.0777 96.5,155.30472 84.272261,148.77739 77.260614,133.78293 79.720574,119.42179 81.766149,107.47981 88.355391,97.53289 97.436936,92.67772 100.78742,90.886486 103.16611,90.505042 111,90.502763 c 10.22146,-0.003 13.66705,0.946145 20.72654,5.709313 4.80575,3.242528 8.28278,8.694834 10.85764,17.025794 0.97538,3.15583 2.03046,5.48292 2.34462,5.17132 0.31416,-0.3116 0.7962,-4.69364 1.0712,-9.73787 0.49726,-9.120996 0.51509,-9.173056 3.25,-9.487742 3.40494,-0.391782 3.45977,-1.849404 0.30385,-8.077318 C 146.18301,84.45424 137.61019,75.342792 132.09177,72.547046 129.50867,71.23839 123.12551,69.528908 117.5,68.639202 105.71937,66.776028 103.08217,64.801521 102.88169,57.694236 102.71497,51.784158 101.70611,47.733558 100.28293,47.26014 99.579483,47.026142 97.751689,49.636719 95.951868,53.446046 91.909251,62.00226 85.115055,69.15588 77,73.400499 c -3.575,1.869921 -7.362857,4.553026 -8.41746,5.962456 -1.729944,2.311992 -1.79999,3.08751 -0.716262,7.930116 1.310228,5.854719 0.894337,8.030838 -2.189604,11.456929 -1.551024,1.7231 -3.119069,2.25 -6.696,2.25 -6.576034,0 -7.585123,1.52717 -8.920233,13.5 -1.538155,13.79367 -1.742087,14.5 -4.186482,14.5 -1.435226,0 -1.909891,0.46398 -1.518393,1.48421 0.313248,0.81631 -0.165834,2.76552 -1.064628,4.33158 -1.813102,3.15915 -1.176584,6.46129 1.078654,5.59588 1.071746,-0.41127 2.037159,1.3207 3.73523,6.70107 1.662463,5.26754 1.961835,7.36504 1.092554,7.6548 C 48.538819,154.98706 48,155.77761 48,156.52432 c 0,1.94762 2.081485,2.96187 3.006586,1.46502 0.582217,-0.94204 2.66892,-0.12258 8.138197,3.19592 4.045369,2.45455 9.564531,5.30556 12.264803,6.33558 2.700273,1.03002 4.387773,2.04671 3.75,2.2593 C 74.521814,169.99273 74,170.92943 74,171.8617 c 0,1.20062 1.691607,2.1972 5.799479,3.41667 6.216938,1.84556 7.921457,2.10923 6.875864,1.06364 -0.361895,-0.3619 -0.135524,-1.28753 0.503047,-2.05696 0.98018,-1.18104 0.355735,-1.29214 -4.008676,-0.71318 C 78.659111,174.17023 78,174.03552 78,172.51533 c 0,-1.42255 0.596487,-1.63182 3.25,-1.1402 1.7875,0.33117 6.85,0.86823 11.25,1.19346 7.399512,0.54695 14.5,2.82832 14.5,4.65881 0,1.102 2.62647,0.92863 9.5,-0.62708 z m -7.74295,-1.42136 c -0.42436,-1.62274 0.33712,-2.10557 4.94829,-3.1375 2.99741,-0.67079 5.70433,-0.96513 6.01538,-0.65408 0.667,0.667 -1.23099,1.39616 -4.72072,1.81358 -1.41119,0.1688 -2.5,0.94636 -2.5,1.78534 0,2.24932 -3.16255,2.4121 -3.74295,0.19266 z M 167,132.60699 c 0,-0.21616 0.69837,-0.661 1.55194,-0.98855 0.88992,-0.34149 1.29132,-0.17385 0.94098,0.39301 C 168.90566,132.96166 167,133.4169 167,132.60699 Z M 66.355773,168.51525 c 0.688682,-1.79467 -2.550323,-3.76156 -4.783331,-2.90468 -2.346042,0.90027 -1.908223,2.10013 1.177558,3.22715 1.5125,0.55241 2.814355,1.03991 2.893011,1.08333 0.07866,0.0434 0.399399,-0.58919 0.712762,-1.4058 z M 145.5,164 c 0.33992,-0.55 0.14148,-1 -0.44098,-1 -0.58246,0 -1.05902,0.45 -1.05902,1 0,0.55 0.19844,1 0.44098,1 0.24254,0 0.7191,-0.45 1.05902,-1 z m -15.82071,-11.61884 c 3.45175,-0.51663 4.40003,-1.15845 5.44732,-3.68683 0.69742,-1.68371 3.57757,-5.48411 6.40034,-8.44533 9.88944,-10.37448 15.60796,-22.74001 17.47885,-37.79564 3.21098,-25.8399 -7.78915,-46.225809 -30.49965,-56.523244 -8.35364,-3.787719 -19.65922,-6.291892 -23.91057,-5.296162 -4.43802,1.03945 -7.789934,0.471037 -10.160031,-1.722924 C 91.673534,36.354277 90.900433,36.481399 87.812914,40 c -2.679004,3.053048 -4.111731,3.434938 -11.455167,3.053345 -3.507653,-0.182271 -4.426864,0.200726 -6,2.49995 -1.021761,1.493359 -2.938741,3.667287 -4.259956,4.830952 -9.563141,8.422767 -15.532096,14.636623 -18.26839,19.017927 -1.751085,2.803804 -4.066583,6.093389 -5.145551,7.310188 -1.078967,1.216799 -2.072846,3.916799 -2.208618,6 -0.135772,2.083201 -0.582431,7.425526 -0.992574,11.871834 -0.475051,5.149963 -0.314265,10.561764 0.442985,14.910214 1.157406,6.64632 3.705668,13.20761 4.731235,12.18205 0.280173,-0.28018 0.923507,-3.80733 1.429631,-7.83812 1.724594,-13.73474 3.475292,-16.160999 11.544288,-15.999036 6.431886,0.129102 7.504428,-1.480533 7.226727,-10.845639 -0.289812,-9.773568 0.753544,-11.490581 9.90433,-16.299183 8.394867,-4.411377 14.494448,-10.777661 18.239345,-19.036853 6.116636,-13.489951 10.518211,-12.374486 12.948891,3.281559 0.54984,3.541553 1.57351,6.97656 2.27481,7.633349 0.70131,0.656789 5.68154,1.919895 11.0672,2.806902 5.38565,0.887008 11.23565,2.345538 13,3.241179 5.39073,2.736516 11.74869,8.429171 16.26256,14.560837 7.08743,9.627591 8.2651,16.894015 2.95405,18.227005 -2.3998,0.60231 -2.50871,0.95581 -2.50871,8.14271 0,15.35555 -5.02444,18.76142 -8.48341,5.75057 C 137.0337,102.20088 132.60121,97.021158 121.80443,93.435042 115.67017,91.397568 103.04074,91.843158 98.5,94.257266 93.544372,96.891949 87.841831,103.16181 85.091249,109 c -2.170854,4.6077 -2.584285,6.87901 -2.548326,14 0.08122,16.08486 7.696033,26.82089 21.191547,29.87772 3.89483,0.88221 18.6154,0.60047 25.94482,-0.49656 z M 47,147.5 c -0.580776,-1.52756 -1.280957,-2.55238 -1.555957,-2.27738 -0.275,0.275 -0.02482,1.74982 0.555957,3.27738 0.580776,1.52756 1.280957,2.55238 1.555957,2.27738 0.275,-0.275 0.02482,-1.74982 -0.555957,-3.27738 z m -8.654923,-16.04313 c -0.325685,-0.84872 -0.806623,-1.32866 -1.068751,-1.06653 -0.262128,0.26213 -0.179978,0.95654 0.182555,1.54313 0.98605,1.59546 1.56238,1.28551 0.886196,-0.4766 z M 35,126.55902 c 0,-0.24254 -0.45,-0.7191 -1,-1.05902 -0.55,-0.33992 -1,-0.14148 -1,0.44098 0,0.58246 0.45,1.05902 1,1.05902 0.55,0 1,-0.19844 1,-0.44098 z M 31,123 c 0,-0.55 -0.198442,-1 -0.440983,-1 -0.242541,0 -0.719098,0.45 -1.059017,1 -0.339919,0.55 -0.141476,1 0.440983,1 C 30.523442,124 31,123.55 31,123 Z m 142.86888,-1.34201 c 0.61257,-0.7381 0.81767,-1.6381 0.45578,-2 -1.29426,-1.29426 -3.10038,-0.62366 -3.61441,1.34201 -0.60327,2.30691 1.43735,2.732 3.15863,0.65799 z"
       id="path37101"
       inkscape:connector-curvature="0" />
    <path
       style="fill:#6e4c18"
       d="m 83.5,180.51534 c -9.491281,-2.09704 -18.742403,-5.836 -26.670819,-10.77937 -9.746123,-6.0767 -11.679629,-8.33456 -13.38037,-15.62498 C 40.75757,142.57467 33.998113,132.32668 24.225318,124.96632 21.421059,122.8543 20.72557,121.42259 19.383929,115 17.465372,105.81565 17.999811,88.572957 20.499752,79 24.301613,64.441638 34.532104,47.477406 41.40124,44.341085 49.124819,40.814643 53.936479,37.101586 55.723994,33.288516 57.176735,30.189577 58.865134,28.817296 65,25.749247 c 11.239991,-5.621124 20.99598,-7.752088 35.40996,-7.734466 11.45967,0.01401 20.24886,1.32394 28.34519,4.224531 2.83462,1.01553 3.46862,1.926997 4.90754,7.055279 0.90882,3.238999 2.3156,6.143582 3.12617,6.454629 0.81058,0.311047 3.39694,-0.485038 5.74749,-1.769076 4.21624,-2.303218 4.31197,-2.309586 7.11868,-0.473545 1.56473,1.023589 5.26185,4.140845 8.2158,6.927236 19.48504,18.379717 28.74983,47.110971 23.99543,74.412775 -0.90096,5.17367 -1.75899,7.08151 -4.17884,9.29171 -2.69317,2.45983 -2.91506,3.06665 -1.91992,5.25074 0.94491,2.07386 0.6932,3.32188 -1.57117,7.79021 -2.42423,4.78379 -2.98927,5.28926 -5.59912,5.00893 -3.60192,-0.3869 -4.66342,1.17614 -3.28278,4.83386 0.95416,2.52785 0.67467,3.28526 -2.75808,7.47448 -9.06318,11.06041 -26.94429,21.76251 -42.55635,25.47058 -9.98061,2.37053 -27.089109,2.6275 -36.5,0.54822 z m 38.5,-3.51692 c 13.6134,-3.82059 27.1103,-11.86013 36.68247,-21.8502 4.19007,-4.373 4.31492,-4.68718 3.70117,-9.31387 -0.58903,-4.4403 -0.45586,-4.85639 1.83267,-5.72649 1.35732,-0.51605 3.27008,-0.86393 4.25058,-0.77307 1.14027,0.10567 2.51366,-1.2244 3.81094,-3.69074 1.97696,-3.75851 1.98215,-3.93392 0.20545,-6.94164 -1.74396,-2.95229 -1.74589,-3.13144 -0.0447,-4.14405 5.82364,-3.4664 6.3239,-4.34044 7.59025,-13.2615 3.02335,-21.298723 -2.68203,-43.015902 -15.86893,-60.404097 -5.56152,-7.333403 -14.79845,-15.894801 -17.14273,-15.889025 -0.83445,0.0021 -2.99056,0.902056 -4.79135,2 -6.13882,3.742837 -8.50312,2.120583 -11.12762,-7.635157 -1.14311,-4.249207 -1.31593,-4.375909 -10.0982,-7.403557 -1.925,-0.663635 -9.8,-1.423285 -17.5,-1.68811 -12.110377,-0.416512 -15.131937,-0.190174 -22.386394,1.676907 -11.356811,2.922906 -21.881302,8.272425 -22.70111,11.538802 -0.825844,3.290421 -6.119202,7.825734 -13.456939,11.529812 -6.790079,3.427621 -10.830188,8.27607 -16.477518,19.774322 -6.871057,13.989823 -9.49428,31.89191 -7.136566,48.703243 0.80919,5.76981 1.108412,6.24747 7.799395,12.4505 8.57475,7.94942 13.026607,15.11503 16.182828,26.04752 2.32595,8.0566 2.650494,8.56817 7.801606,12.29741 10.183243,7.37233 22.10247,12.43806 34.705554,14.75002 7.617819,1.39745 25.770984,0.30991 34.169144,-2.04703 z M 122.58079,157.25 c -0.4139,-0.4125 -5.1014,-0.75 -10.41666,-0.75 -8.54357,0 -10.32047,-0.32232 -15.324674,-2.77978 C 85.723065,148.26118 79.734038,137.86149 79.724015,124 c -0.01135,-15.68963 9.50031,-29.53615 22.766655,-33.142396 5.01455,-1.363127 17.85689,-0.521801 22.50933,1.47463 9.89665,4.2468 16.05872,12.293746 17.55903,22.930066 0.65628,4.65264 1.88519,6.63272 3.2575,5.24865 0.37591,-0.37913 0.68347,-5.26169 0.68347,-10.85014 V 99.5 l 2.8596,-0.326998 c 2.57376,-0.294313 2.80174,-0.616285 2.28078,-3.22112 -1.35407,-6.77033 -12.13257,-19.647743 -19.62058,-23.441307 -2.48589,-1.259399 -8.99678,-3.003966 -14.46864,-3.876813 -6.75304,-1.077216 -10.54556,-2.183713 -11.80648,-3.444634 -1.24689,-1.246892 -2.25003,-4.624527 -3.05116,-10.273383 -1.40335,-9.89527 -2.971582,-10.851799 -5.835985,-3.559602 -3.97044,10.10795 -11.149452,17.798132 -21.217637,22.728407 -7.627113,3.734909 -8.715302,5.721667 -7.969076,14.549514 0.578377,6.842181 0.446336,7.612324 -1.696123,9.892868 C 64.187287,100.42954 62.638413,101 59.259945,101 c -8.165577,0 -9.827639,2.52766 -10.90853,16.58966 -0.348769,4.53736 -0.943993,8.75112 -1.32272,9.36391 -1.305848,2.11291 -3.984225,-0.16333 -6.683145,-5.67973 -2.305008,-4.71126 -2.773834,-7.16256 -3.159327,-16.5188 -0.275745,-6.69257 0.02258,-13.110215 0.763294,-16.420065 1.044001,-4.665085 0.992131,-5.775086 -0.366779,-7.849044 -2.219466,-3.387335 -2.001813,-4.152116 1.373815,-4.827242 2.288773,-0.457754 4.024391,-2.212186 7.684334,-7.767629 3.04541,-4.622641 7.686893,-9.68293 13.043447,-14.22037 C 64.25795,49.796462 68,46.10539 68,45.468307 c 0,-2.73755 3.837521,-4.663778 8.685572,-4.359688 6.043192,0.379055 8.700558,-0.522789 10.748021,-3.647613 1.828229,-2.790231 3.649071,-3.077105 6.85159,-1.07947 1.218149,0.759845 5.883777,1.642401 10.368057,1.961236 11.04314,0.785175 16.35004,2.174678 26.24593,6.871957 6.49952,3.085125 10.00517,5.603779 15.5,11.136051 7.98209,8.036481 10.72794,12.916342 13.61105,24.189175 3.54744,13.870379 2.30332,28.647675 -3.59091,42.651745 -2.97237,7.06205 -5.80848,11.21086 -12.51546,18.3083 -2.59871,2.75 -5.55268,6.78832 -6.56439,8.97405 -1.62079,3.50163 -2.36588,4.06371 -6.26775,4.72829 -2.43556,0.41483 -4.88806,1.21401 -5.45,1.77595 -1.21498,1.21498 -2.02209,1.2871 -3.04092,0.27171 z m 7.0985,-4.86884 c 3.45175,-0.51663 4.40003,-1.15845 5.44732,-3.68683 0.69742,-1.68371 3.57757,-5.48411 6.40034,-8.44533 9.88944,-10.37448 15.60796,-22.74001 17.47885,-37.79564 3.21098,-25.8399 -7.78915,-46.225809 -30.49965,-56.523244 -8.35364,-3.787719 -19.65922,-6.291892 -23.91057,-5.296162 -4.43802,1.03945 -7.789934,0.471037 -10.160031,-1.722924 C 91.673534,36.354277 90.900433,36.481399 87.812914,40 c -2.679004,3.053048 -4.111731,3.434938 -11.455167,3.053345 -3.507653,-0.182271 -4.426864,0.200726 -6,2.49995 -1.021761,1.493359 -2.938741,3.667287 -4.259956,4.830952 -9.563141,8.422767 -15.532096,14.636623 -18.26839,19.017927 -1.751085,2.803804 -4.066583,6.093389 -5.145551,7.310188 -1.078967,1.216799 -2.072846,3.916799 -2.208618,6 -0.135772,2.083201 -0.582431,7.425526 -0.992574,11.871834 -0.475051,5.149963 -0.314265,10.561764 0.442985,14.910214 1.157406,6.64632 3.705668,13.20761 4.731235,12.18205 0.280173,-0.28018 0.923507,-3.80733 1.429631,-7.83812 1.724594,-13.73474 3.475292,-16.160999 11.544288,-15.999036 6.431886,0.129102 7.504428,-1.480533 7.226727,-10.845639 -0.289812,-9.773568 0.753544,-11.490581 9.90433,-16.299183 8.394867,-4.411377 14.494448,-10.777661 18.239345,-19.036853 6.116636,-13.489951 10.518211,-12.374486 12.948891,3.281559 0.54984,3.541553 1.57351,6.97656 2.27481,7.633349 0.70131,0.656789 5.68154,1.919895 11.0672,2.806902 5.38565,0.887008 11.23565,2.345538 13,3.241179 5.39073,2.736516 11.74869,8.429171 16.26256,14.560837 7.08743,9.627591 8.2651,16.894015 2.95405,18.227005 -2.3998,0.60231 -2.50871,0.95581 -2.50871,8.14271 0,15.35555 -5.02444,18.76142 -8.48341,5.75057 C 137.0337,102.20088 132.60121,97.021158 121.80443,93.435042 115.67017,91.397568 103.04074,91.843158 98.5,94.257266 93.544372,96.891949 87.841831,103.16181 85.091249,109 c -2.170854,4.6077 -2.584285,6.87901 -2.548326,14 0.08122,16.08486 7.696033,26.82089 21.191547,29.87772 3.89483,0.88221 18.6154,0.60047 25.94482,-0.49656 z"
       id="path37099"
       inkscape:connector-curvature="0" />
    <path
       style="fill:#5b301c"
       d="M 100.41016 18.015625 C 85.996176 17.998003 76.239991 20.128876 65 25.75 C 58.865134 28.818049 57.17735 30.190123 55.724609 33.289062 C 53.937094 37.102133 49.12397 40.815355 41.400391 44.341797 C 34.531255 47.478118 24.301861 64.441638 20.5 79 C 18.000059 88.572957 17.466209 105.81565 19.384766 115 C 20.726407 121.42259 21.42035 122.85478 24.224609 124.9668 C 33.997404 132.32716 40.757978 142.57501 43.449219 154.11133 C 45.14996 161.40175 47.083955 163.65963 56.830078 169.73633 C 64.758494 174.6797 74.008719 178.41859 83.5 180.51562 C 92.910891 182.5949 110.01939 182.33733 120 179.9668 C 135.61206 176.25873 153.49346 165.5565 162.55664 154.49609 C 165.98939 150.30687 166.26861 149.54933 165.31445 147.02148 C 163.93381 143.36376 164.99574 141.8006 168.59766 142.1875 C 171.20751 142.46783 171.77304 141.96348 174.19727 137.17969 C 176.46164 132.71136 176.71249 131.46253 175.76758 129.38867 C 174.77244 127.20458 174.99433 126.5985 177.6875 124.13867 C 180.10735 121.92847 180.96623 120.01937 181.86719 114.8457 C 186.62159 87.543899 177.35613 58.813311 157.87109 40.433594 C 154.91714 37.647203 151.21903 34.529448 149.6543 33.505859 C 146.84759 31.669818 146.75335 31.677251 142.53711 33.980469 C 140.18656 35.264507 137.59964 36.061047 136.78906 35.75 C 135.97849 35.438953 134.57093 32.533921 133.66211 29.294922 C 132.22319 24.16664 131.59048 23.255764 128.75586 22.240234 C 120.65953 19.339643 111.86983 18.029635 100.41016 18.015625 z M 99.349609 19.697266 C 110.42366 19.613216 121.79028 21.288809 127.83008 24.412109 C 129.88881 25.476719 130.89998 27.088515 131.85742 30.824219 C 132.56084 33.568823 134.04838 36.638575 135.16211 37.646484 C 137.13416 39.431161 137.31548 39.407765 142.07227 36.751953 L 146.95508 34.025391 L 152.22852 38.322266 C 163.66327 47.642126 174.80413 65.352907 178.44727 80 C 180.84362 89.634431 181.43782 101.37425 180.0293 111.29688 C 178.76295 120.21794 178.26309 121.09219 172.43945 124.55859 C 170.73826 125.5712 170.73846 125.75083 172.48242 128.70312 C 174.25912 131.71085 174.2543 131.88602 172.27734 135.64453 C 170.98006 138.11087 169.60707 139.43965 168.4668 139.33398 C 167.4863 139.24312 165.58897 139.58663 164.25 140.0957 C 161.99053 140.95475 161.86307 141.36838 162.48047 145.85742 L 163.14648 150.69336 L 156.60938 157.13477 C 145.35379 168.22553 129.17788 176.31046 113 178.93164 C 92.222834 182.29802 70.737116 177.04552 53.125 164.29492 C 47.973888 160.56568 47.650169 160.05465 45.324219 151.99805 C 42.167998 141.06556 37.715375 133.90059 29.140625 125.95117 C 22.449642 119.74814 22.150987 119.26981 21.341797 113.5 C 18.984083 96.688667 21.607459 78.786698 28.478516 64.796875 C 33.929763 53.697859 38.216214 48.425471 44.246094 45.40625 C 51.919548 41.564074 55.767202 38.379065 57.988281 34.025391 C 59.564773 30.935211 61.294047 29.533088 66.671875 26.992188 C 70.365925 25.246833 76.789839 22.918026 80.945312 21.816406 C 86.166772 20.432192 92.70518 19.747695 99.349609 19.697266 z M 98.916016 39.123047 C 98.56862 39.108737 98.173438 39.171971 97.8125 39.316406 C 97.014767 39.635632 97.251073 39.873895 98.416016 39.921875 C 99.470182 39.965296 100.06081 39.728776 99.728516 39.396484 C 99.56237 39.230337 99.263412 39.137356 98.916016 39.123047 z M 100.61914 44 C 98.969814 44 95.459928 47.791959 96.316406 48.648438 C 96.666754 48.998785 97.237194 48.546299 97.583984 47.642578 C 98.523384 45.194543 102.08167 45.594222 102.76953 48.224609 C 103.08944 49.447924 103.52595 49.922121 103.74023 49.279297 C 104.29848 47.604552 102.16718 44 100.61914 44 z M 104.36523 57.345703 C 104.21367 57.322753 104.10813 57.687926 104.07812 58.416016 C 104.03471 59.470182 104.27122 60.060807 104.60352 59.728516 C 104.93577 59.396224 104.97246 58.534375 104.68359 57.8125 C 104.56389 57.51335 104.45618 57.359473 104.36523 57.345703 z M 88.644531 62.259766 C 88.514613 62.204838 88.160111 62.452077 87.523438 62.980469 C 86.685847 63.675608 86 64.415391 86 64.623047 C 86 65.743381 87.87812 64.761112 88.416016 63.359375 C 88.679349 62.673139 88.774449 62.314693 88.644531 62.259766 z M 106 63 C 105.94838 63.051616 106.25111 63.456972 106.87305 64.25 C 108.17942 65.915748 109 66.446081 109 65.623047 C 109 65.415391 108.2125 64.627891 107.25 63.873047 C 106.45697 63.251111 106.05162 62.948384 106 63 z M 75.210938 72.074219 C 74.822308 72.062779 74.241172 72.362437 73.732422 72.875 C 72.752155 73.862616 72.867771 73.978232 74.292969 73.435547 C 75.27919 73.060016 75.835232 72.501246 75.527344 72.193359 C 75.450372 72.116388 75.340481 72.078032 75.210938 72.074219 z M 42.794922 74.230469 C 42.578711 74.191356 42.213281 74.388281 41.800781 74.800781 C 41.140781 75.460781 39.565781 76 38.300781 76 C 35.58696 76 35.409798 77.169236 37.615234 80.535156 C 39.67444 83.677901 40.385354 83.671578 39.59375 80.517578 C 39.131516 78.675891 39.491671 77.710773 40.986328 76.777344 C 42.094376 76.085357 43 75.086293 43 74.558594 C 43 74.360707 42.924648 74.253936 42.794922 74.230469 z M 70 75 C 69.948384 74.948384 69.543028 75.251111 68.75 75.873047 C 67.7875 76.627891 67 77.415391 67 77.623047 C 67 78.446081 67.820584 77.915748 69.126953 76.25 C 69.748889 75.456972 70.051616 75.051616 70 75 z M 141 77 C 140.94838 77.051616 141.25111 77.456972 141.87305 78.25 C 142.6279 79.2125 143.4154 80 143.62305 80 C 144.44609 80 143.91575 79.179416 142.25 77.873047 C 141.45697 77.251111 141.05162 76.948384 141 77 z M 149.37695 87.214844 C 149.33143 87.323304 149.59893 87.974978 150.14453 89.25 C 151.32194 92.00149 152 92.711313 152 91.191406 C 152 90.746527 151.31832 89.509027 150.48438 88.441406 C 149.78137 87.541412 149.42248 87.106383 149.37695 87.214844 z M 161.89258 88.5 L 160.96484 97 C 158.85644 116.30769 153.73884 128.57922 142.7832 140.59766 C 139.05226 144.69053 136 148.63627 136 149.36523 C 136 150.09419 135.1605 151.44867 134.13477 152.37695 C 131.63708 154.63733 107.02038 155.81265 101.2793 153.94531 C 91.545987 150.77944 84.948707 142.99145 81.859375 131.02148 C 80.933612 127.4345 80.136301 125.19212 80.087891 126.03906 C 80.039477 126.88601 80.695751 130.26101 81.544922 133.53906 C 85.655014 149.40523 98.04041 157.99505 114.64453 156.49414 C 119.33336 156.07029 122.01691 156.21803 122.45312 156.92383 C 123.32317 158.3316 124.09322 158.24483 126.44141 156.46875 C 127.50903 155.66124 129.86122 155 131.66992 155 C 134.53916 155 135.23 154.4581 137.08203 150.75 C 138.24951 148.4125 141.38149 144.25 144.04297 141.5 C 154.82497 130.35936 160.92575 115.36184 161.5332 98.5 L 161.89258 88.5 z M 37.289062 91.5 L 37.144531 101.06836 C 36.980855 111.88953 38.778548 119.62871 42.646484 124.75 C 46.85372 130.32054 47.470884 129.37887 48.507812 115.79297 C 48.906183 110.57349 49.896014 105.66624 50.978516 103.54297 C 51.97179 101.59472 52.360572 100 51.841797 100 C 50.06253 100 47.842985 107.31661 47.171875 115.39453 C 46.640869 121.78607 46.152434 123.54215 44.841797 123.79297 C 42.105541 124.31661 38.940982 114.15512 38.054688 102 L 37.289062 91.5 z M 66.732422 93.572266 C 66.285725 93.566452 65.170543 95.960944 65.085938 97.5 C 65.055703 98.05 65.466844 97.825 66 97 C 66.533156 96.175 66.944303 94.825 66.914062 94 C 66.903179 93.703028 66.835506 93.573607 66.732422 93.572266 z M 63.123047 98.457031 C 62.965744 98.48048 62.775216 98.533767 62.552734 98.619141 C 61.699168 98.946685 61 99.391266 61 99.607422 C 61 100.41733 62.904929 99.961923 63.492188 99.011719 C 63.754942 98.586574 63.594955 98.386685 63.123047 98.457031 z M 56.916016 99.123047 C 56.56862 99.108737 56.173437 99.171971 55.8125 99.316406 C 55.014767 99.635632 55.251073 99.873895 56.416016 99.921875 C 57.470182 99.965296 58.060807 99.728776 57.728516 99.396484 C 57.56237 99.230337 57.263412 99.137356 56.916016 99.123047 z M 148.62305 100 C 147.73071 100 147 100.675 147 101.5 C 147 102.325 147.16929 103 147.37695 103 C 147.5846 103 148.31531 102.325 149 101.5 C 150.01957 100.27149 149.95185 100 148.62305 100 z M 147.53125 105.94141 C 147.40349 105.9421 147.31467 107.23125 147.31055 109.5 C 147.30494 112.80001 147.48666 114.27023 147.71484 112.76758 C 147.94301 111.26493 147.94717 108.56493 147.72461 106.76758 C 147.65506 106.20591 147.58932 105.94109 147.53125 105.94141 z "
       id="path37097" />
  </g>
</svg>
