<?xml version="1.0" encoding="UTF-8" standalone="no"?>
<!-- Created with Inkscape (http://www.inkscape.org/) -->

<svg
   xmlns:dc="http://purl.org/dc/elements/1.1/"
   xmlns:cc="http://creativecommons.org/ns#"
   xmlns:rdf="http://www.w3.org/1999/02/22-rdf-syntax-ns#"
   xmlns:svg="http://www.w3.org/2000/svg"
   xmlns="http://www.w3.org/2000/svg"
   xmlns:sodipodi="http://sodipodi.sourceforge.net/DTD/sodipodi-0.dtd"
   xmlns:inkscape="http://www.inkscape.org/namespaces/inkscape"
   version="1.1"
   id="svg37164"
   width="200"
   height="200"
   viewBox="0 0 200 200"
   sodipodi:docname="logos.svg"
   inkscape:version="0.92.4 (5da689c313, 2019-01-14)">
  <metadata
     id="metadata37170">
    <rdf:RDF>
      <cc:Work
         rdf:about="">
        <dc:format>image/svg+xml</dc:format>
        <dc:type
           rdf:resource="http://purl.org/dc/dcmitype/StillImage" />
        <dc:title></dc:title>
      </cc:Work>
    </rdf:RDF>
  </metadata>
  <defs
     id="defs37168" />
  <sodipodi:namedview
     pagecolor="#ffffff"
     bordercolor="#666666"
     borderopacity="1"
     objecttolerance="10"
     gridtolerance="10"
     guidetolerance="10"
     inkscape:pageopacity="0"
     inkscape:pageshadow="2"
     inkscape:window-width="1920"
     inkscape:window-height="1051"
     id="namedview37166"
     showgrid="false"
     inkscape:zoom="3.337544"
     inkscape:cx="90.086657"
     inkscape:cy="96.664343"
     inkscape:window-x="-9"
     inkscape:window-y="-9"
     inkscape:window-maximized="1"
     inkscape:current-layer="svg37164" />
  <g
     id="g37174"
     transform="translate(-0.40243822,0.54783594)">
    <path
       style="fill:#e4decc"
       d="m 89,174.79102 c -4.718946,-1.80587 -8.293028,-4.86512 -25.167853,-21.54247 -10.817319,-10.69073 -20.205795,-20.7364 -20.86328,-22.32371 -1.8106,-4.37118 -0.37511,-7.88675 5.583753,-13.67484 4.771945,-4.63519 5.894754,-5.25 9.58785,-5.25 4.077856,0 4.627062,0.43968 21.85953,17.5 14.67376,14.52718 18.166017,17.5 20.55773,17.5 2.45432,0 8.44103,-5.53912 40.41171,-37.39041 20.64181,-20.564725 38.56945,-37.919682 39.83921,-38.566573 3.64137,-1.855129 7.45784,-0.356426 12.73446,5.000747 4.68703,4.758589 4.88546,5.18982 4.88546,10.617163 v 5.657114 L 168.21429,122.10058 C 151.59643,138.48098 138,152.3549 138,152.93153 c 0,0.57662 4.05907,3.08699 9.02016,5.5786 4.96109,2.4916 9.91109,5.42112 11,6.51003 2.85924,2.85924 2.56049,7.37794 -0.65502,9.90726 -2.53675,1.99541 -3.75621,2.07064 -32.75,2.02047 C 96.479896,176.89921 94.138407,176.75741 89,174.79102 Z m 7.5,-34.84345 C 94.61992,139.38828 87.423026,132.96373 77.221233,122.73772 54.512325,99.974908 54.526618,100.23266 74.830955,79.630378 91.872674,62.338592 94.937838,60 100.56024,60 c 5.41752,0 9.41932,3.111554 26.61153,20.691516 13.31688,13.617222 14.9944,16.511902 13.35906,23.051914 -0.65282,2.6107 -26.7715,30.08061 -32.53083,34.21378 -3.24746,2.33053 -7.74169,3.10837 -11.5,1.99036 z M 7.5805874,124.89966 C 2.1363505,119.92393 2,119.66849 2,114.44498 v -5.35433 L 32.5,78.885801 C 49.275,62.273136 63,48.167841 63,47.540701 63,46.91356 59.317681,44.622845 54.817069,42.450223 43.877143,37.16909 41,34.694445 41,30.566094 41,28.525833 41.786017,26.598639 43.104988,25.404988 45.078586,23.618906 47.12278,23.5 75.854988,23.5 c 27.678212,0 31.129072,0.183823 35.645012,1.898768 4.12962,1.568238 8.60407,5.467917 25.70396,22.402138 13.91413,13.779324 20.90383,21.413384 21.31342,23.278243 0.80615,3.670354 -1.28926,7.534091 -6.8815,12.688834 -4.90278,4.519228 -8.19373,5.822638 -11.81371,4.678932 -1.27719,-0.40352 -10.24728,-8.544152 -19.93353,-18.090294 C 110.2024,60.81048 101.48822,53 100.52381,53 98.406526,53 91.709912,59.309058 51.46329,99.221216 22.19259,128.24867 20.219877,130 16.793878,130 c -2.972667,0 -4.646657,-0.9267 -9.2132906,-5.10034 z"
       id="path37204"
       inkscape:connector-curvature="0" />
    <path
       style="fill:#d8d4c5"
       d="m 88,173.92423 c -5.259555,-2.39205 -42.42695,-38.60676 -44.494549,-43.35406 -1.821378,-4.18196 -0.354896,-7.47669 6.00519,-13.49179 8.693045,-8.22152 8.694561,-8.2209 28.924581,11.86389 16.767889,16.6475 20.368682,19.40043 23.770168,18.17308 0.93796,-0.33844 19.02488,-17.60285 40.19315,-38.36535 44.19345,-43.34632 41.43161,-41.524139 50.01739,-33 2.63139,2.6125 5.20787,5.840676 5.72551,7.173724 2.2076,5.685146 0.88162,7.369049 -30.93695,39.287626 -16.83832,16.89124 -30.26193,31.06624 -29.83026,31.5 0.43168,0.43376 5.13349,3.03865 10.44848,5.78865 11.61323,6.00874 13.8399,8.79579 10.54929,13.20417 l -2.08693,2.79583 -31.89254,0.23542 C 94.11501,175.95891 92.272124,175.86719 88,173.92423 Z m 7.845476,-34.74452 C 92.858824,137.95273 61.996116,107.11998 60.919115,104.28726 58.554889,98.068872 60.160698,95.514901 77.282466,78.262034 87.829243,67.634501 94.538946,61.647206 96.701985,60.933339 c 6.484115,-2.139951 8.733485,-0.72481 26.063445,16.397252 17.42711,17.218039 19.44175,20.301518 17.19792,26.321949 -1.21211,3.25222 -30.06937,32.7446 -34.16369,34.91561 -2.82836,1.49973 -7.14648,1.76503 -9.954184,0.61156 z M 14,129.324 C 13.175,129.01617 10.1375,126.47021 7.25,123.66631 2.4505718,119.00585 2,118.18233 2,114.07087 v -4.49745 L 33.058267,78.457512 C 57.026816,54.444482 63.817895,47.100547 62.808267,46.28559 62.08872,45.704782 57.811675,43.385054 53.303722,41.130638 41.05711,35.006139 38.904546,31.933656 43.112504,26.584104 L 45.225007,23.898491 77.363832,24.199246 109.50266,24.5 113.69881,27 c 2.30789,1.375 13.21979,11.423916 24.24867,22.330924 C 156.5885,67.76595 158,69.41378 158,72.740924 158,75.771122 157.10439,77.215608 152.16,82.16 147.07748,87.242518 145.8243,88 142.49829,88 138.88833,88 137.69719,87.030394 121,70.5 103.22425,52.901825 101.07001,51.402251 97.141016,53.891686 c -0.747442,0.473583 -16.047442,15.430577 -34,33.237765 C 45.188457,104.93664 28.25,121.61303 25.5,124.18809 20.573558,128.80115 16.943531,130.42232 14,129.324 Z M 75.323755,59.135089 c 8.896935,-8.725701 17.229231,-16.413201 18.516213,-17.083333 3.225768,-1.679659 10.352792,-1.527394 13.798542,0.294797 1.57382,0.832271 7.81149,6.526537 13.86149,12.653925 6.05,6.127388 12.70632,12.511656 14.79181,14.187261 3.65596,2.937398 3.86198,2.98306 5.75,1.27442 C 143.11882,69.487485 144,68.192305 144,67.583981 144,65.716376 110.6952,33.367107 107.49417,32.125514 105.44794,31.331839 97.466758,31.04589 82.494168,31.229817 L 60.5,31.5 67,34.86229 c 7.910224,4.091765 10,5.850016 10,8.41359 0,1.149098 -4.778099,6.921825 -11.5,13.893888 C 59.175,63.730158 54,69.602823 54,70.220135 54,71.619832 56.990431,75 58.228742,75 c 0.505322,0 8.198077,-7.13921 17.095013,-15.864911 z"
       id="path37202"
       inkscape:connector-curvature="0" />
    <path
       style="fill:#a7dbee"
       d="m 88.006008,173.42319 c -4.307978,-2.00522 -9.758813,-6.80785 -25.25,-22.24731 C 44.38185,132.86306 43,131.23387 43,127.8837 c 0,-2.79514 0.921766,-4.6493 4.114502,-8.27644 5.019933,-5.70295 9.150512,-8.00855 12.735611,-7.10874 1.548801,0.38872 9.886914,7.84103 20.230586,18.08137 C 89.758434,140.16095 98.453933,148 99.404032,148 c 0.950098,0 2.710368,-0.49932 3.911708,-1.10959 1.20134,-0.61028 19.07301,-17.93528 39.71482,-38.5 43.39806,-43.235988 40.2036,-41.178298 49.72405,-32.029408 5.27249,5.066724 5.57872,5.628049 5.57872,10.225897 v 4.864894 L 167.66667,121.60217 C 150.8,138.18488 137,152.23704 137,152.8292 c 0,0.59215 4.14422,3.21705 9.20938,5.8331 10.77325,5.56417 12.79062,7.32793 12.79062,11.18271 0,6.06501 -0.51192,6.15598 -34.57874,6.14522 L 93.5,175.98046 Z M 133.5,160.35909 c -7.60014,-3.84626 -9.5,-5.61323 -9.5,-8.83549 0,-1.41703 10.5084,-12.58471 32.5,-34.53897 17.875,-17.844656 32.5,-32.946539 32.5,-33.559741 0,-1.504038 -3.64326,-4.718276 -4.84845,-4.27751 -0.5303,0.193941 -17.78451,16.843046 -38.34269,36.998011 -40.94667,40.14358 -41.04106,40.21553 -49.693288,37.88573 -3.582604,-0.96469 -7.150409,-3.94986 -21.251762,-17.78122 l -16.946354,-16.6219 -2.691685,2.69168 -2.691685,2.69169 16.482957,16.60521 c 9.065626,9.13287 18.483558,17.90531 20.928738,19.49432 l 4.44578,2.8891 23.054219,-0.0492 23.05422,-0.0492 -7,-3.54254 z m -39,-22.25872 c -1.65,-1.04068 -9.638497,-8.58295 -17.752215,-16.76059 -21.321713,-21.489685 -21.309442,-20.9297 -0.911868,-41.614152 8.065246,-8.178677 16.14001,-15.782765 17.94392,-16.897975 4.043988,-2.500064 9.379823,-2.604162 12.993073,-0.253484 3.89793,2.535882 26.95524,25.185229 30.36309,29.825869 3.20886,4.369654 3.71406,9.095962 1.43231,13.399622 -2.15601,4.06649 -30.65247,31.94719 -33.88341,33.15125 -4.07638,1.51912 -6.786664,1.29279 -10.1849,-0.85054 z M 7.3478261,123.65217 C 2.6575504,118.9619 2,117.80999 2,114.28379 2,110.33913 2.5852295,109.68125 33,79.435663 50.05,62.480504 64,48.111378 64,47.504273 64,46.897168 60.324724,44.622845 55.832719,42.450223 45.595623,37.498904 40.556199,33.0511 41.502808,29.802618 c 0.369041,-1.26644 1.610485,-3.113399 2.758763,-4.104354 1.931598,-1.666953 4.412451,-1.779164 33.163105,-1.5 L 108.5,24.5 l 5.12152,2.839003 c 3.26,1.807104 12.25593,10.005943 24.75,22.556991 C 161.79624,73.427532 161.52564,72.794358 152.16,82.16 142.62907,91.69093 141.37407,91.15599 118.01293,67.604876 105.36388,54.852957 103.11946,53 100.32257,53 c -2.873416,0 -7.164208,3.913286 -41.665777,38 -36.847298,36.40424 -38.619931,38 -42.211812,38 -3.198376,0 -4.535176,-0.78585 -9.0971549,-5.34783 z M 43.093668,91 C 57.025698,77.525 74.066589,61.045323 80.962316,54.378495 100.27498,35.706902 100.66641,35.744832 124.222,58.570343 133.54734,67.606654 141.73386,75 142.41427,75 c 0.68041,0 2.30411,-1.135781 3.60824,-2.523958 l 2.37113,-2.523958 -18.94682,-18.890381 C 114.02329,35.684118 109.75617,31.970473 106.5,31.091238 101.84607,29.834579 59,29.586427 59,30.816131 c 0,0.448873 2.775765,2.136373 6.168367,3.75 3.392602,1.613628 7.217602,3.75403 8.5,4.756449 5.182911,4.051355 4.55888,4.875071 -29.668367,39.162022 -17.6,17.6307 -32,32.461288 -32,32.956868 0,1.51187 3.301003,4.65086 4.569846,4.34555 C 17.225919,115.62916 29.161639,104.475 43.093668,91 Z"
       id="path37200"
       inkscape:connector-curvature="0" />
    <path
       style="fill:#d1cbb9"
       d="m 88.006008,173.42319 c -4.307978,-2.00522 -9.758813,-6.80785 -25.25,-22.24731 C 44.38185,132.86306 43,131.23387 43,127.8837 c 0,-2.79514 0.921766,-4.6493 4.114502,-8.27644 5.019933,-5.70295 9.150512,-8.00855 12.735611,-7.10874 1.548801,0.38872 9.886914,7.84103 20.230586,18.08137 C 89.758434,140.16095 98.453933,148 99.404032,148 c 0.950098,0 2.710368,-0.49932 3.911708,-1.10959 1.20134,-0.61028 19.07301,-17.93528 39.71482,-38.5 43.39806,-43.235988 40.2036,-41.178298 49.72405,-32.029408 5.27249,5.066724 5.57872,5.628049 5.57872,10.225897 v 4.864894 L 167.66667,121.60217 C 150.8,138.18488 137,152.23704 137,152.8292 c 0,0.59215 4.14422,3.21705 9.20938,5.8331 10.77325,5.56417 12.79062,7.32793 12.79062,11.18271 0,6.06501 -0.51192,6.15598 -34.57874,6.14522 L 93.5,175.98046 Z M 133.5,160.35909 c -7.60014,-3.84626 -9.5,-5.61323 -9.5,-8.83549 0,-1.41703 10.5084,-12.58471 32.5,-34.53897 17.875,-17.844656 32.5,-32.946539 32.5,-33.559741 0,-1.504038 -3.64326,-4.718276 -4.84845,-4.27751 -0.5303,0.193941 -17.78451,16.843046 -38.34269,36.998011 -40.94667,40.14358 -41.04106,40.21553 -49.693288,37.88573 -3.582604,-0.96469 -7.150409,-3.94986 -21.251762,-17.78122 l -16.946354,-16.6219 -2.691685,2.69168 -2.691685,2.69169 16.482957,16.60521 c 9.065626,9.13287 18.483558,17.90531 20.928738,19.49432 l 4.44578,2.8891 23.054219,-0.0492 23.05422,-0.0492 -7,-3.54254 z m -39,-22.25872 c -1.65,-1.04068 -9.638497,-8.58295 -17.752215,-16.76059 -21.321713,-21.489685 -21.309442,-20.9297 -0.911868,-41.614152 8.065246,-8.178677 16.14001,-15.782765 17.94392,-16.897975 4.043988,-2.500064 9.379823,-2.604162 12.993073,-0.253484 3.89793,2.535882 26.95524,25.185229 30.36309,29.825869 3.20886,4.369654 3.71406,9.095962 1.43231,13.399622 -2.15601,4.06649 -30.65247,31.94719 -33.88341,33.15125 -4.07638,1.51912 -6.786664,1.29279 -10.1849,-0.85054 z m 13.11856,-38.723657 c 4.50775,-2.139067 7.72787,-6.667357 6.84518,-9.626027 C 113.70986,87.223768 102.13994,75 100.50207,75 99.054118,75 86.433294,88.047987 85.615029,90.390905 c -0.850998,2.436639 1.594763,6.156497 5.689305,8.653098 3.963937,2.416967 11.594066,2.572577 16.314226,0.33271 z M 7.3478261,123.65217 C 2.6575504,118.9619 2,117.80999 2,114.28379 2,110.33913 2.5852295,109.68125 33,79.435663 50.05,62.480504 64,48.111378 64,47.504273 64,46.897168 60.324724,44.622845 55.832719,42.450223 45.595623,37.498904 40.556199,33.0511 41.502808,29.802618 c 0.369041,-1.26644 1.610485,-3.113399 2.758763,-4.104354 1.931598,-1.666953 4.412451,-1.779164 33.163105,-1.5 L 108.5,24.5 l 5.12152,2.839003 c 3.26,1.807104 12.25593,10.005943 24.75,22.556991 C 161.79624,73.427532 161.52564,72.794358 152.16,82.16 142.62907,91.69093 141.37407,91.15599 118.01293,67.604876 105.36388,54.852957 103.11946,53 100.32257,53 c -2.873416,0 -7.164208,3.913286 -41.665777,38 -36.847298,36.40424 -38.619931,38 -42.211812,38 -3.198376,0 -4.535176,-0.78585 -9.0971549,-5.34783 z M 43.093668,91 C 57.025698,77.525 74.066589,61.045323 80.962316,54.378495 100.27498,35.706902 100.66641,35.744832 124.222,58.570343 133.54734,67.606654 141.73386,75 142.41427,75 c 0.68041,0 2.30411,-1.135781 3.60824,-2.523958 l 2.37113,-2.523958 -18.94682,-18.890381 C 114.02329,35.684118 109.75617,31.970473 106.5,31.091238 101.84607,29.834579 59,29.586427 59,30.816131 c 0,0.448873 2.775765,2.136373 6.168367,3.75 3.392602,1.613628 7.217602,3.75403 8.5,4.756449 5.182911,4.051355 4.55888,4.875071 -29.668367,39.162022 -17.6,17.6307 -32,32.461288 -32,32.956868 0,1.51187 3.301003,4.65086 4.569846,4.34555 C 17.225919,115.62916 29.161639,104.475 43.093668,91 Z"
       id="path37198"
       inkscape:connector-curvature="0" />
    <path
       style="fill:#61c5e5"
       d="M 90.885071,174.62038 C 85.273702,172.6151 82.831671,170.49574 62.25,149.76894 46.56259,133.97092 43,129.87134 43,127.61737 c 0,-1.99597 1.5733,-4.41529 5.65222,-8.69161 C 53.692712,113.64133 54.732855,113 58.262886,113 c 3.784246,0 4.739601,0.77012 21.709137,17.5 14.615937,14.40952 18.253306,17.5 20.596767,17.5 2.40947,0 8.68208,-5.81902 40.88864,-37.93187 24.10303,-24.032894 39.01076,-38.169861 40.68487,-38.581375 3.36874,-0.828076 7.21993,1.173197 12.24406,6.362636 3.25386,3.360913 3.88637,4.693865 3.88637,8.190145 0,4.144887 -0.23134,4.407334 -31.13637,35.324044 C 150.01136,138.49506 136,152.84207 136,153.24582 c 0,0.40376 4.1625,2.81115 9.25,5.34976 5.0875,2.53861 10.2625,5.54657 11.5,6.68435 2.78516,2.56074 2.88617,6.0839 0.25,8.72007 -1.91391,1.91391 -3.30218,1.99811 -32.25,1.95611 -22.09355,-0.0321 -31.224711,-0.39222 -33.864929,-1.33573 z M 143,164.51257 c 0,-0.26808 -3.2625,-2.11806 -7.25,-4.11105 -8.66062,-4.32866 -10.75,-6.03348 -10.75,-8.77143 0,-1.36985 10.88744,-12.96579 32.5,-34.61493 17.875,-17.905245 32.5,-33.024341 32.5,-33.597986 0,-0.573646 -1.35728,-2.343349 -3.01618,-3.932674 l -3.01618,-2.889683 -37.23382,37.162433 C 107.00486,153.41003 105.36,154.73916 97.623073,153.44123 93.969139,152.82825 91.558901,150.82947 76.440457,135.87477 67.057708,126.59365 59.051987,119 58.649965,119 57.317953,119 52,123.3569 52,124.4482 c 0,1.62698 36.065631,37.23496 39.5,38.99876 2.45775,1.26223 7.383184,1.54183 27.25,1.54688 13.3375,0.003 24.25,-0.21318 24.25,-0.48127 z M 95.5,138.44595 C 91.779304,136.53384 64.390223,109.49444 62.431521,105.79966 61.644185,104.31447 61,101.40373 61,99.33135 61,95.786079 62.0214,94.54198 78.28169,78.28169 L 95.56338,61 h 4.90171 4.90171 l 16.80969,16.70471 c 17.55424,17.444605 18.97545,19.569454 17.36933,25.96876 -0.93208,3.7137 -28.74618,31.76102 -34.03673,34.32213 -4.96585,2.40393 -6.107717,2.4553 -10.00909,0.45035 z m 12.11856,-39.069237 c 4.50775,-2.139067 7.72787,-6.667357 6.84518,-9.626027 C 113.70986,87.223768 102.13994,75 100.50207,75 99.054118,75 86.433294,88.047987 85.615029,90.390905 c -0.850998,2.436639 1.594763,6.156497 5.689305,8.653098 3.963937,2.416967 11.594066,2.572577 16.314226,0.33271 z M 7.9257627,123.34778 C -2.1461302,113.74082 -3.4955355,116.07772 33.558439,78.957095 57.907536,54.564198 64.817972,47.100826 63.808439,46.286649 63.088797,45.706267 59.125,43.547864 55,41.490199 44.043235,36.024657 42,34.371312 42,30.970861 c 0,-1.7102 0.917601,-3.747826 2.244409,-4.983935 2.190869,-2.041106 2.972103,-2.083781 32.75,-1.788956 29.251991,0.289618 30.707471,0.395139 35.418301,2.567773 6.53844,3.015533 44.17405,40.076322 45.13336,44.444026 0.81552,3.713025 -2.88831,9.576813 -8.71539,13.797925 -6.96698,5.046857 -7.30537,4.867895 -26.2659,-13.89099 C 113.17915,61.830891 104.4705,53.705961 103.21223,53.061305 101.95395,52.416648 99.928952,52.188483 98.712227,52.55427 97.495502,52.920058 79.380844,70.269987 58.457432,91.109669 14.364014,135.02664 17.842935,132.80716 7.9257627,123.34778 Z M 54.560114,81.25 C 94.333874,42.162754 95.80868,40.991122 103.4354,42.421903 c 3.22052,0.604174 6.65703,3.453843 21.27784,17.644305 18.85448,18.299519 18.98827,18.371359 22.95112,12.323296 l 1.66435,-2.540128 -17.91435,-17.994519 c -9.8529,-9.896985 -19.59909,-18.870827 -21.65821,-19.941871 -3.46588,-1.802774 -5.61896,-1.927517 -28.999995,-1.68017 L 55.5,30.5 l 9.217167,4.780121 c 10.338588,5.361703 11.764598,6.923295 9.760939,10.688991 C 73.737454,47.3611 58.936113,62.663097 41.586238,79.973549 l -31.545227,31.473551 3.175661,3.27645 C 14.963286,116.5256 16.566105,118 16.778492,118 c 0.212387,0 17.214117,-16.5375 37.781622,-36.75 z"
       id="path37196"
       inkscape:connector-curvature="0" />
    <path
       style="fill:#b2b0a9"
       d="M 90.885071,174.62038 C 85.273702,172.6151 82.831671,170.49574 62.25,149.76894 46.56259,133.97092 43,129.87134 43,127.61737 c 0,-1.99597 1.5733,-4.41529 5.65222,-8.69161 C 53.692712,113.64133 54.732855,113 58.262886,113 c 3.784246,0 4.739601,0.77012 21.709137,17.5 14.615937,14.40952 18.253306,17.5 20.596767,17.5 2.40947,0 8.68208,-5.81902 40.88864,-37.93187 24.10303,-24.032894 39.01076,-38.169861 40.68487,-38.581375 3.36874,-0.828076 7.21993,1.173197 12.24406,6.362636 3.25386,3.360913 3.88637,4.693865 3.88637,8.190145 0,4.144887 -0.23134,4.407334 -31.13637,35.324044 C 150.01136,138.49506 136,152.84207 136,153.24582 c 0,0.40376 4.1625,2.81115 9.25,5.34976 5.0875,2.53861 10.2625,5.54657 11.5,6.68435 2.78516,2.56074 2.88617,6.0839 0.25,8.72007 -1.91391,1.91391 -3.30218,1.99811 -32.25,1.95611 -22.09355,-0.0321 -31.224711,-0.39222 -33.864929,-1.33573 z M 143,164.51257 c 0,-0.26808 -3.2625,-2.11806 -7.25,-4.11105 -8.66062,-4.32866 -10.75,-6.03348 -10.75,-8.77143 0,-1.36985 10.88744,-12.96579 32.5,-34.61493 17.875,-17.905245 32.5,-33.024341 32.5,-33.597986 0,-0.573646 -1.35728,-2.343349 -3.01618,-3.932674 l -3.01618,-2.889683 -37.23382,37.162433 C 107.00486,153.41003 105.36,154.73916 97.623073,153.44123 93.969139,152.82825 91.558901,150.82947 76.440457,135.87477 67.057708,126.59365 59.051987,119 58.649965,119 57.317953,119 52,123.3569 52,124.4482 c 0,1.62698 36.065631,37.23496 39.5,38.99876 2.45775,1.26223 7.383184,1.54183 27.25,1.54688 13.3375,0.003 24.25,-0.21318 24.25,-0.48127 z M 95.5,138.44595 C 91.779304,136.53384 64.390223,109.49444 62.431521,105.79966 61.644185,104.31447 61,101.40373 61,99.33135 61,95.786079 62.0214,94.54198 78.28169,78.28169 L 95.56338,61 h 4.90171 4.90171 l 16.80969,16.70471 c 17.55424,17.444605 18.97545,19.569454 17.36933,25.96876 -0.93208,3.7137 -28.74618,31.76102 -34.03673,34.32213 -4.96585,2.40393 -6.107717,2.4553 -10.00909,0.45035 z m 17.23435,-25.67964 C 118.93046,106.58778 124,100.86926 124,100.05847 c 0,-0.810778 -1.65639,-3.170443 -3.68087,-5.243697 -3.12456,-3.199836 -3.78846,-4.682056 -4.39276,-9.807176 C 114.28958,71.125847 101.59387,64.440803 91.185914,71.980284 85.960261,75.765728 84,79.582745 84,85.972683 c 0,4.563583 -0.41888,5.526435 -4.178756,9.605418 l -4.178755,4.533419 11.913124,11.94424 C 94.107831,118.62509 99.91873,124 100.46872,124 c 0.54999,0 6.06953,-5.05516 12.26563,-11.23369 z M 7.9257627,123.34778 C -2.1461302,113.74082 -3.4955355,116.07772 33.558439,78.957095 57.907536,54.564198 64.817972,47.100826 63.808439,46.286649 63.088797,45.706267 59.125,43.547864 55,41.490199 44.043235,36.024657 42,34.371312 42,30.970861 c 0,-1.7102 0.917601,-3.747826 2.244409,-4.983935 2.190869,-2.041106 2.972103,-2.083781 32.75,-1.788956 29.251991,0.289618 30.707471,0.395139 35.418301,2.567773 6.53844,3.015533 44.17405,40.076322 45.13336,44.444026 0.81552,3.713025 -2.88831,9.576813 -8.71539,13.797925 -6.96698,5.046857 -7.30537,4.867895 -26.2659,-13.89099 C 113.17915,61.830891 104.4705,53.705961 103.21223,53.061305 101.95395,52.416648 99.928952,52.188483 98.712227,52.55427 97.495502,52.920058 79.380844,70.269987 58.457432,91.109669 14.364014,135.02664 17.842935,132.80716 7.9257627,123.34778 Z M 54.560114,81.25 C 94.333874,42.162754 95.80868,40.991122 103.4354,42.421903 c 3.22052,0.604174 6.65703,3.453843 21.27784,17.644305 18.85448,18.299519 18.98827,18.371359 22.95112,12.323296 l 1.66435,-2.540128 -17.91435,-17.994519 c -9.8529,-9.896985 -19.59909,-18.870827 -21.65821,-19.941871 -3.46588,-1.802774 -5.61896,-1.927517 -28.999995,-1.68017 L 55.5,30.5 l 9.217167,4.780121 c 10.338588,5.361703 11.764598,6.923295 9.760939,10.688991 C 73.737454,47.3611 58.936113,62.663097 41.586238,79.973549 l -31.545227,31.473551 3.175661,3.27645 C 14.963286,116.5256 16.566105,118 16.778492,118 c 0.212387,0 17.214117,-16.5375 37.781622,-36.75 z"
       id="path37194"
       inkscape:connector-curvature="0" />
    <path
       style="fill:#94918a"
       d="m 88.08149,172.95149 c -4.866195,-2.2077 -41.099211,-37.2464 -43.746137,-42.30418 -2.048476,-3.91425 -0.465401,-7.44596 5.90495,-13.17345 C 58.416469,110.12278 58.417757,110.12336 79,130.5 c 16.733502,16.56634 17.881677,17.5 21.52081,17.5 3.72273,0 5.04916,-1.20107 41.96618,-38 44.14087,-43.999661 41.10592,-42.025413 50.29717,-32.718555 4.50791,4.564613 5.21584,5.815101 5.21584,9.213291 0,3.82367 -0.8563,4.789729 -31.12392,35.113534 -17.70012,17.73296 -30.83469,31.64969 -30.4533,32.26679 0.36885,0.5968 5.18703,3.40502 10.70708,6.24047 11.26206,5.78493 13.25194,8.12664 10.48894,12.34351 L 155.95389,175 124.22695,174.978 c -29.588332,-0.0205 -32.024788,-0.15709 -36.14546,-2.02655 z m 56.88955,-6.91243 c 1.88313,-1.19093 2.13316,-1.00596 -8.64466,-6.39527 -6.12022,-3.06033 -9.40096,-5.3034 -9.85661,-6.73905 -0.58221,-1.83436 4.2326,-7.07557 32.6291,-35.51871 l 33.31209,-33.36681 -3.40165,-3.50961 C 187.13841,78.579325 184.92687,77 184.09478,77 c -0.83208,0 -18.40631,16.835347 -39.05383,37.41188 -32.27895,32.16798 -38.05562,37.50786 -41.21278,38.09663 -7.52833,1.40392 -9.269428,0.28274 -27.387713,-17.63644 C 67.057708,125.59243 58.757332,118 57.995176,118 56.057058,118 51,123.0407 51,124.97255 c 0,1.82856 35.204772,37.10057 39,39.07448 1.375,0.71515 3.85,1.62606 5.5,2.02426 4.458917,1.07607 47.76317,1.04786 49.47104,-0.0322 z M 78.823508,122.29529 C 60.918472,104.50207 59.433963,102.19496 61.96234,96.09092 62.617486,94.509258 70.225284,86.229724 78.868557,77.691957 95.656413,61.109026 98.147009,59.584597 104.50364,62.001384 c 3.84188,1.46068 31.93461,29.295042 34.03562,33.722597 2.92479,6.163539 1.60271,8.390869 -14.90214,25.105929 -8.32542,8.43145 -16.35227,15.96895 -17.83746,16.75 -1.48519,0.78105 -4.38022,1.42009 -6.433402,1.42009 -3.490909,0 -4.823451,-1.08358 -20.54275,-16.70471 z m 33.910842,-9.52898 C 118.93046,106.58778 124,100.86926 124,100.05847 c 0,-0.810778 -1.65639,-3.170443 -3.68087,-5.243697 -3.12456,-3.199836 -3.78846,-4.682056 -4.39276,-9.807176 C 114.28958,71.125847 101.59387,64.440803 91.185914,71.980284 85.960261,75.765728 84,79.582745 84,85.972683 c 0,4.563583 -0.41888,5.526435 -4.178756,9.605418 l -4.178755,4.533419 11.913124,11.94424 C 94.107831,118.62509 99.91873,124 100.46872,124 c 0.54999,0 6.06953,-5.05516 12.26563,-11.23369 z M 13.5,127.8411 C 9.6106187,125.70566 3.0779456,118.63137 2.4795683,115.90697 2.1213605,114.27607 2.4786549,111.99052 3.3524992,110.32299 4.1661403,108.77035 18.369681,94.300367 34.915923,78.167483 51.462166,62.034599 65,48.201615 65,47.427519 65,46.651686 60.848913,43.948723 55.75,41.40442 42.119645,34.603018 39.844954,31.882937 43.752309,27.057557 c 1.740198,-2.149052 1.973483,-2.161914 33.75,-1.860784 28.964521,0.274483 32.329471,0.480135 35.497691,2.169471 1.925,1.026434 12.6125,10.911964 23.75,21.967844 23.99793,23.822058 23.80866,23.4116 14.90217,32.318086 C 147.08337,86.220981 145.75621,87 142.54151,87 139.01062,87 137.68448,85.921261 121.02798,69.5 106.52401,55.200873 102.76359,52 100.46876,52 c -3.041426,0 -5.398105,2.197866 -56.013837,52.23916 -15.826239,15.64663 -25.764665,24.74965 -27,24.73043 C 16.379715,128.95287 14.6,128.44504 13.5,127.8411 Z M 54.630032,82.25 C 94.406865,43.198657 95.90411,42.009025 103.48619,43.431432 c 3.30446,0.61992 6.48313,3.28292 21.067,17.649322 C 133.99963,70.386339 142.1057,78 142.56666,78 143.81604,78 150,71.777311 150,70.520104 150,69.921945 141.3375,60.828288 130.75,50.311978 115.1333,34.800285 110.74503,30.98566 107.5,30.101284 102.33426,28.693453 54,28.593711 54,29.990883 c 0,0.544985 4.442323,3.220144 9.871828,5.944797 5.429506,2.724654 10.120558,5.602095 10.424561,6.394315 0.304004,0.79222 -0.04322,2.279561 -0.771601,3.305203 C 72.573984,46.974028 17.547712,103.30779 9.4182477,111.26498 8.5927903,112.07295 14.751062,119 16.294814,119 c 0.496365,0 17.747212,-16.5375 38.335218,-36.75 z"
       id="path37192"
       inkscape:connector-curvature="0" />
    <path
       style="fill:#0da9d6"
       d="M 89,172.93531 C 85.819767,171.5072 78.56105,164.99081 64.25,150.71642 40.228764,126.75672 40.587399,127.55951 49.925763,118.65222 53.184932,115.5435 56.684804,113 57.703256,113 c 3.023602,0 5.970106,2.48056 23.498781,19.78286 16.159951,15.95124 16.808914,16.46495 19.994983,15.82774 2.6344,-0.52688 10.90446,-8.2533 41.35303,-38.6346 C 186.5568,66.066474 183.41613,68.111783 192.65217,77.347826 201.84625,86.541898 203.1528,84.361057 166.5,121 149.175,138.31845 135,152.80709 135,153.19697 c 0,0.38988 4.04194,2.79645 8.98208,5.34793 4.94014,2.55149 10.11514,5.53033 11.5,6.61966 3.12006,2.45424 3.43958,7.27182 0.58366,8.80026 -1.21407,0.64975 -13.22183,1.027 -32.25,1.01322 C 95.574299,174.95758 93.192096,174.81781 89,172.93531 Z m 59,-6.42619 c 0,-0.88647 -4.02298,-3.50971 -9.92329,-6.47062 -6.72487,-3.3747 -10.14464,-5.67716 -10.61004,-7.14352 -0.58728,-1.85036 4.12588,-6.97803 32.53794,-35.39959 l 33.2247,-33.235809 -3.73102,-4.12979 C 187.44623,77.858406 185.05154,76 184.17675,76 c -0.87479,0 -18.48493,16.821788 -39.13364,37.38175 -27.76489,27.64556 -38.45759,37.67267 -41.05421,38.49871 -6.57316,2.09106 -9.038704,0.48936 -27.505587,-17.86856 C 67.071235,124.65535 58.949594,117.0039 58.435222,117.00867 57.014308,117.02185 50,123.95534 50,125.34671 c 0,1.0827 37.955312,39.63074 39.058395,39.66835 0.242883,0.008 2.241605,0.66353 4.441605,1.4561 6.003167,2.16272 54.5,2.19649 54.5,0.038 z M 94.5,137.10055 C 92.85,136.05997 85.08643,128.74245 77.247622,120.8394 61.773657,105.23861 59.97177,102.29419 62.43344,96.631886 64.145627,92.69353 93.568914,63.444445 97.164893,62.106061 102.64401,60.066793 105.71148,62.126647 122.77431,79.303214 137.92427,94.554149 139,95.884416 139,99.368184 c 0,2.052126 -0.63855,4.946286 -1.41901,6.431476 -2.09928,3.99489 -29.64527,30.89408 -32.90678,32.1341 -4.04599,1.53829 -6.767223,1.31543 -10.17421,-0.83321 z m 18.23435,-24.33424 C 118.93046,106.58778 124,100.86926 124,100.05847 c 0,-0.810778 -1.65639,-3.170443 -3.68087,-5.243697 -3.12456,-3.199836 -3.78846,-4.682056 -4.39276,-9.807176 C 114.28958,71.125847 101.59387,64.440803 91.185914,71.980284 85.960261,75.765728 84,79.582745 84,85.972683 c 0,4.563583 -0.41888,5.526435 -4.178756,9.605418 l -4.178755,4.533419 11.913124,11.94424 C 94.107831,118.62509 99.91873,124 100.46872,124 c 0.54999,0 6.06953,-5.05516 12.26563,-11.23369 z M 8.1357403,122.94463 C 3.7907,118.66759 3,117.31952 3,114.18868 3,110.66611 4.5125581,108.97611 34.443249,79.05673 51.737035,61.76948 65.674767,47.282779 65.415986,46.864063 65.157205,46.445346 60.400011,43.725697 54.844445,40.820397 43.384464,34.827367 40.97008,32.29294 43.038705,28.427679 c 0.730475,-1.364905 2.276612,-2.719698 3.435859,-3.010651 1.159248,-0.290953 15.589208,-0.39131 32.066579,-0.223016 L 108.5,25.5 l 5.12323,2.839935 c 3.24786,1.800367 12.12465,9.874913 24.25,22.058394 22.67028,22.77896 22.49009,22.368788 13.69199,31.166888 C 142.8945,90.235933 143.08292,90.312754 121.97202,69.5 105.22384,52.988352 104.0057,52 100.40323,52 96.714248,52 95.297258,53.284999 58.5,90 c -35.878691,35.79849 -38.292061,38 -41.656828,38 -2.947314,0 -4.469485,-0.88374 -8.7074317,-5.05537 z M 55.633887,83.25 C 76.23238,63.0375 94.498324,45.902786 96.224873,45.172857 102.72357,42.425419 104.97706,43.813662 123.66678,62.078252 133.19038,71.385213 141.64571,79 142.45641,79 144.59552,79 151,73.086841 151,71.111833 151,68.593213 114.22113,32.408165 109.77148,30.548986 106.73497,29.280251 101.18412,29 79.091136,29 c -16.366863,0 -27.209082,0.381823 -27.57323,0.971028 -0.330071,0.534066 4.368371,3.462825 10.440983,6.508354 C 71.004881,41.016117 73,42.415431 73,44.223272 73,45.785932 63.453001,55.992991 40.283827,79.201374 L 7.5676543,111.97291 11.486775,115.98646 C 13.642291,118.19391 16.030537,120 16.793988,120 c 0.763451,0 18.241405,-16.5375 38.839899,-36.75 z"
       id="path37190"
       inkscape:connector-curvature="0" />
    <g
       id="g37209">
      <path
         inkscape:connector-curvature="0"
         id="path37188"
         d="M 89,172.93531 C 85.819767,171.5072 78.56105,164.99081 64.25,150.71642 40.228764,126.75672 40.587399,127.55951 49.925763,118.65222 53.184932,115.5435 56.684804,113 57.703256,113 c 3.023602,0 5.970106,2.48056 23.498781,19.78286 16.159951,15.95124 16.808914,16.46495 19.994983,15.82774 2.6344,-0.52688 10.90446,-8.2533 41.35303,-38.6346 C 186.5568,66.066474 183.41613,68.111783 192.65217,77.347826 201.84625,86.541898 203.1528,84.361057 166.5,121 149.175,138.31845 135,152.80709 135,153.19697 c 0,0.38988 4.04194,2.79645 8.98208,5.34793 4.94014,2.55149 10.11514,5.53033 11.5,6.61966 3.12006,2.45424 3.43958,7.27182 0.58366,8.80026 -1.21407,0.64975 -13.22183,1.027 -32.25,1.01322 C 95.574299,174.95758 93.192096,174.81781 89,172.93531 Z m 59,-6.42619 c 0,-0.88647 -4.02298,-3.50971 -9.92329,-6.47062 -6.72487,-3.3747 -10.14464,-5.67716 -10.61004,-7.14352 -0.58728,-1.85036 4.12588,-6.97803 32.53794,-35.39959 l 33.2247,-33.235809 -3.73102,-4.12979 C 187.44623,77.858406 185.05154,76 184.17675,76 c -0.87479,0 -18.48493,16.821788 -39.13364,37.38175 -27.76489,27.64556 -38.45759,37.67267 -41.05421,38.49871 -6.57316,2.09106 -9.038704,0.48936 -27.505587,-17.86856 C 67.071235,124.65535 58.949594,117.0039 58.435222,117.00867 57.014308,117.02185 50,123.95534 50,125.34671 c 0,1.0827 37.955312,39.63074 39.058395,39.66835 0.242883,0.008 2.241605,0.66353 4.441605,1.4561 6.003167,2.16272 54.5,2.19649 54.5,0.038 z M 94.5,137.10055 C 92.85,136.05997 85.08643,128.74245 77.247622,120.8394 61.773657,105.23861 59.97177,102.29419 62.43344,96.631886 64.145627,92.69353 93.568914,63.444445 97.164893,62.106061 102.64401,60.066793 105.71148,62.126647 122.77431,79.303214 137.92427,94.554149 139,95.884416 139,99.368184 c 0,2.052126 -0.63855,4.946286 -1.41901,6.431476 -2.09928,3.99489 -29.64527,30.89408 -32.90678,32.1341 -4.04599,1.53829 -6.767223,1.31543 -10.17421,-0.83321 z m 24.21429,-23.38626 C 127.12143,105.30714 134,97.80341 134,97.039323 c 0,-2.024971 -28.84807,-30.784376 -31.56272,-31.465709 -1.26417,-0.317285 -3.357631,-0.174195 -4.652144,0.317978 -2.707581,1.02942 -28.817418,27.11282 -30.214231,30.183637 -0.806756,1.773609 1.100951,4.075781 14.4879,17.483671 C 95.048203,126.56861 97.944469,129 100.45219,129 c 2.50537,0 5.39536,-2.41898 18.2621,-15.28571 z M 8.1357403,122.94463 C 3.7907,118.66759 3,117.31952 3,114.18868 3,110.66611 4.5125581,108.97611 34.443249,79.05673 51.737035,61.76948 65.674767,47.282779 65.415986,46.864063 65.157205,46.445346 60.400011,43.725697 54.844445,40.820397 43.384464,34.827367 40.97008,32.29294 43.038705,28.427679 c 0.730475,-1.364905 2.276612,-2.719698 3.435859,-3.010651 1.159248,-0.290953 15.589208,-0.39131 32.066579,-0.223016 L 108.5,25.5 l 5.12323,2.839935 c 3.24786,1.800367 12.12465,9.874913 24.25,22.058394 22.67028,22.77896 22.49009,22.368788 13.69199,31.166888 C 142.8945,90.235933 143.08292,90.312754 121.97202,69.5 105.22384,52.988352 104.0057,52 100.40323,52 96.714248,52 95.297258,53.284999 58.5,90 c -35.878691,35.79849 -38.292061,38 -41.656828,38 -2.947314,0 -4.469485,-0.88374 -8.7074317,-5.05537 z M 55.633887,83.25 C 76.23238,63.0375 94.498324,45.902786 96.224873,45.172857 102.72357,42.425419 104.97706,43.813662 123.66678,62.078252 133.19038,71.385213 141.64571,79 142.45641,79 144.59552,79 151,73.086841 151,71.111833 151,68.593213 114.22113,32.408165 109.77148,30.548986 106.73497,29.280251 101.18412,29 79.091136,29 c -16.366863,0 -27.209082,0.381823 -27.57323,0.971028 -0.330071,0.534066 4.368371,3.462825 10.440983,6.508354 C 71.004881,41.016117 73,42.415431 73,44.223272 73,45.785932 63.453001,55.992991 40.283827,79.201374 L 7.5676543,111.97291 11.486775,115.98646 C 13.642291,118.19391 16.030537,120 16.793988,120 c 0.763451,0 18.241405,-16.5375 38.839899,-36.75 z"
         style="fill:#8c857a" />
    </g>
    <path
       style="fill:#827c72"
       d="M 91.941601,174.05177 C 86.578411,172.42436 83.939365,170.19488 64.25,150.65775 40.834523,127.42331 41.120781,127.99244 48.748295,119.83801 c 5.340125,-5.70903 8.206558,-7.18587 11.509691,-5.93002 1.241893,0.47216 10.218066,8.56103 19.947051,17.97525 C 94.450766,145.66807 98.433694,149 100.66609,149 c 2.30941,0 8.95147,-6.15091 39.80295,-36.85973 20.36703,-20.272857 38.14359,-37.597857 39.50347,-38.500004 4.15808,-2.758482 6.67457,-2.023246 12.54873,3.666331 C 201.94806,86.437195 203.23111,84.28277 166.5,121 149.175,138.31845 135,152.78944 135,153.15774 c 0,0.36831 4.3875,3.01649 9.75,5.88484 11.55112,6.1786 13.25,7.53013 13.25,10.54098 0,5.31863 -0.65571,5.42352 -33.32143,5.33049 -16.59821,-0.0473 -31.32985,-0.4353 -32.736969,-0.86228 z M 152.96349,169.75 c -0.0431,-1.4748 -5.72156,-5.15256 -15.52105,-10.05244 -12.31739,-6.15887 -14.42408,-2.58195 23.31923,-39.59347 18.28681,-17.93225 33.24641,-33.176644 33.24354,-33.876433 C 193.99731,84.297464 185.97347,76 184.11483,76 c -0.89675,0 -12.42694,10.836551 -25.62264,24.08122 -13.19571,13.24468 -30.60476,30.34468 -38.68679,38 C 105.80314,151.34421 104.91664,152 100.98966,152 c -2.266628,0 -5.104059,-0.49814 -6.305401,-1.10698 -1.201343,-0.60883 -9.663092,-8.53278 -18.803888,-17.60876 C 62.213954,119.71474 58.893132,116.89914 57.191959,117.43907 54.196433,118.38982 49,124.68339 49,127.36062 c 0,1.6501 5.403857,7.63167 19.316335,21.38139 16.860133,16.66289 19.943684,19.2829 24.25,20.60452 6.61895,2.03139 60.455205,2.39103 60.397155,0.40347 z M 95.361569,137.45533 c -1.726137,-0.87839 -9.938637,-8.48664 -18.25,-16.90723 L 62,105.23793 v -4.83636 -4.836353 L 78.782609,78.782609 95.565217,62 H 100.5 h 4.93478 l 16.78261,16.782609 C 138.11441,94.679624 139,95.768342 139,99.414575 c 0,2.117145 -0.86774,5.253395 -1.92831,6.969435 -1.06058,1.71604 -8.70045,9.5583 -16.97749,17.42725 -16.31518,15.51075 -18.59396,16.76787 -24.732631,13.64407 z M 118.71429,113.71429 C 127.12143,105.30714 134,97.80341 134,97.039323 c 0,-2.024971 -28.84807,-30.784376 -31.56272,-31.465709 -1.26417,-0.317285 -3.357631,-0.174195 -4.652144,0.317978 -2.707581,1.02942 -28.817418,27.11282 -30.214231,30.183637 -0.806756,1.773609 1.100951,4.075781 14.4879,17.483671 C 95.048203,126.56861 97.944469,129 100.45219,129 c 2.50537,0 5.39536,-2.41898 18.2621,-15.28571 z M 8.2158398,122.71855 C -0.85903464,113.52954 -2.1597778,115.69001 34.75,78.64652 52.2125,61.120759 66.05,46.602125 65.5,46.382889 64.95,46.163654 59.820683,43.384459 54.101518,40.206901 42.526313,33.775739 40.881924,31.691121 44.128428,27.56386 L 46.14516,25 H 75.535068 C 114.80234,25 110.38974,23.239728 136.75,49.419823 160.60566,73.112436 160.16912,72.150885 151.16,81.16 142.33782,89.982177 142.82305,90.170571 122.56478,70.057735 113.17915,60.739489 104.375,52.696931 103,52.185385 101.47596,51.618392 99.524037,51.613304 98,52.172354 96.625,52.676733 78.611246,69.94429 57.969435,90.544704 14.479085,133.94783 17.424558,132.0431 8.2158398,122.71855 Z M 55.117735,86.75 C 80.149831,62.171969 94.276212,49.0137 96.643064,48.070493 102.90775,45.57397 106.07284,47.592449 124.36548,65.75 133.61233,74.928559 141.53693,82 142.57603,82 145.0971,82 152,75.068828 152,72.537435 152,70.038372 115.24605,33.119046 110,30.348453 106.93089,28.727566 103.54532,28.462833 82.5,28.1981 58.03708,27.890376 47.968569,28.594294 47.279854,30.660439 c -0.216106,0.648316 5.129673,3.943834 12.162986,7.49813 6.901704,3.487787 12.550489,6.782468 12.552856,7.321513 C 71.998063,46.019128 57.375,61.109915 39.5,79.015164 17.608803,100.94341 7,112.25159 7,113.65772 7,115.48748 14.874763,124 16.567438,124 16.904106,124 34.25174,107.2375 55.117735,86.75 Z"
       id="path37186"
       inkscape:connector-curvature="0" />
    <path
       style="fill:#73716d"
       d="m 90,173.28906 c -3.651512,-1.26022 -8.412472,-5.44187 -25.25,-22.17763 -23.714135,-23.57081 -23.497571,-23.16682 -16.5,-30.78003 4.484823,-4.87939 9.110265,-7.4789 11.697631,-6.57409 0.853803,0.29858 9.223069,8.09372 18.598369,17.32253 16.948436,16.68361 20.460332,19.1692 24.43555,17.29455 1.01979,-0.48091 19.18108,-17.86189 40.35841,-38.62439 C 164.51729,88.9875 182.61364,72 183.55407,72 c 2.69331,0 8.08825,3.760587 11.40786,7.951938 5.68101,7.172851 6.46826,6.039396 -28.58598,41.156692 -19.01582,19.05003 -31.34471,32.13291 -30.92341,32.81458 0.38535,0.62351 4.82867,3.19507 9.87405,5.71458 5.04537,2.51951 9.96091,5.27647 10.92341,6.12656 2.26982,2.00474 2.23364,5.48798 -0.0787,7.58066 -1.62022,1.46628 -5.24045,1.64599 -31.75,1.57604 C 100.12183,174.85694 93.654507,174.55031 90,173.28906 Z m 64,-3.17037 c 0,-1.5544 -6.27837,-5.7362 -15.76612,-10.50123 C 133.15525,157.06682 129,154.34957 129,153.57914 129,152.8087 143.625,137.88515 161.5,120.4157 185.72932,96.736077 194,88.061719 194,86.329403 194,83.17337 187.39374,76 184.48722,76 c -1.6576,0 -12.57642,10.169234 -39.99572,37.25 -20.74362,20.4875 -38.45273,37.55587 -39.35358,37.92971 -0.90086,0.37385 -3.35674,0.71135 -5.457512,0.75 -3.51891,0.0648 -4.658936,-0.7366 -14.481869,-10.17971 -5.864253,-5.6375 -14.045436,-13.49988 -18.180408,-17.47196 -4.134972,-3.97208 -8.248319,-7.23458 -9.140771,-7.25 C 55.781021,116.99182 48,125.41454 48,127.71999 c 0,2.80008 36.710616,38.79558 42.024713,41.20608 4.171959,1.89242 6.491696,2.03149 34.225287,2.05197 16.51226,0.0122 29.75,-0.37019 29.75,-0.85935 z M 97,138.26514 C 94.666826,137.36769 68.037614,111.9707 64.847004,107.59996 62.823551,104.82808 62,102.52336 62,99.63257 62,95.704337 62.57403,94.991187 78.782609,78.782609 L 95.565217,62 h 4.852763 4.85277 L 121.736,78.302974 c 15.93156,15.774532 16.48258,16.456633 16.99959,21.04352 l 0.53433,4.740546 -15.88496,16.06979 C 106.16078,137.58141 102.23217,140.27767 97,138.26514 Z m 21.71429,-24.55085 C 127.12143,105.30714 134,97.80341 134,97.039323 c 0,-2.024971 -28.84807,-30.784376 -31.56272,-31.465709 -1.26417,-0.317285 -3.357631,-0.174195 -4.652144,0.317978 -2.707581,1.02942 -28.817418,27.11282 -30.214231,30.183637 -0.806756,1.773609 1.100951,4.075781 14.4879,17.483671 C 95.048203,126.56861 97.944469,129 100.45219,129 c 2.50537,0 5.39536,-2.41898 18.2621,-15.28571 z M 8.4401394,122.85494 C 3.8306499,118.49548 3,117.16497 3,114.14109 3,110.79277 4.9459389,108.62286 34.5,79.015639 51.825,61.659475 66,47.135223 66,46.739524 66,46.343825 61.8375,43.943028 56.75,41.40442 51.6625,38.865812 46.4875,35.857854 45.25,34.72007 42.526749,32.216255 42.353284,28.895245 44.828741,26.654988 46.440325,25.196524 50.040543,25 75.147239,25 c 22.860949,0 29.524341,0.307237 33.726201,1.555056 4.68507,1.391317 7.36169,3.605857 25.42023,21.031835 11.10109,10.712228 20.78901,20.631859 21.52871,22.043624 1.98532,3.789122 0.84256,6.450498 -5.23976,12.202905 -8.36446,7.910756 -8.04389,8.044814 -28.01784,-11.716716 C 113.17915,60.830891 104.4705,52.705961 103.21223,52.061305 101.95395,51.416648 99.928952,51.18813 98.712227,51.553488 97.495502,51.918845 79.364232,69.268774 58.420516,90.108887 14.568671,133.74381 17.74978,131.65961 8.4401394,122.85494 Z M 26.52346,115.91803 C 30.910557,111.47295 48.296406,94.372949 65.158681,77.918031 L 95.817361,48 h 4.690429 4.69042 l 17.88604,17.5 C 132.92157,75.125 141.71119,83 142.61672,83 144.85314,83 153,74.710849 153,72.435376 153,69.873169 115.52337,32.819173 110.5,30.414661 106.98262,28.731013 103.66461,28.460284 83,28.170829 c -27.952247,-0.391534 -36.256346,0.226482 -35.806824,2.66485 0.180621,0.979753 5.10825,4.132239 11.980049,7.664321 6.420274,3.3 12.018558,6.348284 12.440631,6.773964 0.422074,0.425681 -13.88212,15.500681 -31.787096,33.5 C 21.921784,96.773284 6.9932474,112.30542 6.6522348,113.28982 5.8292699,115.66546 13.415502,124 16.40082,124 c 1.359803,0 5.068581,-2.96111 10.12264,-8.08197 z"
       id="path37184"
       inkscape:connector-curvature="0" />
    <path
       style="fill:#00748d"
       d="m 88.327246,172.06151 c -5.07985,-2.30641 -41.523502,-37.70689 -43.344934,-42.10421 -1.104082,-2.66549 -0.961821,-3.38987 1.352561,-6.88714 1.422531,-2.14959 4.109104,-5.06975 5.970164,-6.48925 6.36205,-4.85257 7.19272,-4.38834 26.694963,14.91909 16.773174,16.60562 17.874322,17.5 21.54572,17.5 3.75615,0 4.98137,-1.10974 41.95428,-38 35.84147,-35.761345 38.295,-38 41.64751,-38 3.01611,0 4.35134,0.834212 8.70743,5.440139 2.82978,2.992077 5.14506,6.164424 5.14506,7.04966 0,3.766376 -4.3897,8.624295 -32.92644,36.438511 C 146.80587,139.73346 135,151.97478 135,153.11109 c 0,1.36483 2.63648,3.19483 9.75,6.76755 11.75593,5.90433 14.05647,8.05594 12.4301,11.62542 L 156.04288,174 124.27144,173.978 c -29.019012,-0.0201 -32.132935,-0.18609 -35.944194,-1.91653 z m 66.211694,-1.12452 c 1.17557,-1.90211 -2.62797,-4.81144 -13.68336,-10.46641 C 134.88501,157.41656 130,154.4954 130,153.97911 c 0,-0.51629 14.41031,-15.19805 32.02292,-32.62613 18.20772,-18.01697 32.28462,-32.730133 32.62953,-34.104354 0.49023,-1.953236 -0.32231,-3.360018 -4.23533,-7.332772 C 187.75405,77.212134 184.93499,75 184.15253,75 c -0.78245,0 -18.48773,16.895971 -39.34506,37.5466 -20.85733,20.65063 -39.12937,38.00549 -40.60454,38.56634 -6.113173,2.32423 -8.569682,0.72957 -27.257724,-17.69454 C 67.227849,123.83828 58.70061,116 57.995785,116 56.028322,116 47,125.47561 47,127.54054 c 0,1.7919 29.718764,32.592 37.325427,38.68353 6.779201,5.4289 8.577352,5.68424 40.365553,5.73204 19.58106,0.0294 29.40727,-0.30606 29.84796,-1.01912 z M 79.325687,121.79664 C 61.94658,104.5326 60.443761,102.17131 62.963621,96.087827 63.619471,94.504464 71.004356,86.449539 79.374475,78.187994 95.404851,62.365559 98.318633,60.555847 104.01041,62.88694 c 1.36927,0.560794 9.54306,7.903148 18.16396,16.316343 17.08429,16.672669 18.69383,19.312082 15.50456,25.425237 -0.82393,1.57931 -8.46022,9.73398 -16.96953,18.12148 L 105.23793,138 h -4.80044 -4.800441 z m 39.388603,-8.08235 C 127.12143,105.30714 134,97.80341 134,97.039323 c 0,-2.024971 -28.84807,-30.784376 -31.56272,-31.465709 -1.26417,-0.317285 -3.357631,-0.174195 -4.652144,0.317978 -2.707581,1.02942 -28.817418,27.11282 -30.214231,30.183637 -0.806756,1.773609 1.100951,4.075781 14.4879,17.483671 C 95.048203,126.56861 97.944469,129 100.45219,129 c 2.50537,0 5.39536,-2.41898 18.2621,-15.28571 z M 12.5,126.12297 C 7.805118,123.1972 4.0963643,118.73182 3.3779984,115.13999 2.7328384,111.91419 3.3184019,111.25333 34.501124,80.014513 56.909633,57.565696 66.105521,47.717368 65.684093,46.619143 65.355365,45.762492 60.655556,42.838091 55.240072,40.120474 44.06134,34.510723 42.504702,33.109561 43.416262,29.477616 44.497075,25.171316 47.375396,24.814105 78,25.185637 c 27.18067,0.32975 28.73126,0.451615 33.4957,2.632516 3.72988,1.707334 10.0011,7.269431 24.75,21.951379 C 153.96737,67.410751 156,69.774249 156,72.739419 156,78.699938 145.62196,87.84374 140.82941,86.105809 139.91058,85.772614 131.03591,77.7375 121.10792,68.25 102.19206,50.173406 100.90027,49.371174 95.972506,52.640266 c -1.359878,0.902147 -19.13644,18.227147 -39.503469,38.5 -23.621479,23.512254 -37.743983,36.858384 -39,36.855994 C 16.386066,127.99421 14.15,127.15123 12.5,126.12297 Z M 56.075864,87.781159 C 76.927391,67.310797 95.144249,49.956358 96.557769,49.215739 101.79017,46.474209 104.44656,48.214064 123.13933,66.625833 132.84097,76.181625 141.56775,84 142.53219,84 144.57487,84 154,74.919288 154,72.951252 154,72.217298 145.3375,62.876877 134.75,52.194761 120.58937,37.907585 114.17809,32.144402 110.5,30.396136 c -4.90207,-2.330052 -5.55818,-2.37649 -33.5,-2.371054 -15.675,0.003 -29.128073,0.403237 -29.895717,0.889306 -2.777877,1.75894 0.03037,4.137696 11.922396,10.098986 6.661447,3.339281 11.965998,6.508594 11.787891,7.042917 C 70.636462,46.590614 55.980322,61.543674 38.245369,79.285314 14.138142,103.40163 6,112.1385 6,113.903 6,116.67096 13.843735,125 16.450419,125 c 0.942468,0 18.773918,-16.74848 39.625445,-37.218841 z"
       id="path37182"
       inkscape:connector-curvature="0" />
    <path
       style="fill:#504e4b"
       d="m 88.327246,172.06151 c -5.07985,-2.30641 -41.523502,-37.70689 -43.344934,-42.10421 -1.104082,-2.66549 -0.961821,-3.38987 1.352561,-6.88714 1.422531,-2.14959 4.109104,-5.06975 5.970164,-6.48925 6.36205,-4.85257 7.19272,-4.38834 26.694963,14.91909 16.773174,16.60562 17.874322,17.5 21.54572,17.5 3.75615,0 4.98137,-1.10974 41.95428,-38 35.84147,-35.761345 38.295,-38 41.64751,-38 3.01611,0 4.35134,0.834212 8.70743,5.440139 2.82978,2.992077 5.14506,6.164424 5.14506,7.04966 0,3.766376 -4.3897,8.624295 -32.92644,36.438511 C 146.80587,139.73346 135,151.97478 135,153.11109 c 0,1.36483 2.63648,3.19483 9.75,6.76755 11.75593,5.90433 14.05647,8.05594 12.4301,11.62542 L 156.04288,174 124.27144,173.978 c -29.019012,-0.0201 -32.132935,-0.18609 -35.944194,-1.91653 z m 66.211694,-1.12452 c 1.17557,-1.90211 -2.62797,-4.81144 -13.68336,-10.46641 C 134.88501,157.41656 130,154.4954 130,153.97911 c 0,-0.51629 14.41031,-15.19805 32.02292,-32.62613 18.20772,-18.01697 32.28462,-32.730133 32.62953,-34.104354 0.49023,-1.953236 -0.32231,-3.360018 -4.23533,-7.332772 C 187.75405,77.212134 184.93499,75 184.15253,75 c -0.78245,0 -18.48773,16.895971 -39.34506,37.5466 -20.85733,20.65063 -39.12937,38.00549 -40.60454,38.56634 -6.113173,2.32423 -8.569682,0.72957 -27.257724,-17.69454 C 67.227849,123.83828 58.70061,116 57.995785,116 56.028322,116 47,125.47561 47,127.54054 c 0,1.7919 29.718764,32.592 37.325427,38.68353 6.779201,5.4289 8.577352,5.68424 40.365553,5.73204 19.58106,0.0294 29.40727,-0.30606 29.84796,-1.01912 z M 79.325687,121.79664 C 61.94658,104.5326 60.443761,102.17131 62.963621,96.087827 63.619471,94.504464 71.004356,86.449539 79.374475,78.187994 95.404851,62.365559 98.318633,60.555847 104.01041,62.88694 c 1.36927,0.560794 9.54306,7.903148 18.16396,16.316343 17.08429,16.672669 18.69383,19.312082 15.50456,25.425237 -0.82393,1.57931 -8.46022,9.73398 -16.96953,18.12148 L 105.23793,138 h -4.80044 -4.800441 z m 39.853743,-2.50595 C 140.32999,98.288866 140.29421,100.73153 119.75,80.336654 111.3625,72.010123 103.54694,64.916608 102.38208,64.573287 101.21723,64.229966 99.13925,64.376758 97.764355,64.899492 93.875908,66.377877 66.439899,94.03429 65.633558,97.288408 64.51855,101.78821 67.255284,105.48526 83.000946,120.75 94.876206,132.26255 98.243445,135 100.52938,135 c 2.31452,0 5.70885,-2.85911 18.65005,-15.70931 z M 12.5,126.12297 C 7.805118,123.1972 4.0963643,118.73182 3.3779984,115.13999 2.7328384,111.91419 3.3184019,111.25333 34.501124,80.014513 56.909633,57.565696 66.105521,47.717368 65.684093,46.619143 65.355365,45.762492 60.655556,42.838091 55.240072,40.120474 44.06134,34.510723 42.504702,33.109561 43.416262,29.477616 44.497075,25.171316 47.375396,24.814105 78,25.185637 c 27.18067,0.32975 28.73126,0.451615 33.4957,2.632516 3.72988,1.707334 10.0011,7.269431 24.75,21.951379 C 153.96737,67.410751 156,69.774249 156,72.739419 156,78.699938 145.62196,87.84374 140.82941,86.105809 139.91058,85.772614 131.03591,77.7375 121.10792,68.25 102.19206,50.173406 100.90027,49.371174 95.972506,52.640266 c -1.359878,0.902147 -19.13644,18.227147 -39.503469,38.5 -23.621479,23.512254 -37.743983,36.858384 -39,36.855994 C 16.386066,127.99421 14.15,127.15123 12.5,126.12297 Z M 56.075864,87.781159 C 76.927391,67.310797 95.144249,49.956358 96.557769,49.215739 101.79017,46.474209 104.44656,48.214064 123.13933,66.625833 132.84097,76.181625 141.56775,84 142.53219,84 144.57487,84 154,74.919288 154,72.951252 154,72.217298 145.3375,62.876877 134.75,52.194761 120.58937,37.907585 114.17809,32.144402 110.5,30.396136 c -4.90207,-2.330052 -5.55818,-2.37649 -33.5,-2.371054 -15.675,0.003 -29.128073,0.403237 -29.895717,0.889306 -2.777877,1.75894 0.03037,4.137696 11.922396,10.098986 6.661447,3.339281 11.965998,6.508594 11.787891,7.042917 C 70.636462,46.590614 55.980322,61.543674 38.245369,79.285314 14.138142,103.40163 6,112.1385 6,113.903 6,116.67096 13.843735,125 16.450419,125 c 0.942468,0 18.773918,-16.74848 39.625445,-37.218841 z"
       id="path37180"
       inkscape:connector-curvature="0" />
    <path
       style="fill:#0c5160"
       d="M 90.515148,172.33161 C 86.114264,170.98165 83.155809,168.44183 65.26124,150.65126 41.743115,127.26981 41.976972,127.73731 49.857143,119.85714 53.764268,115.95002 55.380124,115 58.118509,115 c 3.068685,0 5.024538,1.62255 19.843214,16.46167 9.041445,9.05392 17.690095,16.97989 19.219222,17.61328 1.529128,0.63339 4.026465,0.8411 5.549645,0.46159 1.83056,-0.4561 15.67021,-13.54634 40.82388,-38.61328 C 171.08896,83.483709 182.23243,73 183.86433,73 c 1.34338,0 4.45522,2.080508 7.69553,5.145057 9.03472,8.544664 10.38508,6.328807 -26.17968,42.959333 -17.3909,17.42219 -31.44265,32.20819 -31.22612,32.85779 0.21653,0.6496 5.33295,3.7399 11.36982,6.86735 8.59236,4.45134 11.04709,6.18516 11.30288,7.98341 0.37459,2.63336 -1.37807,5.18706 -3.55999,5.18706 -1.05865,0 -0.86128,-0.50776 0.68363,-1.75876 1.41361,-1.14467 1.94282,-2.35594 1.51565,-3.46911 -0.36098,-0.9407 -6.01351,-4.44162 -12.56119,-7.77983 C 136.35719,157.6541 131,154.58626 131,154.17489 c 0,-0.41138 14.41612,-15.13152 32.03581,-32.71142 17.84379,-17.8035 32.30695,-33.029824 32.64784,-34.370563 0.50492,-1.985868 -0.36092,-3.342067 -4.94787,-7.75 C 187.67783,76.404308 184.58983,74 183.87355,74 183.15727,74 168.15519,88.302819 150.53561,105.78404 106.15462,149.81652 104.85932,151 101.04757,151 c -1.730789,0 -4.362043,-0.6444 -5.84723,-1.432 -1.485187,-0.7876 -9.895065,-8.6626 -18.688618,-17.5 C 64.700846,120.19823 59.895177,116 58.118864,116 c -2.9168,0 -12.116994,8.80887 -12.122773,11.60714 -0.0023,1.13503 8.105437,9.95508 20.251132,22.03019 19.59814,19.48425 20.465809,20.20403 26.753909,22.19383 3.574377,1.13108 5.598868,2.05044 4.498868,2.04302 -1.1,-0.007 -4.243183,-0.70157 -6.984852,-1.54257 z M 97,137.31002 C 96.175,137.01738 88.1875,129.52052 79.25,120.65034 63.044737,104.56713 63,104.51034 63,100.02091 63,95.532318 63.048036,95.471275 79.337661,79.259541 L 95.675323,63 H 100.5 h 4.82468 l 16.33766,16.259541 C 137.86007,95.379819 138,95.556919 138,99.936808 c 0,4.357172 -0.20904,4.628852 -15.25,19.820372 -17.65297,17.82966 -20.15723,19.53672 -25.75,17.55284 z m 22.17943,-18.01933 C 140.32999,98.288866 140.29421,100.73153 119.75,80.336654 111.3625,72.010123 103.54694,64.916608 102.38208,64.573287 101.21723,64.229966 99.13925,64.376758 97.764355,64.899492 93.875908,66.377877 66.439899,94.03429 65.633558,97.288408 64.51855,101.78821 67.255284,105.48526 83.000946,120.75 94.876206,132.26255 98.243445,135 100.52938,135 c 2.31452,0 5.70885,-2.85911 18.65005,-15.70931 z M 8.926019,122.21173 C 6.2167086,119.50242 4,116.78099 4,116.1641 c 0,-0.61689 2.3879687,1.34382 5.3065972,4.35714 C 12.225226,123.53456 15.491283,126 16.564502,126 17.786659,126 32.953193,111.81746 57.152218,88.045578 79.97035,65.630217 96.825883,49.830821 98.322142,49.455284 c 1.393433,-0.34973 3.578488,-0.317413 4.855688,0.07182 1.27719,0.389228 9.97217,8.256601 19.32217,17.483051 9.35,9.22645 18.00269,17.075834 19.2282,17.443074 C 144.83985,85.385675 154,76.914009 154,73.103782 154,71.02529 149.90288,66.406477 134.25,50.838989 123.3875,40.035747 112.925,30.364967 111,29.348366 107.86685,27.693734 104.408,27.46863 78,27.200707 53.090271,26.947984 48.188795,27.133374 46.5,28.392138 43.254539,30.811181 45.523153,32.94698 58.298605,39.5 64.732127,42.8 69.996836,45.73938 69.997959,46.031955 69.999081,46.32453 55.15,61.41391 37,79.56391 18.85,97.71391 3.9975816,112.09953 3.9946258,111.53195 3.9916699,110.96438 18.249722,96.528467 35.679187,79.452149 59.434102,56.178543 67.20864,47.98609 66.728209,46.734106 66.375706,45.8155 61.905154,42.97532 56.793648,40.422595 51.682142,37.869869 46.7125,35.085744 45.75,34.23565 43.425436,32.182562 43.52415,28.325035 45.934259,27.035184 47.134937,26.3926 58.44379,26 75.752757,26 c 22.611017,0 28.911403,0.302148 33.315743,1.597727 5.02338,1.477677 6.99063,3.150007 26.1815,22.256579 C 150.72639,65.262714 156,71.121998 156,72.908753 156,76.453664 146.16734,86 142.5161,86 140.24335,86 136.42332,82.727626 121.85386,68.3 105.56805,52.172722 103.67025,50.6 100.49532,50.6 96.58796,50.6 97.490693,49.770807 46.714139,100 15.675945,130.70361 16.773031,130.05874 8.926019,122.21173 Z"
       id="path37178"
       inkscape:connector-curvature="0" />
    <path
       style="fill:#353736"
       d="M 90.515148,172.33161 C 86.114264,170.98165 83.155809,168.44183 65.26124,150.65126 41.743115,127.26981 41.976972,127.73731 49.857143,119.85714 53.764268,115.95002 55.380124,115 58.118509,115 c 3.068685,0 5.024538,1.62255 19.843214,16.46167 9.041445,9.05392 17.690095,16.97989 19.219222,17.61328 1.529128,0.63339 4.026465,0.8411 5.549645,0.46159 1.83056,-0.4561 15.67021,-13.54634 40.82388,-38.61328 C 171.08896,83.483709 182.23243,73 183.86433,73 c 1.34338,0 4.45522,2.080508 7.69553,5.145057 9.03472,8.544664 10.38508,6.328807 -26.17968,42.959333 -17.3909,17.42219 -31.44265,32.20819 -31.22612,32.85779 0.21653,0.6496 5.33295,3.7399 11.36982,6.86735 8.59236,4.45134 11.04709,6.18516 11.30288,7.98341 0.37459,2.63336 -1.37807,5.18706 -3.55999,5.18706 -1.05865,0 -0.86128,-0.50776 0.68363,-1.75876 1.41361,-1.14467 1.94282,-2.35594 1.51565,-3.46911 -0.36098,-0.9407 -6.01351,-4.44162 -12.56119,-7.77983 C 136.35719,157.6541 131,154.58626 131,154.17489 c 0,-0.41138 14.41612,-15.13152 32.03581,-32.71142 17.84379,-17.8035 32.30695,-33.029824 32.64784,-34.370563 0.50492,-1.985868 -0.36092,-3.342067 -4.94787,-7.75 C 187.67783,76.404308 184.58983,74 183.87355,74 183.15727,74 168.15519,88.302819 150.53561,105.78404 106.15462,149.81652 104.85932,151 101.04757,151 c -1.730789,0 -4.362043,-0.6444 -5.84723,-1.432 -1.485187,-0.7876 -9.895065,-8.6626 -18.688618,-17.5 C 64.700846,120.19823 59.895177,116 58.118864,116 c -2.9168,0 -12.116994,8.80887 -12.122773,11.60714 -0.0023,1.13503 8.105437,9.95508 20.251132,22.03019 19.59814,19.48425 20.465809,20.20403 26.753909,22.19383 3.574377,1.13108 5.598868,2.05044 4.498868,2.04302 -1.1,-0.007 -4.243183,-0.70157 -6.984852,-1.54257 z M 97,137.31002 C 96.175,137.01738 88.1875,129.52052 79.25,120.65034 63.103434,104.62539 63,104.49442 63,100.07535 63,95.665903 63.130069,95.499338 78.25,80.546371 L 93.5,65.46477 79.857657,79.482385 c -7.503288,7.709688 -14.140788,15.000531 -14.75,16.201874 C 64.498446,96.885601 64,99.299808 64,101.04916 c 0,2.75322 1.965533,5.17371 14.626228,18.0117 14.943879,15.15315 19.449592,18.46018 23.698442,17.39379 1.32081,-0.3315 9.6631,-7.91275 18.53841,-16.84722 16.92164,-17.03443 17.80752,-18.44455 15.02926,-23.923171 -0.60921,-1.201343 -7.24671,-8.492186 -14.75,-16.201874 L 107.5,65.46477 122.75,80.546371 c 15.0323,14.8663 15.25,15.143889 15.25,19.444882 0,4.286957 -0.26676,4.632707 -15.25,19.765927 C 105.09703,137.58684 102.59277,139.2939 97,137.31002 Z M 8.926019,122.21173 C 6.2167086,119.50242 4,116.78099 4,116.1641 c 0,-0.61689 2.3879687,1.34382 5.3065972,4.35714 C 12.225226,123.53456 15.491283,126 16.564502,126 17.786659,126 32.953193,111.81746 57.152218,88.045578 79.97035,65.630217 96.825883,49.830821 98.322142,49.455284 c 1.393433,-0.34973 3.578488,-0.317413 4.855688,0.07182 1.27719,0.389228 9.97217,8.256601 19.32217,17.483051 9.35,9.22645 18.00269,17.075834 19.2282,17.443074 C 144.83985,85.385675 154,76.914009 154,73.103782 154,71.02529 149.90288,66.406477 134.25,50.838989 123.3875,40.035747 112.925,30.364967 111,29.348366 107.86685,27.693734 104.408,27.46863 78,27.200707 53.090271,26.947984 48.188795,27.133374 46.5,28.392138 43.254539,30.811181 45.523153,32.94698 58.298605,39.5 64.732127,42.8 69.996836,45.73938 69.997959,46.031955 69.999081,46.32453 55.15,61.41391 37,79.56391 18.85,97.71391 3.9975816,112.09953 3.9946258,111.53195 3.9916699,110.96438 18.249722,96.528467 35.679187,79.452149 59.434102,56.178543 67.20864,47.98609 66.728209,46.734106 66.375706,45.8155 61.905154,42.97532 56.793648,40.422595 51.682142,37.869869 46.7125,35.085744 45.75,34.23565 43.425436,32.182562 43.52415,28.325035 45.934259,27.035184 47.134937,26.3926 58.44379,26 75.752757,26 c 22.611017,0 28.911403,0.302148 33.315743,1.597727 5.02338,1.477677 6.99063,3.150007 26.1815,22.256579 C 150.72639,65.262714 156,71.121998 156,72.908753 156,76.453664 146.16734,86 142.5161,86 140.24335,86 136.42332,82.727626 121.85386,68.3 105.56805,52.172722 103.67025,50.6 100.49532,50.6 96.58796,50.6 97.490693,49.770807 46.714139,100 15.675945,130.70361 16.773031,130.05874 8.926019,122.21173 Z M 95.733333,63.875912 c 0.678334,-0.683418 1.485241,-0.990671 1.793128,-0.682784 0.307888,0.307887 -0.247112,0.867048 -1.233333,1.242579 -1.425198,0.542685 -1.540062,0.427821 -0.559795,-0.559795 z M 104,64 c -0.90129,-0.58246 -1.02463,-0.975486 -0.30902,-0.984687 0.65504,-0.0084 1.4691,0.434687 1.80902,0.984687 0.7673,1.241525 0.42112,1.241525 -1.5,0 z"
       id="path37176"
       inkscape:connector-curvature="0" />
  </g>
</svg>
