<?xml version="1.0" encoding="UTF-8" standalone="no"?>
<!-- Created with Inkscape (http://www.inkscape.org/) -->

<svg
   xmlns:dc="http://purl.org/dc/elements/1.1/"
   xmlns:cc="http://creativecommons.org/ns#"
   xmlns:rdf="http://www.w3.org/1999/02/22-rdf-syntax-ns#"
   xmlns:svg="http://www.w3.org/2000/svg"
   xmlns="http://www.w3.org/2000/svg"
   xmlns:sodipodi="http://sodipodi.sourceforge.net/DTD/sodipodi-0.dtd"
   xmlns:inkscape="http://www.inkscape.org/namespaces/inkscape"
   version="1.1"
   id="svg37211"
   width="200"
   height="200"
   viewBox="0 0 200 200"
   sodipodi:docname="marte.svg"
   inkscape:version="0.92.4 (5da689c313, 2019-01-14)">
  <metadata
     id="metadata37217">
    <rdf:RDF>
      <cc:Work
         rdf:about="">
        <dc:format>image/svg+xml</dc:format>
        <dc:type
           rdf:resource="http://purl.org/dc/dcmitype/StillImage" />
        <dc:title></dc:title>
      </cc:Work>
    </rdf:RDF>
  </metadata>
  <defs
     id="defs37215" />
  <sodipodi:namedview
     pagecolor="#ffffff"
     bordercolor="#666666"
     borderopacity="1"
     objecttolerance="10"
     gridtolerance="10"
     guidetolerance="10"
     inkscape:pageopacity="0"
     inkscape:pageshadow="2"
     inkscape:window-width="1920"
     inkscape:window-height="1051"
     id="namedview37213"
     showgrid="false"
     inkscape:zoom="1.18"
     inkscape:cx="100"
     inkscape:cy="100"
     inkscape:window-x="-9"
     inkscape:window-y="-9"
     inkscape:window-maximized="1"
     inkscape:current-layer="svg37211" />
  <g
     id="g37221"
     transform="translate(0.84745885,0.84745734)">
    <path
       style="fill:#d1d2d0"
       d="M 95.097689,185.92727 C 86.584791,184.23529 69.025456,171.98783 56.907824,159.29022 43.699001,145.4492 35.082527,130.20457 30.245935,112.11888 26.65449,98.689232 26.471376,80.334705 29.806663,68.08828 34.354259,51.390523 42.719367,38.171589 54.284122,29.407856 77.387358,11.900301 109.62108,9.1327917 135.81763,22.407588 152.63412,30.929149 166.22626,48.212526 171.6728,68 c 2.83435,10.297275 2.3748,30.640812 -0.9776,43.27735 -2.96611,11.18046 -9.47579,25.56417 -15.75319,34.80804 -9.24986,13.62102 -29.86041,32.22236 -41.44201,37.40206 -6.1311,2.74204 -12.57997,3.59705 -18.402311,2.43982 z"
       id="path37279"
       inkscape:connector-curvature="0" />
    <path
       style="fill:#afb1af"
       d="M 92.438033,184.18468 C 85.569658,181.81013 72.142972,172.68539 62.788099,164.03466 27.713491,131.60012 17.915622,82.531719 39.438948,47.100502 51.526832,27.201699 74.814416,15 100.70445,15 c 12.92021,0 20.94027,1.862527 33.29555,7.732341 8.13133,3.863076 10.72726,5.756238 18.01847,13.140486 13.41146,13.582599 19.66433,27.728358 20.70786,46.846967 1.15908,21.235706 -5.42009,43.483606 -18.75293,63.414306 -5.71215,8.53885 -22.68975,25.14255 -32.3079,31.59639 -12.02678,8.07004 -19.67097,9.75808 -29.227467,6.45419 z"
       id="path37277"
       inkscape:connector-curvature="0" />
    <path
       style="fill:#c1d630"
       d="M 91.563698,183.5099 C 80.216108,179.46729 56.566277,159.24401 46.994912,145.39854 27.539019,117.2546 23.205212,83.204781 35.531495,55.332867 43.611841,37.06177 60.530356,23.247061 82,17.389295 c 9.866698,-2.692024 28.15294,-2.477789 38.44341,0.45039 27.56653,7.844121 46.11357,28.47527 51.05077,56.787292 1.86408,10.689438 1.86664,13.40106 0.0241,25.624563 -3.63031,24.08429 -14.30544,44.41032 -32.7607,62.37822 -20.16229,19.62985 -33.78515,25.65704 -47.193922,20.88014 z"
       id="path37275"
       inkscape:connector-curvature="0" />
    <path
       style="fill:#c1d72d"
       d="M 91.563698,183.5099 C 80.216108,179.46729 56.566277,159.24401 46.994912,145.39854 27.539019,117.2546 23.205212,83.204781 35.531495,55.332867 43.611841,37.06177 60.530356,23.247061 82,17.389295 c 9.866698,-2.692024 28.15294,-2.477789 38.44341,0.45039 27.56653,7.844121 46.11357,28.47527 51.05077,56.787292 1.86408,10.689438 1.86664,13.40106 0.0241,25.624563 -3.63031,24.08429 -14.30544,44.41032 -32.7607,62.37822 -20.16229,19.62985 -33.78515,25.65704 -47.193922,20.88014 z M 104.5,86.8938 c 3.90185,-0.11107 7.87302,-0.795553 8.97251,-1.546531 C 114.55738,84.606271 116.18978,84 117.10006,84 c 0.91028,0 2.22368,-0.68516 2.91868,-1.522578 0.69835,-0.841464 2.05751,-1.27061 3.03829,-0.959323 3.68532,1.169678 3.18756,-2.419913 -0.55703,-4.016982 -1.92895,-0.822695 -1.92001,-0.86699 0.25166,-1.246826 1.23841,-0.216606 2.9794,0.333909 3.86885,1.223366 1.4896,1.489593 1.77294,1.476255 3.59097,-0.169042 3.4516,-3.123654 3.83827,-4.80634 2.20556,-9.598062 C 130.94849,63.400601 127,58.396293 127,60.845012 127,61.480256 127.5051,62 128.12244,62 c 0.77551,0 0.73766,0.463637 -0.12244,1.5 -1.86207,2.243654 -5.55863,1.813546 -8.5945,-1 C 117.92185,61.125 115.90581,60 114.92541,60 113.03729,60 110,62.510674 110,64.071429 110,64.582143 107.06386,65 103.47525,65 c -6.106621,0 -6.588103,-0.166628 -7.513328,-2.600153 -0.966199,-2.541296 -1.141067,-2.585746 -7.725249,-1.963662 -4.960573,0.468683 -7.443523,0.256507 -9.417726,-0.804773 -2.411693,-1.296464 -2.844823,-1.260301 -4.311131,0.359951 -1.280301,1.414717 -1.34874,1.914423 -0.318947,2.328796 1.036428,0.417043 0.996857,0.750845 -0.188869,1.593206 -0.825,0.586094 -2.039464,0.868316 -2.698808,0.627159 -1.61574,-0.59096 -2.783302,3.377366 -1.400529,4.760139 C 70.505298,69.905298 71,71.110621 71,71.979158 71,73.947555 77.734414,81 79.614046,81 c 1.253667,0 1.823244,1.230495 1.504375,3.25 -0.06513,0.4125 0.219079,0.770018 0.631579,0.794484 7.589951,0.45018 10.632848,0.938364 11.547017,1.852533 0.609906,0.609906 1.805084,0.903523 2.655951,0.652482 C 96.803836,87.298459 100.65,87.003395 104.5,86.8938 Z M 86.571429,82.428571 C 85.707143,81.564286 85,80.487431 85,80.03556 85,77.716144 93.156973,77.279289 95,79.5 c 2.968597,3.576941 -5.008499,6.348644 -8.428571,2.928571 z M 112.89508,81.75 C 113.78033,79.352066 117,78.031568 117,80.066433 c 0,1.206585 -2.84785,3.841065 -4.21778,3.901764 -0.39477,0.01749 -0.34399,-0.980697 0.11286,-2.218197 z M 77.375398,73.359568 C 76.648517,70.463445 77.990238,65.5 79.5,65.5 c 1.509762,0 2.851483,4.963445 2.124602,7.859568 C 81.260114,74.811805 80.304043,76 79.5,76 78.695957,76 77.739886,74.811805 77.375398,73.359568 Z M 129,72.04739 c -1.59669,-0.407195 -2.5,-1.343915 -2.5,-2.592475 0,-2.673478 3.36501,-2.543859 5.18673,0.19979 1.67083,2.516406 0.80877,3.28412 -2.68673,2.392685 z M 80,84.585169 C 80,84.357011 77.75,82.518686 75,80.5 72.25,78.481314 70,76.241134 70,75.52182 70,74.802507 69.325,73.954956 68.5,73.638374 66.882317,73.01761 66.590099,73.814822 67.765313,75.642705 68.431205,76.678409 79.065445,85 79.723088,85 79.87539,85 80,84.813326 80,84.585169 Z m 44.32697,-25.245474 c 0.85184,-0.85184 -1.81312,-2.690428 -9.24255,-6.376556 C 110.01485,50.447865 107.94122,50 101.36496,50 c -6.431839,0 -7.460471,0.212234 -6.05835,1.25 0.928878,0.6875 1.788035,2.4875 1.909238,4 0.210097,2.621833 0.464417,2.75 5.456802,2.75 4.21505,0 5.71144,-0.474998 7.67165,-2.43521 2.95106,-2.951055 5.46789,-2.526869 9.08339,1.530914 2.62147,2.942159 3.70489,3.438387 4.89928,2.243991 z m -33.98404,-6.05625 c 1.563612,-0.787005 2.643064,-1.630785 2.398782,-1.875067 -0.244282,-0.244282 -1.748601,0.236127 -3.342931,1.067576 -1.594329,0.831448 -3.884723,1.514497 -5.089764,1.517885 -1.205041,0.0034 -2.46491,0.449385 -2.799711,0.991103 -0.809013,1.309012 5.122169,0.166571 8.833624,-1.701497 z"
       id="path37273"
       inkscape:connector-curvature="0" />
    <path
       style="fill:#b5d333"
       d="M 91.563698,183.5099 C 80.216108,179.46729 56.566277,159.24401 46.994912,145.39854 27.539019,117.2546 23.205212,83.204781 35.531495,55.332867 43.611841,37.06177 60.530356,23.247061 82,17.389295 c 9.866698,-2.692024 28.15294,-2.477789 38.44341,0.45039 27.56653,7.844121 46.11357,28.47527 51.05077,56.787292 1.86408,10.689438 1.86664,13.40106 0.0241,25.624563 -3.63031,24.08429 -14.30544,44.41032 -32.7607,62.37822 -20.16229,19.62985 -33.78515,25.65704 -47.193922,20.88014 z M 104.5,86.8938 c 3.90185,-0.11107 7.87302,-0.795553 8.97251,-1.546531 C 114.55738,84.606271 116.15488,84 117.02251,84 c 0.86762,0 2.1327,-0.555212 2.8113,-1.233805 0.67859,-0.678593 2.64223,-1.304639 4.36364,-1.391213 2.99225,-0.150488 4.41415,-1.333966 8.34839,-6.948561 1.27738,-1.822964 1.25721,-2.64817 -0.16691,-6.827719 -1.83266,-5.378563 -6.52877,-9.372574 -17.10789,-14.550155 C 109.94843,50.443583 107.90734,50 101.24355,50 c -5.235824,0 -8.486844,0.482108 -9.893106,1.467093 -1.152013,0.806901 -4.289641,1.955394 -6.972506,2.552206 -8.253584,1.836038 -18.566139,14.110394 -17.022496,20.260757 0.471459,1.878444 5.018477,5.893398 11.265898,9.947633 0.616738,0.400228 3.926123,0.919614 7.354191,1.15419 3.428068,0.234576 6.7273,0.920952 7.331628,1.52528 0.604327,0.604327 1.794942,0.893381 2.645809,0.64234 C 96.803836,87.298459 100.65,87.003395 104.5,86.8938 Z"
       id="path37271"
       inkscape:connector-curvature="0" />
    <path
       style="fill:#909390"
       d="M 91.563698,183.5099 C 80.216108,179.46729 56.566277,159.24401 46.994912,145.39854 27.539019,117.2546 23.205212,83.204781 35.531495,55.332867 43.611841,37.06177 60.530356,23.247061 82,17.389295 c 9.866698,-2.692024 28.15294,-2.477789 38.44341,0.45039 27.56653,7.844121 46.11357,28.47527 51.05077,56.787292 1.86408,10.689438 1.86664,13.40106 0.0241,25.624563 -3.63031,24.08429 -14.30544,44.41032 -32.7607,62.37822 -20.16229,19.62985 -33.78515,25.65704 -47.193922,20.88014 z M 115.15634,90.603046 C 116.41511,89.721371 118.27681,89 119.29346,89 c 1.01665,0 4.17902,-2.001733 7.02749,-4.448296 2.84848,-2.446562 6.51486,-5.545393 8.14752,-6.886291 l 2.96846,-2.437996 -1.70954,-5.423281 c -2.58978,-8.215724 -7.66491,-13.435978 -17.5794,-18.082062 -8.38593,-3.929781 -8.43093,-3.938241 -18.527168,-3.483362 -11.050761,0.497884 -18.342067,2.996407 -25.661413,8.793437 -3.750937,2.970797 -9.960774,13.32788 -9.957621,16.607828 0.0011,1.132397 1.859252,3.026738 4.75,4.842482 2.611517,1.640352 7.534847,5.56435 10.940735,8.719995 l 6.192523,5.737536 13.491315,-0.366949 c 10.308419,-0.280378 14.031259,-0.745143 15.779979,-1.969995 z"
       id="path37269"
       inkscape:connector-curvature="0" />
    <path
       style="fill:#98c83b"
       d="M 91.886615,183.1633 C 84.212351,180.05876 69.010868,169.00981 60.000869,159.98768 31.450459,131.39881 21.730484,92.348223 34.79217,58.710199 42.578966,38.656706 58.053415,25.032804 80.399097,18.557279 87.50031,16.499429 91.386499,16 100.29798,16 c 13.62022,0 21.16826,1.72368 33.55998,7.663789 22.21434,10.648695 36.47877,32.887794 37.87924,59.056005 1.50348,28.093066 -9.98547,56.483906 -31.70999,78.359906 -19.73382,19.87142 -35.60815,27.15347 -48.140595,22.0836 z M 115.15634,90.603046 C 116.41511,89.721371 118.27681,89 119.29346,89 c 1.01665,0 4.17902,-2.001733 7.02749,-4.448296 2.84848,-2.446562 6.51486,-5.545393 8.14752,-6.886291 l 2.96846,-2.437996 -1.70954,-5.423281 c -2.58978,-8.215724 -7.66491,-13.435978 -17.5794,-18.082062 -8.38593,-3.929781 -8.43093,-3.938241 -18.527168,-3.483362 -11.050761,0.497884 -18.342067,2.996407 -25.661413,8.793437 -3.750937,2.970797 -9.960774,13.32788 -9.957621,16.607828 0.0011,1.132397 1.859252,3.026738 4.75,4.842482 2.611517,1.640352 7.534847,5.56435 10.940735,8.719995 l 6.192523,5.737536 13.491315,-0.366949 c 10.308419,-0.280378 14.031259,-0.745143 15.779979,-1.969995 z"
       id="path37267"
       inkscape:connector-curvature="0" />
    <path
       style="fill:#87c441"
       d="M 91.886615,183.1633 C 84.212351,180.05876 69.010868,169.00981 60.000869,159.98768 31.450459,131.39881 21.730484,92.348223 34.79217,58.710199 42.578966,38.656706 58.053415,25.032804 80.399097,18.557279 87.50031,16.499429 91.386499,16 100.29798,16 c 13.62022,0 21.16826,1.72368 33.55998,7.663789 22.21434,10.648695 36.47877,32.887794 37.87924,59.056005 1.50348,28.093066 -9.98547,56.483906 -31.70999,78.359906 -19.73382,19.87142 -35.60815,27.15347 -48.140595,22.0836 z M 109.98267,142.946 C 115.96281,137.79905 125,127.32602 125,125.5427 125,125.24421 123.2071,125 121.01578,125 c -2.98998,0 -4.79919,-0.7285 -7.25,-2.91929 -2.88036,-2.57477 -3.25752,-3.50175 -3.19582,-7.85468 0.1499,-10.57433 11.46468,-27.547881 23.52105,-35.284428 4.99928,-3.208031 5.03086,-3.261256 4.35257,-7.336538 C 136.93848,62.562212 130.97077,55.525593 120,49.857972 c -6.38702,-3.299605 -6.71727,-3.356885 -19,-3.295463 -11.49878,0.0575 -13.020634,0.291639 -19,2.923139 -3.575,1.573346 -7.795719,4.020217 -9.379375,5.437491 -4.095222,3.664969 -9.213429,11.95047 -9.991427,16.174409 -0.650163,3.529897 -0.552033,3.665808 5.218415,7.227532 17.566757,10.842819 30.913812,36.11338 22.902387,43.36208 -3.056803,2.76579 -8.228939,4.36705 -11.799252,3.65299 C 76.665104,124.88302 76,125.11122 76,126.35255 76,129.42492 98.231777,149 101.72113,149 c 0.67513,0 4.39283,-2.7243 8.26154,-6.054 z"
       id="path37265"
       inkscape:connector-curvature="0" />
    <path
       style="fill:#87c43d"
       d="M 91.886615,183.1633 C 84.212351,180.05876 69.010868,169.00981 60.000869,159.98768 31.450459,131.39881 21.730484,92.348223 34.79217,58.710199 42.578966,38.656706 58.053415,25.032804 80.399097,18.557279 87.50031,16.499429 91.386499,16 100.29798,16 c 13.62022,0 21.16826,1.72368 33.55998,7.663789 22.21434,10.648695 36.47877,32.887794 37.87924,59.056005 1.50348,28.093066 -9.98547,56.483906 -31.70999,78.359906 -19.73382,19.87142 -35.60815,27.15347 -48.140595,22.0836 z m 12.913045,-33.58454 c 3.24555,-1.7082 6.71416,-5.57876 4.99942,-5.57876 -0.64974,0 -0.31279,-0.6351 0.74876,-1.41132 1.06156,-0.77623 2.19802,-1.24575 2.52548,-1.04337 0.32746,0.20238 2.56361,-1.63752 4.96924,-4.08867 2.40562,-2.45115 3.79952,-4.45664 3.09755,-4.45664 -0.8381,0 -0.52735,-1.05181 0.90511,-3.06351 1.19978,-1.68492 2.72521,-2.85482 3.38986,-2.59978 0.66465,0.25505 1.67359,-0.27887 2.24208,-1.18649 0.9235,-1.47439 0.42136,-1.6147 -4.71273,-1.3169 -5.20681,0.30203 -6.06176,0.0514 -9.1054,-2.66929 -2.98114,-2.66482 -3.35116,-3.55784 -3.28907,-7.938 0.15072,-10.63218 10.8505,-26.683426 23.52444,-35.290138 5.67868,-3.856315 5.73269,-3.938981 4.68346,-7.168598 C 135.12203,60.514354 130.742,55.403562 120,49.856522 c -6.38619,-3.297753 -6.71886,-3.355428 -19,-3.294013 -11.50675,0.05754 -13.01649,0.290214 -19,2.928156 -3.575,1.576105 -7.256203,3.501897 -8.180451,4.279537 -1.485637,1.249979 -1.624962,1.200343 -1.201804,-0.428155 C 72.94026,52.100871 72.346728,51.173803 70.798197,50.5 69.534188,49.95 68.356202,48.4875 68.180449,47.25 67.909989,45.345655 68.321772,45 70.860898,45 c 2.349763,0 3.069261,0.487678 3.319551,2.25 0.469268,3.304176 4.246384,3.471501 7.169322,0.317598 C 82.658535,46.155419 84.24024,45 84.864671,45 85.495523,45 86,43.444796 86,41.5 86,38.061574 86.0731,38 90.154988,38 c 4.077055,0 4.121393,0.03712 2.36388,1.979151 -1.684601,1.861463 -1.688611,2.018482 -0.06743,2.640588 0.948024,0.363791 6.214069,0.414004 11.702322,0.111584 8.03345,-0.442667 10.08406,-0.275137 10.51943,0.859412 C 114.97062,44.365831 116.49128,45 118.05242,45 c 2.11129,0 3.17505,0.704497 4.15238,2.75 0.72778,1.523217 2.29239,2.889789 3.50729,3.063355 1.20634,0.172346 2.47813,1.210624 2.8262,2.307284 0.34807,1.096661 1.72741,2.410082 3.06521,2.918712 1.3378,0.508631 2.85779,2.043731 3.37775,3.411334 0.51996,1.367602 1.84582,3.048879 2.94635,3.73617 1.46854,0.917121 1.83799,1.898916 1.3885,3.689839 l -0.61246,2.440218 2.55676,-1.908456 c 1.68287,-1.256159 2.09425,-2.015318 1.2036,-2.221106 C 140.48064,64.729086 141.8874,62 144.10699,62 c 2.01229,0 2.04104,-0.118303 2.25682,-9.286275 0.0824,-3.499586 0.64356,-6.099929 1.42006,-6.57995 0.75067,-0.464056 1.00027,-1.532717 0.60101,-2.573183 -0.61559,-1.6042 -0.77172,-1.620731 -1.58482,-0.167804 -0.75264,1.344902 -2.05231,1.504792 -7.85101,0.965859 C 132.31063,43.741671 132,43.808624 132,45.856401 132,47.286735 132.62474,48 133.87756,48 c 1.03265,0 2.43775,0.675 3.12244,1.5 3.12708,3.767897 -5.86012,0.52202 -9.40735,-3.397621 C 125.69734,44.008082 125.70215,44 128.84501,44 131.91237,44 132,43.876394 132,39.54969 c 0,-2.909609 -0.51761,-4.739978 -1.49511,-5.287015 -0.82231,-0.460188 -5.07536,-0.529028 -9.45123,-0.152977 -4.37587,0.37605 -10.34057,0.336347 -13.25489,-0.08823 L 102.5,33.249512 l 4.25,-0.124756 c 6.16379,-0.180934 5.21132,-1.867856 -1.5,-2.656658 -3.1625,-0.371699 -7.056637,-1.304079 -8.653638,-2.071957 -5.654782,-2.71896 -10.547573,-1.591748 -9.811202,2.260327 0.51284,2.682752 -0.969761,4.30092 -3.965609,4.328219 -0.987498,0.009 -1.812219,-0.912498 -2,-2.234687 C 80.560797,30.92808 79.834098,30.482454 77,30.407776 c -2.090152,-0.05507 -3.399297,-0.558591 -3.25,-1.25 C 73.8875,28.520999 73.796174,28 73.547053,28 72.451484,28 67.293024,30.575698 65.115141,32.210182 62.78409,33.959618 62.778449,34 64.865141,34 66.07585,34 67,34.635743 67,35.468615 c 0,1.475276 -2.253496,1.174954 -4.587417,-0.611363 -0.655797,-0.501928 -1.967101,0.104102 -3.303679,1.526825 l -2.216261,2.359102 2.70789,-0.517646 c 2.607165,-0.498391 2.682725,-0.391822 2.031357,2.865018 -1.223316,6.116577 -5.628921,7.794952 -7.461002,2.842368 C 53.49601,42.10855 52.938442,42.710804 50.069573,48.36293 46.817982,54.769079 46.564544,58 49.313628,58 c 1.789461,0 4.853887,3.398888 4.478092,4.966847 -0.164072,0.684569 1.830257,1.910895 4.557719,2.802573 4.827838,1.578346 4.846812,1.601829 4.25993,5.271987 -0.577764,3.613142 -0.472886,3.758563 5.264888,7.300118 12.878595,7.949122 24.091541,23.936685 24.915565,35.524945 0.350043,4.92266 0.104661,5.89997 -1.944615,7.74501 -3.35047,3.01655 -7.830744,4.25719 -13.191695,3.65293 C 75.094081,124.97593 73,125.09344 73,125.52556 c 0,1.768 5.286828,7.62838 5.935276,6.57916 0.424323,-0.68656 1.969228,0.23545 4.121723,2.45988 2.459753,2.54196 2.871844,3.34933 1.443001,2.82717 l -2,-0.7309 2,2.27974 c 3.996381,4.55535 9.647152,8.43933 10.431625,7.17002 0.557175,-0.90153 1.068569,-0.81532 2.029091,0.34204 1.048102,1.26288 1.042698,1.54733 -0.0294,1.54733 -1.708283,0 2.103787,2.92502 3.868344,2.9682 0.71481,0.0175 2.51481,-0.60776 4,-1.38944 z M 64.768822,58.248613 c -2.179724,-4.64136 -0.640594,-7.045256 2.147955,-3.354793 1.14666,1.517531 2.274678,2.105888 3.08148,1.607257 0.699978,-0.43261 0.227099,0.627671 -1.050843,2.35618 -1.277942,1.728508 -2.351405,3.128089 -2.385472,3.110178 -0.03407,-0.01791 -0.840972,-1.691381 -1.79312,-3.718822 z m 76.838168,1.1696 C 140.71405,57.091249 140.86842,54 141.87756,54 c 1.80361,0 2.88504,2.518647 2.0395,4.75 -1.00881,2.662197 -1.49135,2.801776 -2.31007,0.668213 z m -81.825715,9.425446 c -2.977576,-1.889421 -3.866682,-0.909499 -2.163371,2.384343 l 1.669265,3.228001 0.88769,-2.399656 c 0.621422,-1.679864 0.503364,-2.643529 -0.393584,-3.212688 z M 142.70225,37.695875 c -1.21124,-1.267269 -3.77189,-3.3992 -5.69033,-4.737624 l -3.48809,-2.4335 3.36638,4.189008 c 2.94787,3.668228 4.38931,4.687448 7.31204,5.17024 0.38624,0.0638 -0.28876,-0.920855 -1.5,-2.188124 z m -21.3964,-9.781379 c 2.956,-0.737607 4.28966,-0.610791 5.9725,0.567918 1.19167,0.834672 2.85403,1.499569 3.69416,1.477548 2.04142,-0.05351 -3.06998,-2.770772 -8.29378,-4.409041 -2.2983,-0.720783 -4.96623,-1.637752 -5.92873,-2.037707 -1.26327,-0.524936 -1.75,-0.257059 -1.75,0.963131 0,0.930035 -0.56224,1.484169 -1.25,1.231988 -0.6875,-0.252083 -1.14014,-0.956671 -1.00586,-1.565752 0.24274,-1.101069 -0.97739,-1.506219 -7.82659,-2.598847 -2.79848,-0.446431 -3.9825,-0.129443 -5.410537,1.448516 -1.005446,1.111006 -1.594893,2.253203 -1.309881,2.538215 0.285012,0.285012 3.547798,0.801112 7.250638,1.146888 4.4544,0.415958 6.9178,1.111722 7.28024,2.056234 0.35777,0.932329 1.28049,1.202588 2.6599,0.779063 1.16165,-0.356668 3.82472,-1.075837 5.91794,-1.598154 z m -34.566716,-2.05363 c 0.626524,-0.626524 3.304024,-1.75547 5.95,-2.508768 L 97.5,21.982464 l -5,0.590431 c -2.75,0.324738 -7.25,1.080426 -10,1.679307 -4.407161,0.95977 -4.703581,1.175404 -2.5,1.818657 3.769528,1.100372 5.482134,1.047007 6.739134,-0.209993 z"
       id="path37263"
       inkscape:connector-curvature="0" />
    <path
       style="fill:#88b644"
       d="M 91.886615,183.1633 C 84.212351,180.05876 69.010868,169.00981 60.000869,159.98768 31.450459,131.39881 21.730484,92.348223 34.79217,58.710199 42.578966,38.656706 58.053415,25.032804 80.399097,18.557279 87.50031,16.499429 91.386499,16 100.29798,16 c 13.62022,0 21.16826,1.72368 33.55998,7.663789 22.21434,10.648695 36.47877,32.887794 37.87924,59.056005 1.50348,28.093066 -9.98547,56.483906 -31.70999,78.359906 -19.73382,19.87142 -35.60815,27.15347 -48.140595,22.0836 z m 12.429125,-33.30344 c 3.06654,-1.60066 17.94998,-16.3104 21.50179,-21.25084 l 2.95408,-4.10902 -5.77677,0.33332 c -5.24023,0.30237 -6.08876,0.0544 -9.13581,-2.66929 -2.98114,-2.66482 -3.35116,-3.55784 -3.28907,-7.938 0.11079,-7.81521 5.8469,-18.774883 14.14176,-27.019902 3.73356,-3.711115 8.91755,-8.1856 11.51998,-9.943299 4.23131,-2.857848 4.67045,-3.502078 4.1525,-6.091805 -0.48176,-2.408814 -0.0776,-3.253167 2.40262,-5.019225 2.31436,-1.647974 3.14106,-3.185224 3.69328,-6.867666 0.39131,-2.609436 1.5259,-5.888184 2.52131,-7.286106 1.64533,-2.31066 1.67702,-2.857539 0.34865,-6.01681 -2.07239,-4.928755 -11.27069,-13.326843 -18.89863,-17.254519 -5.29998,-2.728999 -14.68525,-5.505583 -22.62088,-6.692269 -6.67199,-0.997724 -9.041746,-0.886746 -18.22106,0.853311 -19.826506,3.75837 -33.338657,12.68365 -40.088585,26.480004 l -2.793802,5.710327 1.886448,3.508098 c 1.037547,1.929454 2.808584,4.113052 3.935637,4.85244 1.127054,0.739389 2.888856,3.206393 3.915116,5.482231 1.499845,3.326063 3.059741,4.763155 7.950812,7.324878 8.716708,4.56542 20.386746,16.474954 24.615583,25.120752 4.493115,9.18611 5.210274,17.18767 1.814508,20.24501 -3.35047,3.01655 -7.830744,4.25719 -13.191695,3.65293 C 74.52797,124.91212 73,125.11454 73,125.88091 c 0,1.8663 15.060795,17.06692 21,21.19497 6.02838,4.19003 7.07891,4.47354 10.31574,2.78398 z"
       id="path37261"
       inkscape:connector-curvature="0" />
    <path
       style="fill:#79c142"
       d="M 91.886615,183.1633 C 84.212351,180.05876 69.010868,169.00981 60.000869,159.98768 31.450459,131.39881 21.730484,92.348223 34.79217,58.710199 42.578966,38.656706 58.053415,25.032804 80.399097,18.557279 87.50031,16.499429 91.386499,16 100.29798,16 c 13.62022,0 21.16826,1.72368 33.55998,7.663789 22.21434,10.648695 36.47877,32.887794 37.87924,59.056005 1.50348,28.093066 -9.98547,56.483906 -31.70999,78.359906 -19.73382,19.87142 -35.60815,27.15347 -48.140595,22.0836 z m 12.429125,-33.30344 c 3.18927,-1.66473 18.01412,-16.39881 21.78987,-21.65645 l 3.24217,-4.51464 -3.96192,0.63354 c -8.80163,1.40744 -14.84461,-2.98205 -14.54741,-10.56693 0.16315,-4.16368 4.83502,-16.050214 7.8133,-19.879198 4.64923,-5.977222 14.27362,-14.673049 18.49634,-16.7118 4.56546,-2.204235 4.62773,-2.298055 3.50282,-5.278276 -1.06109,-2.811134 -0.91269,-3.230845 2.01889,-5.71013 2.33268,-1.972776 3.34941,-3.858498 3.86912,-7.175976 0.38772,-2.475 1.53678,-5.675795 2.55347,-7.112878 1.01669,-1.437083 1.66418,-2.797221 1.43887,-3.022528 -0.22531,-0.225307 -0.64735,-1.720521 -0.93788,-3.322697 C 148.17637,37.727578 126.26336,22.920252 115.68017,22.625652 113.19751,22.556543 110.82884,22.1625 110.41646,21.75 109.07573,20.408893 89.983399,20.949545 84.008424,22.497817 72.314341,25.528058 63.30576,30.827291 55.660743,39.173134 52.556227,42.562243 49.073899,47.28162 47.922237,49.660637 l -2.093932,4.325486 2.292851,3.756939 c 1.261068,2.066316 3.481439,4.886217 4.934157,6.266448 1.452718,1.38023 3.227359,4.130208 3.943645,6.111062 1.084373,2.998782 2.323151,4.066481 7.40169,6.379495 C 68.722364,78.468386 72.68585,81.496726 78,86.89078 c 8.306267,8.431163 12.214491,14.89161 13.909807,22.99345 0.969583,4.63359 0.880138,5.88721 -0.641576,8.9921 -2.488217,5.07694 -5.431041,6.32478 -13.128778,5.56697 l -6.360546,-0.62616 1.81071,3.06528 c 4.008257,6.78544 23.37431,23.90118 27.226123,24.06248 0.72366,0.0303 2.29866,-0.45796 3.5,-1.08504 z"
       id="path37259"
       inkscape:connector-curvature="0" />
    <path
       style="fill:#7bc13e"
       d="M 91.886615,183.1633 C 84.212351,180.05876 69.010868,169.00981 60.000869,159.98768 31.450459,131.39881 21.730484,92.348223 34.79217,58.710199 42.578966,38.656706 58.053415,25.032804 80.399097,18.557279 87.50031,16.499429 91.386499,16 100.29798,16 c 13.62022,0 21.16826,1.72368 33.55998,7.663789 22.21434,10.648695 36.47877,32.887794 37.87924,59.056005 1.50348,28.093066 -9.98547,56.483906 -31.70999,78.359906 -19.73382,19.87142 -35.60815,27.15347 -48.140595,22.0836 z m 12.672255,-31.66575 c 1.91236,-1.48019 1.91149,-1.49389 -0.0589,-0.9245 -1.8154,0.52462 -1.83775,0.4737 -0.24208,-0.55167 0.96686,-0.62129 2.13549,-0.89627 2.59697,-0.61106 0.46149,0.28521 2.14542,-0.88503 3.74209,-2.60054 1.59666,-1.71551 2.34052,-2.79795 1.65302,-2.40542 -2.36835,1.35219 -1.23021,0.0189 5.4915,-6.43325 3.70783,-3.55911 4.97457,-4.56687 2.81498,-2.23947 -2.15959,2.32741 -3.67175,4.48642 -3.36035,4.79782 0.81726,0.81727 7.84688,-7.65085 7.20856,-8.68368 -0.29406,-0.4758 0.39458,-2.04643 1.53033,-3.49029 2.21014,-2.80975 2.72398,-2.45535 1.0298,0.71025 -1.83782,3.43399 -0.23181,2.05195 1.9885,-1.7112 l 2.15088,-3.64546 -4.96721,0.58829 c -9.9465,1.17801 -15.60499,-2.72117 -15.29854,-10.54199 0.16315,-4.16368 4.83502,-16.050214 7.8133,-19.879198 4.68588,-6.024345 14.28999,-14.680961 18.59271,-16.758452 2.60945,-1.259927 5.04148,-2.77137 5.40451,-3.358762 0.38986,-0.630813 0.18746,-0.775909 -0.49446,-0.35446 C 141.51953,73.796948 141,73.903281 141,73.640804 c 0,-0.262476 -0.30925,-1.301533 -0.68723,-2.309017 -0.60079,-1.601388 -0.47853,-1.662083 0.97202,-0.48256 1.42463,1.158436 2.07961,1.017029 4.63191,-1 3.87491,-3.062275 4.03853,-5.125245 0.3333,-4.202405 -2.28707,0.569626 -2.55861,0.44658 -1.61306,-0.730948 0.62531,-0.778731 1.46768,-3.440874 1.87193,-5.915874 0.40425,-2.475 1.56683,-5.675795 2.58352,-7.112878 1.01669,-1.437083 1.66418,-2.797221 1.43887,-3.022528 -0.22531,-0.225307 -0.64735,-1.720521 -0.93788,-3.322697 C 148.17637,37.727578 126.26336,22.920252 115.68017,22.625652 113.19751,22.556543 110.82884,22.1625 110.41646,21.75 109.07573,20.408893 89.983399,20.949545 84.008424,22.497817 68.365968,26.551185 53.775396,37.569624 47.854649,49.800255 43.994248,57.77478 43.971222,59.909519 47.686794,65.362212 49.509057,68.036429 51,70.791415 51,71.484404 c 0,0.703378 1.82501,1.55181 4.13128,1.920598 7.7267,1.235549 14.984785,5.521598 22.86872,13.50445 8.302121,8.406285 12.213019,14.865898 13.909807,22.974778 0.969583,4.63359 0.880138,5.88721 -0.641576,8.9921 -2.537246,5.17697 -5.352939,6.28684 -14.018231,5.5256 -7.637817,-0.67097 -8.718631,-0.041 -5.275529,3.07497 1.085958,0.98278 2.228089,2.58595 2.538067,3.5626 0.309978,0.97666 1.285116,2.05261 2.166973,2.39101 1.336784,0.51297 1.393231,0.36206 0.339488,-0.90762 -2.544763,-3.06625 -0.315766,-1.40841 3.528053,2.62403 2.174122,2.28081 3.345552,3.80151 2.60318,3.37933 -1.091155,-0.62053 -1.132313,-0.36129 -0.214816,1.35307 0.624223,1.16638 1.595676,2.12068 2.158785,2.12068 0.563108,0 0.684095,-0.5625 0.268861,-1.25 -0.415235,-0.6875 0.806344,0.1 2.71462,1.75 1.908276,1.65 4.583956,3.8005 5.945956,4.77889 2.015669,1.44794 2.070011,1.58747 0.292103,0.75 -3.615194,-1.70293 -4.030764,-1.15253 -0.674851,0.8938 1.727489,1.05336 3.441547,2.40168 3.809017,2.99626 0.963544,1.55904 4.847753,1.3288 7.108963,-0.4214 z M 54,68.276424 c -2.821208,-1.063935 -7.000669,-6.607413 -6.941193,-9.206532 0.05457,-2.38484 0.144583,-2.433724 1.25,-0.678882 0.655156,1.040055 2.653693,3.387555 4.441193,5.216667 1.7875,1.829111 3.25,3.790656 3.25,4.35899 0,0.568333 -0.1125,0.997807 -0.25,0.954386 -0.1375,-0.04342 -0.925,-0.333504 -1.75,-0.644629 z m 35,77.346016 c 0,-0.20765 -0.7875,-0.99515 -1.75,-1.75 -1.586056,-1.24387 -1.621426,-1.2085 -0.377555,0.37756 C 88.178814,145.91575 89,146.44548 89,145.62244 Z m 65,-90.096416 c 0,-6.348256 -1.21996,-7.209967 -2.72714,-1.926307 C 150.50405,56.294873 149.64998,59.85 149.37492,61.5 l -0.50012,3 2.5626,-2.805764 C 153.12316,59.848518 154,57.737947 154,55.526024 Z"
       id="path37257"
       inkscape:connector-curvature="0" />
    <path
       style="fill:#8db03c"
       d="M 91.886615,183.1633 C 84.212351,180.05876 69.010868,169.00981 60.000869,159.98768 31.450459,131.39881 21.730484,92.348223 34.79217,58.710199 42.578966,38.656706 58.053415,25.032804 80.399097,18.557279 87.50031,16.499429 91.386499,16 100.29798,16 c 13.62022,0 21.16826,1.72368 33.55998,7.663789 22.21434,10.648695 36.47877,32.887794 37.87924,59.056005 1.50348,28.093066 -9.98547,56.483906 -31.70999,78.359906 -19.73382,19.87142 -35.60815,27.15347 -48.140595,22.0836 z m 14.713345,-33.01158 c 6.06269,-4.42771 19.66584,-18.24218 22.2112,-22.55623 l 2.29304,-3.88641 -4.96721,0.58829 c -9.9465,1.17801 -15.60499,-2.72117 -15.29854,-10.54199 0.16315,-4.16368 4.83502,-16.050214 7.8133,-19.879198 C 122.87812,88.442597 132.77377,79.363116 136.5,77.5 140.1078,75.696102 149,67.515892 149,66.000869 149,65.664098 150.125,63.863708 151.5,62 154.85311,57.45512 154.71486,52.992902 151.02093,46.536575 144.37966,34.928848 128.30742,24.293606 114,22.039274 89.533435,18.184226 69.166442,24.190033 55.316809,39.343739 c -5.23992,5.733307 -9.119268,12.538351 -10.28345,18.03894 -0.534188,2.523956 -0.02912,4.042816 2.653435,7.979533 C 49.509057,68.036429 51,70.791415 51,71.484404 c 0,0.703378 1.82501,1.55181 4.13128,1.920598 7.7267,1.235549 14.984785,5.521598 22.86872,13.50445 8.302121,8.406285 12.213019,14.865898 13.909807,22.974778 0.969583,4.63359 0.880138,5.88721 -0.641576,8.9921 -2.537246,5.17697 -5.352939,6.28684 -14.018231,5.5256 -3.9875,-0.3503 -7.25,-0.3115 -7.25,0.0862 0,2.22273 16.813822,20.13044 21.665146,23.07465 2.29083,1.39028 4.70843,3.1824 5.372445,3.98248 1.856821,2.23734 5.272259,1.73959 9.562369,-1.39357 z"
       id="path37255"
       inkscape:connector-curvature="0" />
    <path
       style="fill:#67b645"
       d="M 91.886615,183.1633 C 84.212351,180.05876 69.010868,169.00981 60.000869,159.98768 31.450459,131.39881 21.730484,92.348223 34.79217,58.710199 42.578966,38.656706 58.053415,25.032804 80.399097,18.557279 87.50031,16.499429 91.386499,16 100.29798,16 c 13.62022,0 21.16826,1.72368 33.55998,7.663789 22.21434,10.648695 36.47877,32.887794 37.87924,59.056005 1.50348,28.093066 -9.98547,56.483906 -31.70999,78.359906 -19.73382,19.87142 -35.60815,27.15347 -48.140595,22.0836 z m 14.713345,-33.01158 c 5.97329,-4.36242 19.65032,-18.21587 22.12537,-22.41077 L 130.93255,124 h -7.0432 c -6.51905,0 -7.27031,-0.22712 -10.09508,-3.05189 -2.79438,-2.79437 -2.99922,-3.44831 -2.4276,-7.75 1.48225,-11.15463 12.68317,-27.232914 23.91092,-34.322759 C 140.05245,75.860235 149,67.465562 149,66.000869 149,65.664098 150.125,63.863708 151.5,62 154.85311,57.45512 154.71486,52.992902 151.02093,46.536575 144.37966,34.928848 128.30742,24.293606 114,22.039274 89.533435,18.184226 69.166442,24.190033 55.316809,39.343739 c -5.23992,5.733307 -9.119268,12.538351 -10.28345,18.03894 -0.534188,2.523956 -0.02912,4.042816 2.653435,7.979533 C 49.509057,68.036429 51,70.791415 51,71.484404 c 0,0.703407 1.825174,1.551837 4.131866,1.920692 C 70.46519,75.856993 92,99.674991 92,114.18211 c 0,4.02874 -0.476411,5.35491 -2.646023,7.36564 -2.808895,2.6032 -4.466796,2.90843 -13.603977,2.50458 -3.1625,-0.13978 -5.75,0.0638 -5.75,0.45241 0,2.20821 16.837455,20.1282 21.665146,23.05807 2.29083,1.39028 4.70843,3.1824 5.372445,3.98248 1.856821,2.23734 5.272259,1.73959 9.562369,-1.39357 z"
       id="path37253"
       inkscape:connector-curvature="0" />
    <path
       style="fill:#6eb73d"
       d="M 91.886615,183.1633 C 84.212351,180.05876 69.010868,169.00981 60.000869,159.98768 31.450459,131.39881 21.730484,92.348223 34.79217,58.710199 42.578966,38.656706 58.053415,25.032804 80.399097,18.557279 87.50031,16.499429 91.386499,16 100.29798,16 c 13.62022,0 21.16826,1.72368 33.55998,7.663789 22.21434,10.648695 36.47877,32.887794 37.87924,59.056005 1.50348,28.093066 -9.98547,56.483906 -31.70999,78.359906 -19.73382,19.87142 -35.60815,27.15347 -48.140595,22.0836 z m 23.501225,-19.76232 c 9.85429,-6.60034 27.13053,-24.30034 32.15617,-32.94491 11.72534,-20.16868 16.50128,-41.243596 13.47426,-59.458249 C 159.86243,64.042694 155.71978,52.152195 154.05103,51 153.65274,50.725 152.11822,48.418216 150.64097,45.873813 144.22213,34.818012 127.95835,24.238606 114,22.039274 89.508275,18.180262 69.168488,24.187795 55.281601,39.382262 49.923839,45.244507 45.010988,54.217113 44.984687,58.188075 44.97381,59.830316 44.725171,60.114788 44.126319,59.170148 42.8463,57.151022 39.866356,70.034665 39.308442,80 c -0.555892,9.929222 2.083673,25.2161 6.049255,35.03389 8.083285,20.01219 25.898158,39.8156 46.044253,51.18381 4.439064,2.50491 5.859126,2.81668 10.98589,2.41186 4.95848,-0.39152 7.01046,-1.21683 13,-5.22858 z M 96.5,165 c 0.339919,-0.55 1.743034,-1 3.118034,-1 1.412026,0 2.231036,0.43519 1.881966,1 -0.33992,0.55 -1.743034,1 -3.118034,1 -1.412023,0 -2.231037,-0.43519 -1.881966,-1 z m -8.282302,-5.1545 c 0.246419,-0.74002 1.25007,-1.50098 2.230336,-1.691 1.140016,-0.221 1.620844,0.13937 1.334268,1 -0.246419,0.74002 -1.25007,1.50098 -2.230336,1.691 -1.140016,0.221 -1.620844,-0.13937 -1.334268,-1 z m 8.796685,-7.33019 c -1.283835,-1.36658 -3.862862,-2.77146 -5.731171,-3.12196 -2.167824,-0.40668 -3.972237,-1.58816 -4.986943,-3.26531 -0.874509,-1.44542 -3.886424,-4.72689 -6.693143,-7.29216 -2.806719,-2.56526 -4.724315,-5.04026 -4.261324,-5.5 0.462991,-0.45973 3.612991,2.14945 7,5.79818 3.387009,3.64873 8.032871,7.793 10.324138,9.20948 2.291267,1.41648 4.455325,3.04365 4.809017,3.61594 1.162551,1.88105 5.157853,1.08954 9.125003,-1.80776 5.97329,-4.36242 19.65032,-18.21587 22.12537,-22.41077 L 130.93255,124 h -7.0432 c -6.51905,0 -7.27031,-0.22712 -10.09508,-3.05189 -2.79438,-2.79437 -2.99922,-3.44831 -2.4276,-7.75 0.91776,-6.90654 6.96369,-18.360818 13.30905,-25.214563 5.85639,-6.325597 16.60012,-13.685866 19.25605,-13.191849 1.36679,0.254229 1.37663,0.16324 0.0766,-0.708359 -1.14212,-0.765723 -1.21645,-1.27525 -0.31722,-2.174481 1.35077,-1.350771 4.74119,-0.417396 3.83134,1.054762 -0.33235,0.537761 0.65163,1.250947 2.18662,1.58486 7.75601,1.687191 9.71914,4.953115 9.12669,15.183518 -0.25803,4.455755 -1.21762,8.476222 -2.80874,11.768002 -3.16274,6.54323 -12.12283,15.41035 -19.02705,18.82963 -3.025,1.49811 -5.54963,3.04931 -5.61029,3.44711 -0.75299,4.93779 -2.14062,7.49198 -5.56545,10.24424 -2.17669,1.74924 -5.30624,5.04762 -6.95455,7.32973 -1.6483,2.28211 -4.52434,5.077 -6.39118,6.21087 -1.86685,1.13386 -4.34588,3.27136 -5.50898,4.75 -2.73103,3.47194 -6.80649,3.55535 -9.955167,0.20373 z m -35.376735,-16.211 C 61.060628,135.72729 63.684325,130 64.52568,130 64.786556,130 65,131.30186 65,132.89301 c 0,2.65988 -2.042022,4.73164 -3.362352,3.4113 z M 71.404988,127.75 69.5,125.5 l 2.25,1.90499 C 73.864445,129.19521 74.455241,130 73.654988,130 c -0.189757,0 -1.202257,-1.0125 -2.25,-2.25 z M 74,123.65319 C 56.173455,119.68566 42.002766,103.98554 42.000789,88.20034 41.999484,77.78355 45.362444,74 54.62258,74 68.721757,74 92,99.02497 92,114.18211 c 0,4.02874 -0.476411,5.35491 -2.646023,7.36564 -1.455312,1.34874 -3.367812,2.45839 -4.25,2.4659 -0.882187,0.008 -2.503977,0.20491 -3.603977,0.43865 -1.1,0.23375 -4.475,-0.12585 -7.5,-0.79911 z m -20.856763,-5.5435 c -0.824151,-0.52221 -0.966771,-1.10072 -0.363307,-1.47368 0.546401,-0.33769 1.549545,0.0561 2.229208,0.875 1.349379,1.6259 0.291135,1.96544 -1.865901,0.59868 z M 46.555295,70.031468 C 46.394356,69.73916 45.937368,67.7 45.539766,65.5 l -0.722911,-4 1.942479,2.5 c 1.068364,1.375 2.460473,3.484601 3.093576,4.688002 1.014874,1.92907 0.905177,2.169477 -0.92695,2.031468 -1.142926,-0.08609 -2.209725,-0.395695 -2.370665,-0.688002 z M 149,66.19428 C 149,65.751133 150.125,63.863708 151.5,62 153.76298,58.932706 154,58.825711 154,60.871462 154,63.952609 152.24214,67 150.46482,67 149.65917,67 149,66.637426 149,66.19428 Z"
       id="path37251"
       inkscape:connector-curvature="0" />
    <path
       style="fill:#6d736d"
       d="M 91.886615,183.1633 C 84.212351,180.05876 69.010868,169.00981 60.000869,159.98768 31.450459,131.39881 21.730484,92.348223 34.79217,58.710199 42.578966,38.656706 58.053415,25.032804 80.399097,18.557279 87.50031,16.499429 91.386499,16 100.29798,16 c 13.62022,0 21.16826,1.72368 33.55998,7.663789 22.21434,10.648695 36.47877,32.887794 37.87924,59.056005 1.50348,28.093066 -9.98547,56.483906 -31.70999,78.359906 -19.73382,19.87142 -35.60815,27.15347 -48.140595,22.0836 z m 23.501225,-19.76232 c 9.85429,-6.60034 27.13053,-24.30034 32.15617,-32.94491 C 156.35332,115.30323 160.6454,101.93455 161.65631,86.5 162.4427,74.493353 160.34837,63.705939 155.09332,52.695528 147.99881,37.831083 137.49909,28.913121 120.5,23.313627 c -11.56981,-3.811092 -28.430188,-3.811092 -40,0 -20.567009,6.774766 -32.701207,19.291272 -38.481076,39.693489 -4.453231,15.719349 -3.154951,35.949931 3.338773,52.026774 8.083285,20.01219 25.898158,39.8156 46.044253,51.18381 4.439064,2.50491 5.859126,2.81668 10.98589,2.41186 4.95848,-0.39152 7.01046,-1.21683 13,-5.22858 z M 74,123.65319 C 56.173455,119.68566 42.002766,103.98554 42.000789,88.20034 41.999504,77.942485 45.385616,74 54.19714,74 68.592442,74 92,98.880789 92,114.18211 c 0,4.02874 -0.476411,5.35491 -2.646023,7.36564 -1.455312,1.34874 -3.367812,2.45839 -4.25,2.4659 -0.882187,0.008 -2.503977,0.20491 -3.603977,0.43865 -1.1,0.23375 -4.475,-0.12585 -7.5,-0.79911 z m 39.9248,-2.57455 c -2.93572,-2.93571 -3.13403,-3.54662 -2.55813,-7.88053 2.20573,-16.599118 22.55004,-38.582725 35.70565,-38.582725 9.41995,0 12.41592,3.849969 11.76347,15.116613 -0.50655,8.747264 -3.58555,15.125382 -10.78067,22.332032 -7.26956,7.28122 -15.02784,11.05796 -24.04022,11.70279 -6.71213,0.48025 -6.99777,0.40415 -10.0901,-2.68818 z"
       id="path37249"
       inkscape:connector-curvature="0" />
    <path
       style="fill:#6b9038"
       d="M 88.418337,180.95704 C 61.287338,166.68531 39.98372,140.23073 32.305945,111.27735 28.815226,98.113622 28.605816,80.36448 31.803652,68.704084 39.001055,42.459907 55.736999,25.677687 82,18.368941 c 10.021483,-2.788884 29.19582,-2.544979 38.96476,0.495647 25.14791,7.827403 41.83346,25.01414 48.6734,50.135412 2.76496,10.154957 2.33015,28.747216 -0.96534,41.27735 -2.92898,11.1366 -9.42968,25.52922 -15.70362,34.76801 -9.05176,13.3293 -28.69757,31.09586 -40.4692,36.59805 -7.57975,3.54286 -16.526538,3.28786 -24.081663,-0.68637 z m 26.969503,-17.55606 c 9.85429,-6.60034 27.13053,-24.30034 32.15617,-32.94491 C 156.35332,115.30323 160.6454,101.93455 161.65631,86.5 162.4427,74.493353 160.34837,63.705939 155.09332,52.695528 147.99881,37.831083 137.49909,28.913121 120.5,23.313627 c -11.56981,-3.811092 -28.430188,-3.811092 -40,0 -20.567009,6.774766 -32.701207,19.291272 -38.481076,39.693489 -4.453231,15.719349 -3.154951,35.949931 3.338773,52.026774 8.083285,20.01219 25.898158,39.8156 46.044253,51.18381 4.439064,2.50491 5.859126,2.81668 10.98589,2.41186 4.95848,-0.39152 7.01046,-1.21683 13,-5.22858 z M 74,123.65319 C 56.173455,119.68566 42.002766,103.98554 42.000789,88.20034 41.999504,77.942485 45.385616,74 54.19714,74 68.592442,74 92,98.880789 92,114.18211 c 0,4.02874 -0.476411,5.35491 -2.646023,7.36564 -1.455312,1.34874 -3.367812,2.45839 -4.25,2.4659 -0.882187,0.008 -2.503977,0.20491 -3.603977,0.43865 -1.1,0.23375 -4.475,-0.12585 -7.5,-0.79911 z m 39.9248,-2.57455 c -2.93572,-2.93571 -3.13403,-3.54662 -2.55813,-7.88053 2.20573,-16.599118 22.55004,-38.582725 35.70565,-38.582725 9.41995,0 12.41592,3.849969 11.76347,15.116613 -0.50655,8.747264 -3.58555,15.125382 -10.78067,22.332032 -7.26956,7.28122 -15.02784,11.05796 -24.04022,11.70279 -6.71213,0.48025 -6.99777,0.40415 -10.0901,-2.68818 z"
       id="path37247"
       inkscape:connector-curvature="0" />
    <path
       style="fill:#4c8b35"
       d="M 88.418337,180.95704 C 61.287338,166.68531 39.98372,140.23073 32.305945,111.27735 28.815226,98.113622 28.605816,80.36448 31.803652,68.704084 39.001055,42.459907 55.736999,25.677687 82,18.368941 c 10.021483,-2.788884 29.19582,-2.544979 38.96476,0.495647 25.14791,7.827403 41.83346,25.01414 48.6734,50.135412 2.76496,10.154957 2.33015,28.747216 -0.96534,41.27735 -2.92898,11.1366 -9.42968,25.52922 -15.70362,34.76801 -9.05176,13.3293 -28.69757,31.09586 -40.4692,36.59805 -7.57975,3.54286 -16.526538,3.28786 -24.081663,-0.68637 z m 24.687743,-15.9674 c 22.87308,-14.43292 39.1057,-36.02468 46.09559,-61.3139 C 162.18105,92.896446 162.37349,73.978973 159.61036,63.5 154.70399,44.89288 146.59606,34.326928 131.57686,26.96775 120.36233,21.472805 112.56125,19.659963 100,19.62981 91.854475,19.610258 87.818232,20.118007 82,21.894166 64.867443,27.124302 51.903396,36.965083 46.29132,49 c -4.523611,9.700738 -7.700875,27.197101 -6.98721,38.476735 0.665026,10.510871 3.559524,22.775365 7.346749,31.129465 8.442408,18.62278 25.511247,36.75963 44.849141,47.65539 6.97717,3.93122 14.01695,3.51679 21.60608,-1.27195 z M 72,122.61282 C 64.255268,120.8955 60.42525,118.61044 53.227681,111.41287 45.792575,103.97776 42.853536,97.961609 42.286311,89.016111 41.373745,74.624359 50.385274,70.401564 65.260564,78.250395 c 15.287203,8.066174 29.962907,31.615415 25.309907,40.613325 -2.53503,4.90221 -8.20651,6.0472 -18.570471,3.7491 z m 42.45151,-2.0704 c -2.4173,-2.41731 -2.64857,-3.23075 -2.1398,-7.52648 C 114.23222,96.800227 134.67226,75 147.95572,75 c 8.31162,0 11.6005,4.481867 10.78097,14.691567 -0.69586,8.668928 -4.42447,15.878123 -11.69232,22.606873 -7.85515,7.27248 -13.52976,9.90473 -22.60873,10.48738 -6.87217,0.44103 -7.4236,0.31713 -9.98413,-2.2434 z"
       id="path37245"
       inkscape:connector-curvature="0" />
    <path
       style="fill:#502c8e"
       d="M 88.418337,180.95704 C 61.287338,166.68531 39.98372,140.23073 32.305945,111.27735 28.815226,98.113622 28.605816,80.36448 31.803652,68.704084 39.001055,42.459907 55.736999,25.677687 82,18.368941 c 10.021483,-2.788884 29.19582,-2.544979 38.96476,0.495647 25.14791,7.827403 41.83346,25.01414 48.6734,50.135412 2.76496,10.154957 2.33015,28.747216 -0.96534,41.27735 -2.92898,11.1366 -9.42968,25.52922 -15.70362,34.76801 -9.05176,13.3293 -28.69757,31.09586 -40.4692,36.59805 -7.57975,3.54286 -16.526538,3.28786 -24.081663,-0.68637 z m 20.175753,-11.5608 c 9.77775,-4.08541 26.00765,-18.08429 35.36757,-30.50585 15.18626,-20.15368 22.77437,-48.255353 18.7515,-69.443906 C 158.75924,48.621156 148.72451,35.085598 130.93679,26.584294 119.09366,20.924091 107.69761,18.49554 96.890688,19.32891 86.176371,20.155139 80.888906,21.590156 70.5,26.491336 51.445784,35.480555 42.671505,47.52096 38.429294,70.5 c -4.061965,22.00269 3.24356,49.26886 18.344333,68.46594 8.628553,10.96918 19.817965,20.66457 32.794428,28.41566 6.788302,4.05479 12.656185,4.67613 19.026035,2.01464 z M 72.024244,122.39691 C 53.642683,117.45734 39.038081,97.713443 42.968579,83.116689 44.590089,77.094862 47.31562,75 53.528839,75 c 7.709562,0 15.707844,4.406522 24.12029,13.288678 10.547636,11.136564 16.135671,24.359222 12.921342,30.575042 -2.589003,5.00658 -8.718159,6.17423 -18.546227,3.53319 z m 42.410186,-1.87157 c -2.40016,-2.40016 -2.63095,-3.21819 -2.12152,-7.51955 2.00479,-16.927294 23.94205,-39.442085 36.75575,-37.723406 7.7347,1.037441 10.87705,7.150113 8.97236,17.45353 -2.88708,15.617636 -18.32864,29.206416 -34.20822,30.103696 -6.19599,0.3501 -6.90976,0.17434 -9.39837,-2.31427 z"
       id="path37243"
       inkscape:connector-curvature="0" />
    <path
       style="fill:#4e554c"
       d="M 88.418337,180.95704 C 61.287338,166.68531 39.98372,140.23073 32.305945,111.27735 28.815226,98.113622 28.605816,80.36448 31.803652,68.704084 39.001055,42.459907 55.736999,25.677687 82,18.368941 c 10.021483,-2.788884 29.19582,-2.544979 38.96476,0.495647 25.14791,7.827403 41.83346,25.01414 48.6734,50.135412 2.76496,10.154957 2.33015,28.747216 -0.96534,41.27735 -2.92898,11.1366 -9.42968,25.52922 -15.70362,34.76801 -9.05176,13.3293 -28.69757,31.09586 -40.4692,36.59805 -7.57975,3.54286 -16.526538,3.28786 -24.081663,-0.68637 z m 20.175753,-11.5608 c 9.77775,-4.08541 26.00765,-18.08429 35.36757,-30.50585 15.18626,-20.15368 22.77437,-48.255353 18.7515,-69.443906 C 158.75924,48.621156 148.72451,35.085598 130.93679,26.584294 119.09366,20.924091 107.69761,18.49554 96.890688,19.32891 86.176371,20.155139 80.888906,21.590156 70.5,26.491336 51.445784,35.480555 42.671505,47.52096 38.429294,70.5 c -4.061965,22.00269 3.24356,49.26886 18.344333,68.46594 8.628553,10.96918 19.817965,20.66457 32.794428,28.41566 6.788302,4.05479 12.656185,4.67613 19.026035,2.01464 z M 72.024244,122.39691 C 53.642683,117.45734 39.038081,97.713443 42.968579,83.116689 44.590089,77.094862 47.31562,75 53.528839,75 c 7.709562,0 15.707844,4.406522 24.12029,13.288678 10.547636,11.136564 16.135671,24.359222 12.921342,30.575042 -2.589003,5.00658 -8.718159,6.17423 -18.546227,3.53319 z m 9.777425,-15.08878 C 82.315221,103.84344 76.816893,93.750851 71.502802,88.40379 66.457999,83.327688 56.739826,78.49047 53.095854,79.241735 c -1.796162,0.370309 -1.792793,5.812618 0.0071,11.460252 C 55.367935,97.809002 65.90992,106.17545 76,108.87381 c 4.472729,1.19613 5.430617,0.93763 5.801669,-1.56568 z m 32.632761,13.21721 c -2.40016,-2.40016 -2.63095,-3.21819 -2.12152,-7.51955 2.00479,-16.927294 23.94205,-39.442085 36.75575,-37.723406 7.7347,1.037441 10.87705,7.150113 8.97236,17.45353 -2.88708,15.617636 -18.32864,29.206416 -34.20822,30.103696 -6.19599,0.3501 -6.90976,0.17434 -9.39837,-2.31427 z m 16.19999,-13.58296 C 141.32179,102.36124 149,93.008692 149,84.57193 c 0,-5.465061 -1.34888,-5.826505 -8.7609,-2.347563 -6.24209,2.929819 -11.96185,9.02889 -16.097,17.164488 -4.9163,9.672475 -3.17562,11.697685 6.49232,7.553525 z"
       id="path37241"
       inkscape:connector-curvature="0" />
    <path
       style="fill:#457633"
       d="M 92.5,182.20323 C 80.172866,177.93441 57.193498,158.07848 47.077204,142.95445 26.250743,111.81856 24.448771,73.152924 42.554894,45.917427 51.33199,32.71479 65.536617,23.195296 82.915708,18.868878 c 11.918379,-2.967006 30.262302,-2.302252 40.955202,1.484151 28.28848,10.01708 45.26507,32.609543 46.86407,62.366765 1.85532,34.527176 -16.04949,68.905046 -47.78991,91.758326 -12.76643,9.1919 -20.52471,11.16048 -30.44507,7.72511 z m 16.09409,-12.80699 c 9.77775,-4.08541 26.00765,-18.08429 35.36757,-30.50585 15.18626,-20.15368 22.77437,-48.255353 18.7515,-69.443906 C 158.75924,48.621156 148.72451,35.085598 130.93679,26.584294 119.09366,20.924091 107.69761,18.49554 96.890688,19.32891 86.176371,20.155139 80.888906,21.590156 70.5,26.491336 51.445784,35.480555 42.671505,47.52096 38.429294,70.5 c -4.061965,22.00269 3.24356,49.26886 18.344333,68.46594 8.628553,10.96918 19.817965,20.66457 32.794428,28.41566 6.788302,4.05479 12.656185,4.67613 19.026035,2.01464 z M 72.024244,122.39691 C 53.642683,117.45734 39.038081,97.713443 42.968579,83.116689 44.590089,77.094862 47.31562,75 53.528839,75 c 7.709562,0 15.707844,4.406522 24.12029,13.288678 10.547636,11.136564 16.135671,24.359222 12.921342,30.575042 -2.589003,5.00658 -8.718159,6.17423 -18.546227,3.53319 z m 9.777425,-15.08878 C 82.315221,103.84344 76.816893,93.750851 71.502802,88.40379 66.457999,83.327688 56.739826,78.49047 53.095854,79.241735 c -1.796162,0.370309 -1.792793,5.812618 0.0071,11.460252 C 55.367935,97.809002 65.90992,106.17545 76,108.87381 c 4.472729,1.19613 5.430617,0.93763 5.801669,-1.56568 z m 32.632761,13.21721 c -2.40016,-2.40016 -2.63095,-3.21819 -2.12152,-7.51955 2.00479,-16.927294 23.94205,-39.442085 36.75575,-37.723406 7.7347,1.037441 10.87705,7.150113 8.97236,17.45353 -2.88708,15.617636 -18.32864,29.206416 -34.20822,30.103696 -6.19599,0.3501 -6.90976,0.17434 -9.39837,-2.31427 z m 16.19999,-13.58296 C 141.32179,102.36124 149,93.008692 149,84.57193 c 0,-5.465061 -1.34888,-5.826505 -8.7609,-2.347563 -6.24209,2.929819 -11.96185,9.02889 -16.097,17.164488 -4.9163,9.672475 -3.17562,11.697685 6.49232,7.553525 z"
       id="path37239"
       inkscape:connector-curvature="0" />
    <path
       style="fill:#452676"
       d="M 92.5,182.20323 C 80.172866,177.93441 57.193498,158.07848 47.077204,142.95445 26.250743,111.81856 24.448771,73.152924 42.554894,45.917427 51.33199,32.71479 65.536617,23.195296 82.915708,18.868878 c 11.918379,-2.967006 30.262302,-2.302252 40.955202,1.484151 28.28848,10.01708 45.26507,32.609543 46.86407,62.366765 1.85532,34.527176 -16.04949,68.905046 -47.78991,91.758326 -12.76643,9.1919 -20.52471,11.16048 -30.44507,7.72511 z m 20,-4.80118 c 12.23503,-6.71693 29.75064,-22.85447 37.54838,-34.59419 C 174.43206,106.09751 173.61793,63.645246 148.03606,37.877056 136.47308,26.229857 118.4323,18.982309 101.09004,19.017364 89.112563,19.041575 80.067462,21.185701 69,26.624255 52.069749,34.943785 42.209289,47.263406 35.883404,68 c -3.0438,9.977742 -3.282141,28.663713 -0.516202,40.47021 2.351862,10.03899 7.91218,22.88234 14.013482,32.36866 9.197333,14.30003 33.070288,34.91014 44.903159,38.76599 5.737367,1.86958 12.227867,1.08471 18.216157,-2.20281 z m -42.213961,-55.8528 c -9.553288,-2.98563 -19.564818,-11.45587 -24.416117,-20.65721 -1.874654,-3.555618 -2.320816,-5.979242 -2.342785,-12.726401 -0.02575,-7.906984 0.11674,-8.458234 2.778627,-10.75 4.171718,-3.591665 9.756286,-3.250724 18.513336,1.130249 12.843982,6.425582 24.955425,22.690032 25.965393,34.868922 0.398251,4.80238 0.194972,5.45618 -2.308755,7.42561 -3.226134,2.53768 -11.327635,2.85338 -18.189699,0.70883 z m 11.51563,-14.24112 C 82.315221,103.84344 76.816893,93.750851 71.502802,88.40379 66.457999,83.327688 56.739826,78.49047 53.095854,79.241735 c -1.796162,0.370309 -1.792793,5.812618 0.0071,11.460252 C 55.367935,97.809002 65.90992,106.17545 76,108.87381 c 4.472729,1.19613 5.430617,0.93763 5.801669,-1.56568 z m 34.519511,14.56597 c -2.95707,-1.5149 -4.66237,-5.99867 -3.82536,-10.05805 1.49569,-7.25394 7.90545,-18.234609 14.49549,-24.832474 7.59263,-7.601656 14.14335,-11.150243 20.58342,-11.150243 8.54805,0 11.31116,4.294251 10.12957,15.742743 -1.52231,14.749844 -17.93123,29.937774 -33.51292,31.019224 -3.13026,0.21725 -6.67185,-0.10729 -7.8702,-0.7212 z m 14.31324,-14.93172 C 141.32179,102.36124 149,93.008692 149,84.57193 c 0,-5.465061 -1.34888,-5.826505 -8.7609,-2.347563 -6.24209,2.929819 -11.96185,9.02889 -16.097,17.164488 -4.9163,9.672475 -3.17562,11.697685 6.49232,7.553525 z"
       id="path37237"
       inkscape:connector-curvature="0" />
    <path
       style="fill:#3c6a31"
       d="M 92.5,182.20323 C 80.172866,177.93441 57.193498,158.07848 47.077204,142.95445 26.250743,111.81856 24.448771,73.152924 42.554894,45.917427 51.33199,32.71479 65.536617,23.195296 82.915708,18.868878 c 11.918379,-2.967006 30.262302,-2.302252 40.955202,1.484151 28.28848,10.01708 45.26507,32.609543 46.86407,62.366765 1.85532,34.527176 -16.04949,68.905046 -47.78991,91.758326 -12.76643,9.1919 -20.52471,11.16048 -30.44507,7.72511 z m 20,-4.80118 c 12.23503,-6.71693 29.75064,-22.85447 37.54838,-34.59419 C 174.43206,106.09751 173.61793,63.645246 148.03606,37.877056 136.47308,26.229857 118.4323,18.982309 101.09004,19.017364 89.112563,19.041575 80.067462,21.185701 69,26.624255 52.069749,34.943785 42.209289,47.263406 35.883404,68 c -3.0438,9.977742 -3.282141,28.663713 -0.516202,40.47021 2.351862,10.03899 7.91218,22.88234 14.013482,32.36866 9.197333,14.30003 33.070288,34.91014 44.903159,38.76599 5.737367,1.86958 12.227867,1.08471 18.216157,-2.20281 z m -42.213961,-55.8528 c -9.553288,-2.98563 -19.564818,-11.45587 -24.416117,-20.65721 -1.874654,-3.555618 -2.320816,-5.979242 -2.342785,-12.726401 -0.02575,-7.906984 0.11674,-8.458234 2.778627,-10.75 4.171718,-3.591665 9.756286,-3.250724 18.513336,1.130249 12.843982,6.425582 24.955425,22.690032 25.965393,34.868922 0.398251,4.80238 0.194972,5.45618 -2.308755,7.42561 -3.226134,2.53768 -11.327635,2.85338 -18.189699,0.70883 z M 83.808492,107.83218 C 84.863644,98.70731 66.859966,79.709086 56.479473,78.993474 50.16753,78.558341 50,78.67569 50,83.532119 c 0,6.243677 2.260786,11.114429 7.79611,16.796341 7.025996,7.21205 14.250651,10.65397 21.70389,10.34003 3.539165,-0.14908 4.035541,-0.47585 4.308492,-2.83631 z m 32.512688,14.04192 c -2.95707,-1.5149 -4.66237,-5.99867 -3.82536,-10.05805 1.49569,-7.25394 7.90545,-18.234609 14.49549,-24.832474 7.59263,-7.601656 14.14335,-11.150243 20.58342,-11.150243 8.54805,0 11.31116,4.294251 10.12957,15.742743 -1.52231,14.749844 -17.93123,29.937774 -33.51292,31.019224 -3.13026,0.21725 -6.67185,-0.10729 -7.8702,-0.7212 z m 16.45749,-13.84599 C 143.65279,102.8838 151,93.329838 151,84.33398 c 0,-5.905684 -3.71942,-6.773075 -11.79252,-2.750082 -5.80357,2.892039 -11.67518,9.032499 -16.02261,16.756233 -3.89729,6.924009 -4.60556,9.448039 -3.14504,11.207859 1.84426,2.2222 5.83535,1.74602 12.73884,-1.51988 z"
       id="path37235"
       inkscape:connector-curvature="0" />
    <path
       style="fill:#334c2a"
       d="M 92.5,182.20323 C 80.172866,177.93441 57.193498,158.07848 47.077204,142.95445 26.250743,111.81856 24.448771,73.152924 42.554894,45.917427 51.33199,32.71479 65.536617,23.195296 82.915708,18.868878 c 11.918379,-2.967006 30.262302,-2.302252 40.955202,1.484151 28.28848,10.01708 45.26507,32.609543 46.86407,62.366765 1.85532,34.527176 -16.04949,68.905046 -47.78991,91.758326 -12.76643,9.1919 -20.52471,11.16048 -30.44507,7.72511 z m 20,-3.97676 c 7.14543,-3.5528 20.09217,-13.90815 27.80816,-22.24213 14.87723,-16.06878 23.53391,-33.62755 27.34678,-55.46881 C 171.69301,77.384258 164.29048,53.095756 148.44366,37.481252 127.94749,17.285555 94.039164,12.993491 66.82773,27.150435 54.920471,33.345272 46.440091,42.090782 40.680682,54.114942 38.208259,59.276724 35.45409,66.425 34.560307,70 c -5.842417,23.368808 -0.218745,49.78168 15.607555,73.30448 8.12498,12.07625 26.43685,28.30809 39.54964,35.05723 7.717599,3.97223 14.603718,3.93136 22.782498,-0.13524 z m -41,-56.62862 C 52.541673,115.58639 39.172677,96.126932 43.984441,81.547143 c 2.583642,-7.828509 13.196253,-8.107932 24.733252,-0.65121 10.529619,6.805621 20.733963,21.678537 21.956619,32.001957 0.519158,4.38347 0.295945,5.22276 -1.999503,7.51821 -2.152687,2.15269 -3.467629,2.57274 -7.879354,2.517 C 77.882955,122.89631 73.7,122.29545 71.5,121.59785 Z M 83.808492,107.83218 C 84.863644,98.70731 66.859966,79.709086 56.479473,78.993474 50.16753,78.558341 50,78.67569 50,83.532119 c 0,6.243677 2.260786,11.114429 7.79611,16.796341 7.025996,7.21205 14.250651,10.65397 21.70389,10.34003 3.539165,-0.14908 4.035541,-0.47585 4.308492,-2.83631 z M 117,121.76641 c -6.09829,-3.23194 -5.89373,-9.38111 0.73346,-22.048719 9.30379,-17.783826 28.31852,-28.742783 36.96078,-21.30199 2.60407,2.242046 2.80437,2.942932 2.78644,9.75 -0.0169,6.405284 -0.44632,8.126234 -3.39044,13.586389 -1.85412,3.43866 -5.3646,8.08962 -7.80107,10.33548 -8.50916,7.84347 -23.44147,12.77797 -29.28917,9.67884 z m 15.77867,-13.7383 C 143.65279,102.8838 151,93.329838 151,84.33398 c 0,-5.905684 -3.71942,-6.773075 -11.79252,-2.750082 -5.80357,2.892039 -11.67518,9.032499 -16.02261,16.756233 -3.89729,6.924009 -4.60556,9.448039 -3.14504,11.207859 1.84426,2.2222 5.83535,1.74602 12.73884,-1.51988 z"
       id="path37233"
       inkscape:connector-curvature="0" />
    <path
       style="fill:#331a56"
       d="M 89.5,180.60882 C 71.617017,172.12641 50.722125,151.30194 41.261539,132.53292 35.073043,120.25546 30,101.8623 30,91.702343 c 0,-5.333712 1.142993,-2.117939 2.121222,5.967988 1.936591,16.007639 7.957146,32.160509 16.939729,45.448499 9.540295,14.11302 34.109634,34.89013 44.754376,37.84663 6.014348,1.67044 12.285383,1.20163 17.684673,-1.32205 11.77792,-5.50513 31.55015,-23.48149 40.26655,-36.60923 16.07417,-24.20923 21.62503,-54.707862 14.18992,-77.965084 C 157.89368,39.848422 139.00981,23.847273 111,18.501996 c -7.21247,-1.376397 -7.27134,-1.40967 -1.53567,-0.867897 22.13921,2.091198 43.89126,16.912059 53.37294,36.365901 7.56784,15.527145 9.66992,30.171765 6.74073,46.9609 -4.0157,23.01665 -13.31994,41.58606 -29.00584,57.88985 -8.2995,8.62643 -21.0036,18.48874 -28.07216,21.79266 -6.91132,3.23042 -16.145833,3.21654 -23,-0.0346 z M 73,121.56903 C 54.697672,116.47635 40.689044,98.241254 43.945165,83.748213 45.202214,78.15307 47.982648,76 53.951062,76 c 13.642362,0 31.647791,17.607181 36.104352,35.30579 1.012343,4.02038 0.942733,5.04809 -0.490026,7.23476 C 86.642195,123.00191 81.516965,123.9389 73,121.56903 Z M 83.808492,107.83218 C 84.863644,98.70731 66.859966,79.709086 56.479473,78.993474 50.16753,78.558341 50,78.67569 50,83.532119 c 0,6.243677 2.260786,11.114429 7.79611,16.796341 7.025996,7.21205 14.250651,10.65397 21.70389,10.34003 3.539165,-0.14908 4.035541,-0.47585 4.308492,-2.83631 z m 31.192358,12.16867 c -1.92633,-1.92633 -2.16657,-2.95377 -1.67035,-7.1436 0.75638,-6.38644 6.74081,-17.679938 12.99441,-24.522374 7.87889,-8.620765 16.69959,-12.951162 23.96393,-11.76475 5.09251,0.83171 7.04449,3.964188 7.04449,11.304788 0,16.194586 -16.25898,32.671306 -33.45356,33.901576 -5.89244,0.4216 -6.87897,0.22431 -8.87892,-1.77564 z m 17.77782,-11.97274 C 143.65279,102.8838 151,93.329838 151,84.33398 c 0,-5.905684 -3.71942,-6.773075 -11.79252,-2.750082 -5.80357,2.892039 -11.67518,9.032499 -16.02261,16.756233 -3.89729,6.924009 -4.60556,9.448039 -3.14504,11.207859 1.84426,2.2222 5.83535,1.74602 12.73884,-1.51988 z M 30.476725,80.51015 C 31.498761,72.090876 35.583177,58.561995 39.088419,51.985487 43.132899,44.397266 49.598666,36.723913 56.089031,31.809738 62.012706,27.324633 73.767311,21.414362 78.5,20.541398 80.15,20.237049 80.825,20.262774 80,20.598565 70.881413,24.310009 63.442616,28.110716 58.376234,31.646804 44.758476,41.151336 36.128486,56.362179 32.435003,77.369687 30.769064,86.845081 29.451145,88.958609 30.476725,80.51015 Z M 83.5,19 c 1.1,-0.472686 3.35,-0.837816 5,-0.8114 l 3,0.04803 L 88.5,19 c -1.65,0.419854 -3.9,0.784984 -5,0.8114 l -2,0.04803 z m 9.25,-1.662281 c 0.6875,-0.277412 1.8125,-0.277412 2.5,0 0.6875,0.277413 0.125,0.504386 -1.25,0.504386 -1.375,0 -1.9375,-0.226973 -1.25,-0.504386 z"
       id="path37231"
       inkscape:connector-curvature="0" />
    <path
       style="fill:#2a3925"
       d="M 94.847656 17.976562 C 94.394531 17.976562 93.941406 18.046841 93.597656 18.185547 C 92.910156 18.46296 93.472656 18.689453 94.847656 18.689453 C 96.222656 18.689453 96.785156 18.46296 96.097656 18.185547 C 95.753906 18.046841 95.300781 17.976562 94.847656 17.976562 z M 106.375 18.154297 C 105.62585 18.152748 107.33986 18.489361 111.84766 19.349609 C 139.85747 24.694886 158.7419 40.695342 166.80469 65.916016 C 174.2398 89.173238 168.68745 119.67163 152.61328 143.88086 C 143.89688 157.0086 124.12558 174.9851 112.34766 180.49023 C 106.94837 183.01391 100.67646 183.48294 94.662109 181.8125 C 84.017367 178.856 59.448498 158.07982 49.908203 143.9668 C 40.92562 130.67881 34.905341 114.52522 32.96875 98.517578 C 31.990521 90.431651 30.847656 87.215116 30.847656 92.548828 C 30.847656 102.70879 35.920879 121.1034 42.109375 133.38086 C 51.569961 152.14988 72.464673 172.97462 90.347656 181.45703 C 97.201823 184.70817 106.43634 184.72065 113.34766 181.49023 C 120.41622 178.18631 133.12042 168.3237 141.41992 159.69727 C 157.10582 143.39348 166.41008 124.82524 170.42578 101.80859 C 173.35497 85.019459 171.25339 70.374801 163.68555 54.847656 C 154.20387 35.393814 132.45171 20.57362 110.3125 18.482422 C 108.16162 18.279257 106.82449 18.155226 106.375 18.154297 z M 89.347656 19.035156 C 87.697656 19.00874 85.447656 19.37497 84.347656 19.847656 L 82.347656 20.707031 L 84.347656 20.658203 C 85.447656 20.631787 87.697656 20.26751 89.347656 19.847656 L 92.347656 19.083984 L 89.347656 19.035156 z M 81.025391 21.177734 C 80.753516 21.167373 80.172656 21.236497 79.347656 21.388672 C 74.614967 22.261636 62.859222 28.171145 56.935547 32.65625 C 50.445182 37.570425 43.980027 45.24381 39.935547 52.832031 C 36.430305 59.408539 32.346255 72.938148 31.324219 81.357422 C 30.298639 89.805881 31.617264 87.692191 33.283203 78.216797 C 36.976686 57.209289 45.606851 41.998673 59.224609 32.494141 C 64.290991 28.958053 71.729069 25.156757 80.847656 21.445312 C 81.260156 21.277417 81.297266 21.188096 81.025391 21.177734 z M 54.798828 76.847656 C 48.830414 76.847656 46.050018 79.00056 44.792969 84.595703 C 41.536848 99.088744 55.545328 117.32334 73.847656 122.41602 C 82.364621 124.78589 87.488916 123.85003 90.412109 119.38867 C 91.844868 117.202 91.914687 116.17272 90.902344 112.15234 C 86.445783 94.453735 68.44119 76.847656 54.798828 76.847656 z M 148.34375 77.228516 C 141.68115 77.380439 134.0659 81.638471 127.17188 89.181641 C 120.91828 96.024077 114.93411 107.31864 114.17773 113.70508 C 113.68151 117.89491 113.92133 118.92133 115.84766 120.84766 C 117.84761 122.84761 118.83412 123.04465 124.72656 122.62305 C 141.92114 121.39278 158.18164 104.91724 158.18164 88.722656 C 158.18164 81.382056 156.22923 78.249679 151.13672 77.417969 C 150.22868 77.269667 149.29555 77.206812 148.34375 77.228516 z M 55.173828 78.847656 C 61.52685 78.847656 68.875891 82.981481 75.632812 90.355469 C 82.685529 98.052265 86.585465 105.49544 87.435547 112.88477 C 88.044673 118.1796 87.957055 118.47611 85.414062 119.63477 C 82.166134 121.11463 80.52509 121.082 75.246094 119.42969 C 70.384448 117.90801 58.847656 111.71389 58.847656 110.625 C 58.847656 110.2062 57.450717 108.62222 55.744141 107.10547 C 51.284183 103.14163 48.655728 97.32763 48.080078 90.15625 C 47.398333 81.663133 49.164474 78.847656 55.173828 78.847656 z M 148.41992 79.001953 C 149.91123 79.057311 150.90222 79.812371 152.39258 81.302734 C 157.01704 85.927192 154.69432 98.666465 147.77734 106.61328 C 143.62681 111.38176 134.68202 117.52188 129.98633 118.82617 C 124.1603 120.44442 118.88992 120.1243 118.11523 118.10547 C 114.51582 108.72556 129.06012 85.531109 141.44727 80.896484 C 144.93657 79.590968 146.92861 78.946596 148.41992 79.001953 z "
       transform="translate(-0.84745885,-0.84745734)"
       id="path37229" />
    <path
       style="fill:#27351c"
       d="m 125,171.62244 c 0,-0.20765 0.7875,-0.99515 1.75,-1.75 1.58606,-1.24387 1.62143,-1.2085 0.37756,0.37756 C 125.82119,171.91575 125,172.44548 125,171.62244 Z M 136.5,161 c 0.33992,-0.55 0.81648,-1 1.05902,-1 0.24254,0 0.44098,0.45 0.44098,1 0,0.55 -0.47656,1 -1.05902,1 -0.58246,0 -0.7809,-0.45 -0.44098,-1 z m 6.5,-6.37756 c 0,-0.20765 0.7875,-0.99515 1.75,-1.75 1.58606,-1.24387 1.62143,-1.2085 0.37756,0.37756 C 143.82119,154.91575 143,155.44548 143,154.62244 Z M 73.250674,121.49875 C 62.196508,118.42968 53.83262,112.10427 48,102.40225 44.74192,96.982735 44.5,96.001348 44.5,88.203924 c 0,-7.727535 0.193659,-8.533445 2.5,-10.403743 5.752849,-4.665199 20.825314,0.923346 30.409185,11.275071 10.329359,11.156938 15.736643,26.767838 10.81469,31.222148 -2.600115,2.35307 -8.980978,2.86503 -14.973201,1.20135 z m 11.31505,-2.71065 c 2.542993,-1.15866 2.631843,-1.45517 2.022717,-6.75 C 85.738359,104.64877 81.838779,97.204628 74.786063,89.507832 68.029142,82.133844 60.679731,78 54.326709,78 c -6.009354,0 -7.775834,2.816071 -7.094089,11.309188 0.57565,7.17138 3.204557,12.984682 7.664515,16.948522 C 56.603711,107.77446 58,109.35809 58,109.77689 c 0,1.08889 11.536921,7.2839 16.398567,8.80558 5.278996,1.65231 6.919228,1.68549 10.167157,0.20563 z m 31.662536,2.03706 c -4.57202,-2.31483 -4.15651,-8.72178 1.26496,-19.50511 6.54442,-13.016867 17.61633,-22.550935 27.81116,-23.948291 C 154.22422,76.149158 157,78.673876 157,88.00954 c 0,11.700037 -8.5719,24.19289 -20.69477,30.16096 -7.14441,3.51718 -16.04813,4.69447 -20.07697,2.65466 z m 12.91095,-2.84715 c 4.69569,-1.30429 13.64004,-7.44443 17.79057,-12.21291 6.91698,-7.946816 9.24013,-20.686097 4.61567,-25.310555 -2.98072,-2.980726 -3.9663,-3.01731 -10.94491,-0.406277 -12.38715,4.634625 -26.93133,27.829442 -23.33192,37.209352 0.77469,2.01883 6.04456,2.33864 11.87059,0.72039 z M 31.157895,79 c 0,-1.375 0.226973,-1.9375 0.504386,-1.25 0.277412,0.6875 0.277412,1.8125 0,2.5 -0.277413,0.6875 -0.504386,0.125 -0.504386,-1.25 z m 137.999995,0 c 0,-1.375 0.22698,-1.9375 0.50439,-1.25 0.27741,0.6875 0.27741,1.8125 0,2.5 -0.27741,0.6875 -0.50439,0.125 -0.50439,-1.25 z"
       id="path37227"
       inkscape:connector-curvature="0" />
    <path
       style="fill:#231837"
       d="M 71.574799,120.349 C 61.241401,117.17737 50.959945,108.35077 46.706917,99 44.023837,93.100941 43.807262,83.469985 46.273053,79.70631 c 2.59981,-3.968235 10.15417,-3.832314 18.489026,0.332663 11.394539,5.693919 23.710343,22.100747 24.968417,33.262347 0.436946,3.87657 0.179127,4.62461 -2.253408,6.53804 -3.264626,2.56796 -8.635372,2.74008 -15.902289,0.50964 z m 12.990925,-1.5609 c 2.542993,-1.15866 2.631843,-1.45517 2.022717,-6.75 C 85.738359,104.64877 81.838779,97.204628 74.786063,89.507832 68.029142,82.133844 60.679731,78 54.326709,78 c -6.009354,0 -7.775834,2.816071 -7.094089,11.309188 0.57565,7.17138 3.204557,12.984682 7.664515,16.948522 C 56.603711,107.77446 58,109.35809 58,109.77689 c 0,1.08889 11.536921,7.2839 16.398567,8.80558 5.278996,1.65231 6.919228,1.68549 10.167157,0.20563 z m 33.182246,2.04894 c -10.70149,-3.90826 3.54477,-32.33046 20.43598,-40.771098 13.38596,-6.689044 20.79277,-1.53394 17.97258,12.50883 -2.56731,12.783578 -14.00919,24.328528 -27.62652,27.875398 -6.74033,1.75563 -7.00786,1.76523 -10.78204,0.38687 z m 11.39124,-2.85903 c 4.69569,-1.30429 13.64004,-7.44443 17.79057,-12.21291 6.91698,-7.946816 9.24013,-20.686097 4.61567,-25.310555 -2.98072,-2.980726 -3.9663,-3.01731 -10.94491,-0.406277 -12.38715,4.634625 -26.93133,27.829442 -23.33192,37.209352 0.77469,2.01883 6.04456,2.33864 11.87059,0.72039 z"
       id="path37225"
       inkscape:connector-curvature="0" />
    <path
       style="fill:#1a1529"
       d="M 71.574799,120.349 C 61.241401,117.17737 50.959945,108.35077 46.706917,99 42.872974,90.570637 44.582061,77 49.477598,77 c 0.944792,0 0.553293,0.8782 -1.151483,2.582976 -2.39135,2.39135 -2.547058,3.084978 -2.098828,9.349577 1.049205,14.664017 12.287994,26.559397 28.986769,30.680237 5.673161,1.39999 6.921371,1.42868 9.413191,0.21634 2.674445,-1.30119 2.865476,-1.7811 2.767339,-6.95215 C 87.262877,105.93696 82.89146,97.264816 75.126252,88.538714 L 69.752505,82.5 l 6.502656,6.631314 c 7.225434,7.368391 12.685389,17.161626 13.475335,24.170006 0.436946,3.87657 0.179127,4.62461 -2.253408,6.53804 -3.264626,2.56796 -8.635372,2.74008 -15.902289,0.50964 z m 46.173171,0.48804 c -7.5099,-2.74267 -2.77904,-19.31833 8.99223,-31.506381 3.16789,-3.280058 4.34154,-4.358799 2.60811,-2.397201 -5.05185,5.716806 -11.20599,15.939272 -12.97577,21.553672 -1.4314,4.54089 -1.45919,5.55487 -0.22206,8.10169 1.33614,2.75066 1.74316,2.90605 7.38182,2.81821 15.4813,-0.2412 31.46475,-16.23268 31.46691,-31.482716 6.4e-4,-4.535843 -0.43085,-5.981187 -2.31366,-7.75 C 151.4126,78.978441 149.7626,78 149.01888,78 c -0.74372,0 -1.06664,-0.285571 -0.71761,-0.634602 0.34903,-0.349031 1.99708,-0.07024 3.66233,0.619527 4.23589,1.75456 5.72795,6.9464 4.19293,14.589847 -2.56731,12.783578 -14.00919,24.328528 -27.62652,27.875398 -6.74033,1.75563 -7.00786,1.76523 -10.78204,0.38687 z"
       id="path37223"
       inkscape:connector-curvature="0" />
  </g>
</svg>
