<?xml version="1.0" encoding="UTF-8" standalone="no"?>
<!-- Created with Inkscape (http://www.inkscape.org/) -->

<svg
   xmlns:dc="http://purl.org/dc/elements/1.1/"
   xmlns:cc="http://creativecommons.org/ns#"
   xmlns:rdf="http://www.w3.org/1999/02/22-rdf-syntax-ns#"
   xmlns:svg="http://www.w3.org/2000/svg"
   xmlns="http://www.w3.org/2000/svg"
   xmlns:sodipodi="http://sodipodi.sourceforge.net/DTD/sodipodi-0.dtd"
   xmlns:inkscape="http://www.inkscape.org/namespaces/inkscape"
   version="1.1"
   id="svg37356"
   width="200"
   height="200"
   viewBox="0 0 200 200"
   sodipodi:docname="sombras.svg"
   inkscape:version="0.92.4 (5da689c313, 2019-01-14)">
  <metadata
     id="metadata37362">
    <rdf:RDF>
      <cc:Work
         rdf:about="">
        <dc:format>image/svg+xml</dc:format>
        <dc:type
           rdf:resource="http://purl.org/dc/dcmitype/StillImage" />
        <dc:title></dc:title>
      </cc:Work>
    </rdf:RDF>
  </metadata>
  <defs
     id="defs37360" />
  <sodipodi:namedview
     pagecolor="#ffffff"
     bordercolor="#666666"
     borderopacity="1"
     objecttolerance="10"
     gridtolerance="10"
     guidetolerance="10"
     inkscape:pageopacity="0"
     inkscape:pageshadow="2"
     inkscape:window-width="1920"
     inkscape:window-height="1051"
     id="namedview37358"
     showgrid="false"
     inkscape:zoom="1.18"
     inkscape:cx="100"
     inkscape:cy="100"
     inkscape:window-x="-9"
     inkscape:window-y="-9"
     inkscape:window-maximized="1"
     inkscape:current-layer="svg37356" />
  <g
     id="g37366"
     transform="translate(0.84745678,0.84745717)">
    <path
       style="fill:#e8e8e8"
       d="M 76.5,184.92028 C 71,184.48037 63.947564,183.58929 60.827921,182.94011 42.91011,179.21153 27.531016,161.37381 21.401548,137.21073 18.630203,126.28577 18.442058,120.22964 20.462992,107 25.866108,71.629592 43.203946,39.372042 64.44923,25.162329 77.522959,16.418086 80.829438,15.534282 100.5,15.526149 c 15.17997,-0.0063 17.64237,0.233309 23,2.237839 C 146.94475,26.535715 167.65478,54.153579 176.91834,89 179.2436,97.74687 182,115.78243 182,122.25011 c 0,6.22272 -4.2573,22.40777 -7.90399,30.04871 -7.36894,15.44023 -20.38279,27.27547 -33.09601,30.09864 -14.20782,3.15507 -42.674799,4.26852 -64.5,2.52282 z"
       id="path37424"
       inkscape:connector-curvature="0" />
    <path
       style="fill:#e1d7d3"
       d="M 71,183.86377 C 59.431014,182.679 52.807026,180.43213 45.905877,175.35179 34.74412,167.13498 25.940012,153.05249 21.847821,136.87007 18.169489,122.32424 20.157899,102.48434 27.514576,80.328513 37.920849,48.988336 59.321792,23.870325 81,17.553361 c 12.708968,-3.703354 32.43899,-2.879053 44.13153,1.843774 26.09384,10.539769 47.19709,43.544922 54.33805,84.983855 3.14838,18.27 1.2185,32.71357 -6.42945,48.11901 -7.47452,15.05613 -18.58628,25.63419 -30.41785,28.9569 -11.64831,3.27124 -50.449474,4.57516 -71.62228,2.40687 z"
       id="path37422"
       inkscape:connector-curvature="0" />
    <path
       style="fill:#dbd6d4"
       d="M 71,183.93932 C 55.957952,182.29683 46.305903,177.69342 37.898025,168.1518 23.050127,151.30175 17.369133,129.41353 21.473263,104.86904 28.605993,62.212224 51.360605,28.153054 79.397958,18.16719 85.62044,15.950974 88.171922,15.63167 100,15.588964 c 16.44955,-0.05939 23.92969,1.908781 35.09251,9.233532 24.56069,16.116087 43.37939,53.993342 45.54846,91.677504 0.5385,9.35561 0.31194,12.27066 -1.51555,19.5 -5.2498,20.76747 -17.47911,37.40309 -32.32306,43.96928 -2.48501,1.09924 -7.61964,2.48356 -11.41028,3.07626 -9.21399,1.44071 -53.725164,2.05853 -64.39208,0.89378 z m 35.94561,-93.598454 c 0.24509,-0.219315 0.5359,-1.013903 0.64624,-1.76575 0.14954,-1.018853 -1.61935,-1.46097 -6.94561,-1.735989 C 95.155938,86.555636 91.99381,85.73478 87,83.296702 80.625016,80.184306 79.574223,79.05978 75.275963,70.75 74.493617,69.2375 73.448031,68 72.952438,68 c -1.468621,0 -3.798138,5.355789 -4.137228,9.511895 -0.2983,3.656158 -0.137351,3.900942 3.000122,4.562825 1.823433,0.384673 4.298433,1.620251 5.5,2.74573 1.201568,1.125479 3.451463,2.526301 4.999768,3.112938 C 85.868706,89.279812 92,89.321983 92,88 c 0,-0.55 0.675,-1 1.5,-1 2.244979,0 1.807683,1.686276 -0.600616,2.316061 -1.22239,0.319662 -1.811505,1.017114 -1.409096,1.668225 0.471561,0.763002 2.968686,0.902041 7.850616,0.437119 3.937506,-0.374981 7.359616,-0.861223 7.604706,-1.080539 z M 96,88.968615 C 96,88.435877 96.675,88 97.5,88 c 0.825,0 1.5,0.176855 1.5,0.393011 0,0.216156 -0.675,0.652033 -1.5,0.968615 -0.825,0.316583 -1.5,0.139728 -1.5,-0.393011 z m 19,-2.027632 C 115,86.423442 114.325,86 113.5,86 c -1.54641,0 -1.9867,1.179963 -0.86052,2.306147 C 113.43841,89.105078 115,88.201961 115,86.940983 Z m 15.88117,-10.034646 c 0.92359,-2.086554 1.05728,-3.729225 0.41975,-5.157964 -0.85673,-1.920019 -1.16339,-1.688511 -3.64519,2.751911 -1.9544,3.49681 -2.37906,5.052671 -1.52343,5.581483 1.83123,1.131762 3.2674,0.171437 4.74887,-3.17543 z"
       id="path37420"
       inkscape:connector-curvature="0" />
    <path
       style="fill:#dcd2cc"
       d="M 80,184.39166 C 55.886756,182.23897 50.023784,179.96833 39.225132,168.60016 30.930028,159.86757 25.074592,148.8785 21.854402,136 19.27761,125.69464 19.664886,113.05339 23.032148,97.556668 28.761647,71.18852 39.786719,49.846874 55.869615,33.991947 70.231943,19.8332 79.740485,16 100.5,16 c 20.38279,0 30.11583,3.785935 43.99953,17.114842 21.66219,20.796571 35.60596,54.546111 35.89698,86.885158 0.11999,13.33364 -1.86859,21.2656 -8.57328,34.19676 -8.85153,17.07172 -21.78336,26.67739 -38.82323,28.83762 -8.86506,1.12387 -45.193405,2.05421 -53,1.35728 z m 25.88957,-93.423463 c 4.25055,-0.02932 4.46042,-0.145303 2.68866,-1.485841 -1.76472,-1.335218 -1.55177,-1.437934 2.60601,-1.256979 5.61259,0.244271 18.22101,-4.726937 17.40201,-6.861213 C 128.29834,80.613874 128.3888,80 128.78727,80 c 1.6209,0 3.45168,-6.149431 2.47927,-8.327624 -0.91371,-2.046697 -1.09192,-1.933094 -3.08035,1.963633 C 123.98868,81.861871 114.51759,87 103.55241,87 89.063977,87 77.292275,79.09123 74.550959,67.515492 c -0.701745,-2.963252 -0.727795,-2.941886 -3.657792,3 -3.785392,7.676585 -3.546388,10.679402 0.922165,11.586003 1.823433,0.369946 4.298433,1.593476 5.5,2.718955 C 79.88027,87.222964 84.186143,89 87.442655,89 c 1.271851,0 2.912606,0.723138 3.646124,1.606973 1.019659,1.228613 2.376316,1.464061 5.762016,1 2.435591,-0.333835 6.503045,-0.621285 9.038775,-0.638776 z"
       id="path37418"
       inkscape:connector-curvature="0" />
    <path
       style="fill:#d4c9c3"
       d="M 74.5,183.89594 C 56.175623,182.12563 48.686381,178.76462 38.281649,167.64193 28.062581,156.71771 21.346044,140.77293 20.31928,125 19.613476,114.15759 22.61673,95.887142 27.507116,81.272435 38.357176,48.847503 59.465742,24.146689 81.931501,17.586133 c 8.225251,-2.401977 29.910819,-2.187722 38.213159,0.377549 13.64078,4.214748 27.9556,16.07324 38.49684,31.891022 16.87577,25.323148 26.03532,65.033426 20.10087,87.145296 -3.13032,11.66367 -10.16838,24.42876 -17.69133,32.08721 -8.57557,8.73003 -15.95283,12.32351 -28.55104,13.90726 -12.361,1.55392 -45.857509,2.07455 -58,0.90147 z m 36.7259,-91.056443 c 4.24925,-0.592074 8.24185,-1.698173 8.87245,-2.457998 0.6306,-0.759824 1.87894,-1.383181 2.77409,-1.385237 2.10691,-0.0048 8.02821,-3.615994 10.77935,-6.573879 2.03299,-2.185756 2.0719,-2.545382 0.7048,-6.513433 -0.79585,-2.309968 -2.03261,-5.036023 -2.74836,-6.057899 -1.20279,-1.717217 -1.43886,-1.553059 -3.11642,2.167115 C 124.56721,80.721381 114.06166,87 103.42383,87 97.252879,87 87.055961,83.519193 82.720978,79.932899 78.836239,76.719088 75.832721,71.775524 74.560405,66.501208 c -0.704801,-2.921714 -0.762876,-2.947417 -2.259446,-1 -3.035575,3.950051 -7.448144,14.776225 -6.904839,16.940924 0.52804,2.10388 7.615779,7.518767 9.943623,7.596724 0.638141,0.02137 4.760257,1.099299 9.160257,2.395397 8.425243,2.481804 11.489243,2.528264 26.7259,0.405244 z"
       id="path37416"
       inkscape:connector-curvature="0" />
    <path
       style="fill:#cec3bc"
       d="M 76.5,183.91543 C 56.354204,182.16863 48.791893,178.99238 38.777594,168.07162 32.071253,160.75824 27.512242,153.10121 24.417012,143.9525 20.349828,131.93093 19.494026,124.25523 20.885864,112.28154 24.427388,81.814549 36.391276,54.26856 54,36.03863 62.586458,27.149257 69.994734,21.946631 78.539134,18.805479 c 7.259916,-2.668941 28.794606,-3.708388 37.855986,-1.827252 22.72869,4.718459 45.69785,30.220455 56.57974,62.818873 7.05202,21.12546 9.30763,43.88464 5.66923,57.2029 -2.44805,8.96101 -8.64756,21.37533 -14.10865,28.25208 -8.712,10.97038 -17.6227,15.7333 -33.03948,17.66015 -12.75185,1.59377 -42.026216,2.12778 -54.99596,1.0032 z m 39.83156,-34.85654 2.83156,-0.0589 -2.03715,-3.29618 c -3.06941,-4.96641 -3.60786,-10.53436 -1.66501,-17.21754 3.69041,-12.69455 13.61956,-22.73606 24.65733,-24.93634 2.44752,-0.48789 2.56796,-0.76742 1.84661,-4.285934 C 141.54048,97.193803 140.20607,93.025 138.99954,90 137.793,86.975 136.70143,83.15 136.57381,81.5 136.23628,77.135772 134.0705,70.744928 131.99789,67.997199 l -1.80073,-2.387284 -1.25914,4.202619 C 124.8269,83.534244 106.7997,90.296236 90.823177,84.109389 81.636463,80.551868 76.79339,74.774249 74.560304,64.708342 l -0.619319,-2.791657 -2.463948,2.928236 c -3.461476,4.11373 -7.455666,13.07396 -7.467268,16.751441 -0.0054,1.702999 -0.710811,4.501633 -1.567639,6.219187 -0.856829,1.717554 -1.828198,4.824191 -2.158598,6.903638 -0.330401,2.079447 -1.205938,4.716735 -1.945638,5.860643 C 56.638667,103.20758 57.439627,104 61.79494,104 c 4.920489,0 13.607635,5.30304 18.195888,11.10761 7.660752,9.69158 9.896757,21.39772 5.695737,29.81887 C 84.758954,146.78592 84,148.44167 84,148.60592 c 0,0.56402 12.506293,1.0203 21,0.76617 4.675,-0.13987 9.7742,-0.28081 11.33156,-0.3132 z"
       id="path37414"
       inkscape:connector-curvature="0" />
    <path
       style="fill:#cabcb3"
       d="M 80,183.97934 C 57.225116,182.26156 50.45163,179.74503 39.990575,169.11473 32.407687,161.40917 26.240224,150.38353 22.833821,138.44341 16.738401,117.07776 24.259596,80.222343 39.964405,54.5 52.555322,33.877788 68.99057,20.427344 85.883309,16.920425 94.566194,15.117865 115.18378,16.19985 122.5,18.842022 c 21.04674,7.600799 40.99348,32.083006 50.91569,62.492849 3.79349,11.626382 6.86719,28.972659 6.93992,39.165129 0.18371,25.7428 -17.38151,54.43384 -36.7247,59.98616 -11.17259,3.20701 -43.728926,4.99427 -63.63091,3.49318 z m 39.79943,-34.45529 c 0.16468,-0.15926 -0.84782,-1.98012 -2.25,-4.04636 -3.03081,-4.46613 -3.45584,-12.46428 -1.03889,-19.54955 3.33945,-9.78961 14.33346,-20.23993 22.70047,-21.57787 2.1782,-0.34831 4.17925,-1.2037 4.44678,-1.90087 0.56074,-1.46127 -0.58085,-5.633309 -3.68015,-13.4494 -1.1995,-3.025 -2.54193,-7.525 -2.98317,-10 -0.97792,-5.485239 -3.8017,-12.977943 -5.63961,-14.964286 C 130.18607,62.772531 130,62.917238 130,65.08937 c 0,4.485569 -4.89658,12.745925 -9.34969,15.772569 C 114.85274,84.802386 110.74542,86 103.02892,86 87.008124,86 77.040286,77.803279 74.451124,62.5 c -0.558059,-3.298414 -0.812749,-3.643118 -1.45208,-1.965282 -0.426426,1.119095 -1.551116,2.678571 -2.499311,3.465503 -2.245153,1.863312 -6.507587,11.224046 -7.223481,15.863495 -0.488735,3.167311 -4.792224,17.345326 -6.794965,22.386284 -0.590721,1.48686 -0.107239,1.75 3.21538,1.75 5.295219,0 13.26368,4.14845 18.149228,9.44864 10.086524,10.94259 12.527886,24.60021 6.028891,33.72721 l -1.918426,2.69418 3.27182,0.4661 c 3.252568,0.46337 33.99921,-0.25888 34.57125,-0.81208 z"
       id="path37412"
       inkscape:connector-curvature="0" />
    <path
       style="fill:#c4b5ac"
       d="M 82.5,183.97772 C 58.242309,182.53508 50.823246,179.92741 40.038483,169.05325 27.704413,156.61694 20.531886,138.59855 20.711023,120.5 21.083146,82.903763 42.900533,39.297895 69.133502,23.719194 79.366,17.642526 84.409265,16.5 101,16.5 c 12.76066,0 15.2797,0.284348 21,2.370467 30.02728,10.950569 52.26509,47.32733 58.03318,94.931093 0.9537,7.87083 0.87178,10.56263 -0.53261,17.5 -4.38977,21.68459 -16.37608,39.90609 -30.94251,47.03857 -9.63481,4.71771 -39.1585,7.23735 -66.05806,5.63759 z m 38.41054,-33.60948 c 0.22579,-0.19579 -0.28244,-1.14624 -1.12942,-2.11211 -5.26951,-6.00927 -6.12534,-14.3725 -2.39811,-23.43454 4.60058,-11.18544 13.57616,-19.21667 22.85135,-20.44707 l 4.93565,-0.65473 -0.64257,-3.42521 c -0.35341,-1.88386 -1.92907,-6.883312 -3.50145,-11.109891 -1.57239,-4.226579 -3.15719,-9.876426 -3.52179,-12.555216 -0.60951,-4.478279 -0.42215,-5.122561 2.32639,-8 C 143.58909,64.694713 148,56.788063 148,53.985626 c 0,-6.452594 -14.82539,-22.13717 -25.76205,-27.255048 -5.72306,-2.678145 -7.80453,-3.080913 -18.10228,-3.502836 -18.737383,-0.767713 -27.93558,2.534324 -39.778119,14.279844 -7.848386,7.784088 -14.712985,18.215024 -13.80777,20.981263 0.557254,1.702909 0.960173,3.987177 1.368977,7.761151 0.04468,0.4125 0.662548,0.75 1.373034,0.75 0.710486,0 3.136137,1.9125 5.390337,4.25 4.026684,4.175483 4.08466,4.337667 3.306638,9.25 -0.435548,2.75 -2.124737,9.111153 -3.753751,14.135895 l -2.961845,9.135895 4.613415,0.44567 c 6.330541,0.61155 11.776218,3.39011 17.15618,8.75364 6.168991,6.15016 9.31302,12.92558 9.758141,21.0289 0.301841,5.49495 -0.04172,7.24264 -2.221929,11.30291 C 83.16054,147.94452 82,150.2873 82,150.50911 c 0,1.08599 37.65286,0.94968 38.91054,-0.14087 z M 91.5,84.02884 C 80.793495,79.775732 75,71.979086 75,61.823822 c 0,-8.477017 4.688082,-14.643805 14.814738,-19.487574 4.577743,-2.18962 6.380454,-2.492356 13.000002,-2.183144 8.75974,0.409186 14.35092,2.766185 20.39802,8.598917 C 126.83614,52.246952 130,59.146136 130,63.552412 c 0,7.096495 -5.93916,15.76673 -13.5,19.707876 -5.84154,3.044946 -18.305024,3.428099 -25,0.768552 z"
       id="path37410"
       inkscape:connector-curvature="0" />
    <path
       style="fill:#b6aea9"
       d="M 69.021287,182.87467 C 58.714443,181.68137 53.023916,179.5918 46.000337,174.42133 31.304731,163.60304 20.571468,141.14559 20.70724,121.5 21.014186,77.086442 48.319312,29.621257 79.873458,18.649882 86.767896,16.252686 105.73818,15.284681 114.5,16.882978 c 28.28355,5.159375 54.26103,38.279056 62.86275,80.14614 3.32109,16.164722 3.84126,24.525962 2.10432,33.824812 -4.48426,24.00683 -19.19882,44.2387 -36.02769,49.53649 -2.71666,0.85522 -9.30914,2.01723 -14.64997,2.58226 -11.4134,1.20747 -49.025047,1.14579 -59.768123,-0.098 z M 121,150.97856 c 0,-0.56179 -1.2375,-2.89328 -2.75,-5.18108 -2.30103,-3.48053 -2.74911,-5.2321 -2.74453,-10.72856 0.0121,-14.4894 12.13956,-28.82494 25.99133,-30.72354 5.5163,-0.75609 5.57795,-1.3 1.41932,-12.522899 -4.84156,-13.065913 -4.87198,-12.615384 1.41611,-20.972743 6.6479,-8.835573 7.97604,-11.90873 6.65186,-15.391594 -3.4334,-9.03051 -17.44211,-23.786289 -27.28651,-28.741652 C 111.03884,20.344477 88.683321,20.649574 76.687423,27.358063 65.458036,33.637894 55.090337,44.713994 49.157965,56.768548 l -2.592795,5.268549 1.967415,3.654327 c 1.082078,2.009881 4.329915,6.152862 7.217415,9.206627 2.8875,3.053764 5.25,6.243089 5.25,7.087389 0,0.8443 -1.567185,6.030472 -3.482632,11.524826 L 54.034735,103.5 l 5.44204,0.70897 c 10.640854,1.38625 19.45268,8.23485 24.603,19.12159 4.350719,9.19655 3.706879,20.28602 -1.424871,24.54188 C 81.744707,148.62729 81,149.86479 81,150.62244 81,151.7466 84.678982,152 101,152 c 12.94654,0 20,-0.36023 20,-1.02144 z M 92.332455,84.148934 C 81.842978,80.524034 76.138861,73.845132 75.316281,64.22484 c -0.61007,-7.134928 2.252868,-13.132387 8.576327,-17.966219 11.80801,-9.026379 28.821012,-7.738601 39.211472,2.968065 17.85744,18.400871 -4.65338,43.948058 -30.771625,34.922248 z"
       id="path37408"
       inkscape:connector-curvature="0" />
    <path
       style="fill:#b4a399"
       d="M 71,182.91854 C 54.722151,181.11514 46.578333,176.78884 36.329045,164.5 23.377235,148.97086 18.435575,127.19686 22.539019,103.73824 29.690476,62.854705 52.574566,28.758575 79.28398,19.191136 85.651517,16.910255 88.087374,16.600301 100,16.555098 c 11.24364,-0.04266 14.6769,0.318738 20.54153,2.162299 30.63499,9.630204 56.72672,52.973055 59.1646,98.282603 0.46696,8.67863 0.19764,11.97444 -1.55255,19 -3.21734,12.91494 -9.29727,24.1338 -17.7397,32.73376 -8.15126,8.30336 -14.42228,11.65049 -24.94491,13.31422 -9.23934,1.46083 -53.719513,2.06147 -64.46897,0.87056 z m 48.73708,-30.51121 3.23708,-0.49311 -3.363,-4.88894 c -4.05397,-5.89344 -5.01249,-10.27228 -3.61428,-16.51136 3.08982,-13.78739 13.60864,-24.24411 26.2068,-26.05209 4.61707,-0.6626 4.69389,-0.7329 4.17206,-3.81843 -0.75114,-4.44131 -4.13653,-14.38021 -7.09109,-20.818136 -0.17031,-0.371105 1.53896,-2.810637 3.79837,-5.421182 C 149.06107,67.496976 152,62.444191 152,59.073448 152,52.460282 140.26872,36.973354 129.95261,29.96782 119.91509,23.151468 117.34574,22.5 100.5,22.5 85.664153,22.5 85.425222,22.53542 78.66692,25.736338 67.052888,31.23707 50.733579,49.187144 46.964931,60.606262 c -1.110118,3.363689 -0.963695,3.878214 2.559384,8.993567 2.055276,2.98417 5.332452,6.975553 7.282612,8.869739 l 3.545746,3.443975 -3.19111,9.793229 c -1.75511,5.386275 -3.184462,10.307588 -3.176336,10.936238 0.01955,1.51241 2.395201,2.35699 6.629804,2.35699 7.7014,0 17.981151,7.95313 22.824076,17.65829 5.018346,10.0567 4.36942,18.70058 -1.958958,26.09387 l -3.54881,4.14598 5.78433,0.31458 c 7.289012,0.39641 31.717571,-0.14978 36.021411,-0.80539 z M 93.527368,84.395555 C 75.968965,78.795701 69.867401,61.69327 81.0859,49.522636 c 12.892833,-13.987073 37.78359,-10.818035 45.84617,5.837036 3.67626,7.594138 1.88746,17.871573 -4.06261,23.341482 -6.57397,6.043466 -20.04835,8.65843 -29.342092,5.694401 z"
       id="path37406"
       inkscape:connector-curvature="0" />
    <path
       style="fill:#a89991"
       d="M 76.5,183.37693 C 56.526462,181.30409 49.414407,178.36265 39.842504,168.21593 32.113429,160.0227 25.963282,148.66018 22.930266,136.97024 21.044922,129.70369 20.816265,126.86576 21.321228,117 23.406544,76.257956 45.724537,35.561813 73.44982,21.945189 c 17.980536,-8.830719 44.48167,-7.518421 60.20011,2.981025 22.05993,14.735364 38.59262,43.813155 44.46341,78.202476 2.80865,16.45226 2.30393,27.10637 -1.85383,39.13252 -4.02666,11.64696 -8.40854,18.87265 -16.25951,26.81179 -7.75073,7.83779 -14.63253,11.40075 -25,12.94343 -7.54463,1.12264 -51.043982,2.13428 -58.5,1.3605 z m 53.5,-18.4661 c 11.53322,-1.41502 17.08961,-3.99215 23.157,-10.74056 11.82904,-13.15673 16.55572,-30.07653 13.89203,-49.72843 -1.50888,-11.132106 -5.61239,-27.335266 -8.59589,-33.94184 -1.24189,-2.75 -3.34992,-7.7 -4.6845,-11 C 147.91378,45.022815 137.00844,32.837789 123.5,25.679482 L 117.5,22.5 H 100.98167 84.463344 l -6.899121,3.395097 C 69.405287,29.910157 58.256984,40.395489 52.270721,49.684437 48.824532,55.031926 41.725488,71.855264 38.212355,83 c -4.787375,15.187023 -6.315995,40.01391 -3.016987,49 4.293701,11.6955 8.174152,18.21865 14.746109,24.78862 5.017027,5.01552 9.682682,6.90184 20.067504,8.1133 5.220061,0.60896 11.066019,1.29039 12.991019,1.51429 6.058858,0.70473 37.08634,-0.28906 47,-1.50538 z M 61.324175,153.56051 C 55.752548,151.81836 50.674748,148.58817 47.387055,144.69454 37.919179,133.48168 37.452521,117.41096 46.34423,108.78185 50.063884,105.17204 50.545191,105 56.924238,105 c 5.163999,0 7.849513,0.58126 11.814754,2.55722 12.034864,5.99723 20.661229,22.5957 17.2116,33.1178 -1.820813,5.55386 -5.513946,9.93519 -10.346612,12.27464 -4.819157,2.33292 -8.296631,2.48167 -14.279805,0.61085 z m 61.264395,-3.58563 c -5.6307,-5.1902 -6.91982,-8.44584 -6.42051,-16.21478 0.99253,-15.44321 13.29801,-28.37033 27.5415,-28.93283 5.2788,-0.20847 6.52815,0.11666 9.67695,2.51837 5.67787,4.33072 7.09671,7.86228 7.09285,17.65436 -0.004,9.92064 -1.8889,14.47444 -8.77074,21.18863 -5.75766,5.6174 -10.8475,7.76268 -18.48096,7.78941 -5.94716,0.0208 -6.49874,-0.18672 -10.63909,-4.00316 z M 95.717502,84.966943 C 87.957814,83.0197 80.456771,77.607304 77.382373,71.737184 75.668964,68.465676 75.328183,59.55909 76.778085,55.94363 c 1.625908,-4.054346 6.054319,-8.761104 10.933019,-11.620213 5.960085,-3.492842 17.197756,-4.393745 23.722796,-1.901811 6.87242,2.624601 11.8076,6.757168 14.93181,12.50343 5.6481,10.388375 1.77094,21.651525 -9.40445,27.319975 -6.11527,3.101822 -15.12808,4.25662 -21.243758,2.721932 z"
       id="path37404"
       inkscape:connector-curvature="0" />
    <path
       style="fill:#958d89"
       d="M 73.5,182.95421 C 60.534624,181.63687 55.738485,180.2769 49.235668,176.07392 36.991587,168.16019 27.162667,153.2298 22.854345,136 15.628724,107.10336 32.880693,55.80005 57.434299,33.167326 64.431016,26.717977 73.69226,21.15104 81.237395,18.859276 c 5.917792,-1.797475 8.844916,-2.024508 22.117345,-1.715461 l 15.2969,0.356185 8.92418,4.400269 c 14.84376,7.319054 30.17538,24.457726 39.03752,43.638659 8.15182,17.64356 12.70666,37.213642 12.79192,54.961072 0.0531,11.05198 -0.20132,12.74624 -3.22034,21.44579 -8.23216,23.72165 -22.35719,37.12867 -42.18492,40.04058 -10.07325,1.47936 -49.290851,2.10674 -60.5,0.96784 z m 55.59442,-17.08426 c 5.83015,-0.64842 12.23674,-2.00428 14.57006,-3.08355 6.1066,-2.82457 14.76359,-12.43001 18.80729,-20.86779 7.10948,-14.835 8.06135,-28.26171 3.49708,-49.328397 C 160.5913,67.769767 150.10079,46.789511 137.0055,34.665579 125.49316,24.007179 114.02547,20.255166 96.063482,21.270119 84.550907,21.920643 77.460501,24.35065 69.085571,30.515923 49.784026,44.724911 34.316701,78.985802 32.309174,111.97746 c -0.472564,7.76612 -0.188726,11.06707 1.538848,17.89632 2.560564,10.12213 7.858515,19.928 14.184727,26.25421 6.925058,6.92506 10.977796,8.61436 23.588954,9.83259 5.983063,0.57796 12.453297,1.23394 14.378297,1.45773 5.606028,0.65173 31.76262,-0.28807 43.09442,-1.54836 z M 59.324227,152.36246 c -10.320583,-3.65699 -18.634578,-15.52015 -18.738736,-26.7381 -0.195788,-21.08678 20.519721,-27.91104 36.091004,-11.88937 8.252059,8.49075 12.113262,22.01513 8.360415,29.28348 -1.809867,3.50527 -6.064007,7.91303 -9.23725,9.57081 -3.428033,1.79088 -11.07841,1.68556 -16.475433,-0.22682 z m 67.994453,0.59215 c -4.06238,-1.24656 -10.09838,-8.26339 -10.93235,-12.70883 -1.64917,-8.79084 2.10384,-19.38798 9.60299,-27.11534 14.48134,-14.922026 34.53885,-8.3028 34.4519,11.36956 -0.0338,7.65156 -1.66283,12.33627 -6.35103,18.26427 -6.5441,8.2747 -18.35872,12.77183 -26.77151,10.19034 z M 97.406712,84.903647 C 84.212624,82.499513 76,74.04932 76,62.877696 76,47.642481 94.641804,36.910535 111.26639,42.575102 120.60314,45.756452 128.95608,55.873125 128.95608,64 c 0,4.650057 -2.89006,10.756844 -6.96807,14.72378 -5.14324,5.00315 -16.02513,7.738912 -24.581298,6.179867 z"
       id="path37402"
       inkscape:connector-curvature="0" />
    <path
       style="fill:#90837b"
       d="M 82.5,183.40764 C 63.529791,181.50027 59.067021,180.71948 54.076572,178.43478 39.356552,171.69573 27.745987,155.60986 22.844909,135.16483 20.262438,124.39196 20.74939,113.35389 24.562297,96.235659 32.233745,61.794319 51.01155,33.442484 73.766823,21.94377 c 8.381778,-4.235487 14.699734,-5.223059 30.164337,-4.715048 10.81169,0.355163 14.70782,0.888801 19.17412,2.62621 25.09465,9.761906 45.8105,40.140003 53.97171,79.145068 5.34225,25.53236 1.32328,46.54096 -12.33893,64.5 -8.76551,11.52231 -18.10085,16.68832 -33.46297,18.51782 -9.40727,1.12033 -42.170348,2.05389 -48.77509,1.38982 z M 124,166.95399 c 17.39455,-1.57182 21.1834,-2.94091 28.4528,-10.28132 7.92717,-8.00462 13.13714,-17.98274 15.66211,-29.99602 2.06563,-9.8278 1.95395,-14.42643 -0.7207,-29.67665 -2.15138,-12.266667 -5.69085,-23.286074 -11.42149,-35.558426 -8.86887,-18.992959 -17.88297,-29.257843 -31.74723,-36.152406 -6.9648,-3.463531 -7.81628,-3.63707 -20,-4.076169 C 83.230663,20.456349 74.024035,24.015338 60.540998,38.10003 52.564877,46.432071 48.058779,53.757265 42.022157,68.204595 34.11371,87.131727 29.689118,112.21711 32.044164,124.7752 c 3.636403,19.39081 16.163642,36.81607 28.896668,40.19496 10.335039,2.74254 43.215528,3.77696 63.059168,1.98383 z M 59.328895,151.90744 c -17.997794,-6.92036 -24.629237,-32.06249 -11.394121,-43.1991 3.982173,-3.35078 6.937319,-4.13478 12.639333,-3.35324 5.976788,0.81921 11.082053,3.60924 16.125143,8.81238 12.777231,13.18274 12.243502,31.86752 -1.083162,37.9194 -5.232048,2.37597 -9.771389,2.32596 -16.287193,-0.17944 z m 65.343575,-0.78488 c -1.55515,-1.02534 -4.03015,-3.55617 -5.5,-5.62406 -2.26501,-3.18655 -2.66591,-4.76903 -2.62944,-10.37915 0.0527,-8.11091 2.53438,-14.07085 8.61786,-20.69654 7.35769,-8.01348 18.00728,-11.47654 24.63877,-8.01209 3.6257,1.89416 7.83374,6.45575 9.13672,9.90438 1.71495,4.53899 1.25338,14.67019 -0.88273,19.37521 -2.67353,5.88879 -9.76737,13.25064 -14.88656,15.44899 -5.76012,2.4736 -14.72983,2.46548 -18.49462,-0.0167 z M 93.36471,83.968702 C 83.640388,80.971228 76,71.878366 76,63.302878 76,51.990376 88.565848,41 101.5,41 c 4.97317,0 12.80674,2.715176 17.36944,6.020386 13.84053,10.026024 12.4106,27.738436 -2.86944,35.543516 -4.0552,2.071407 -17.72118,2.919551 -22.63529,1.4048 z"
       id="path37400"
       inkscape:connector-curvature="0" />
    <path
       style="fill:#857872"
       d="M 84,183.39605 C 62.30477,181.46062 59.401903,180.93949 53.073263,177.84407 40.009385,171.45434 28.150093,155.21002 23.254735,137 17.429337,115.33036 26.5391,76.344952 43.467285,50.5 49.751623,40.905445 64.331377,26.996459 72.5,22.802988 c 9.791377,-5.026533 15.688359,-6.091106 31.01473,-5.599042 15.27734,0.490489 21.25508,2.261785 31.72696,9.401179 13.63785,9.297854 27.18157,27.8354 34.74943,47.562206 5.96001,15.5357 10.73505,41.697529 9.53944,52.265339 -0.98652,8.71965 -5.70856,22.56737 -10.37241,30.41778 -5.38709,9.06783 -16.30015,19.31069 -23.40733,21.96982 -2.99172,1.11935 -9.89705,2.53524 -15.34516,3.14643 -10.72884,1.2036 -39.130218,2.0784 -46.40566,1.42935 z m 46.5,-16.42809 c 15.95079,-1.93109 24.13921,-7.94306 32.2533,-23.68049 C 168.68297,131.78676 170.38364,123.80712 169.63457,111 168.58789,93.104442 163.63044,75.337267 154.56651,56.997155 149.80819,47.369071 146.24494,42.474609 138.86209,35.425616 126.26026,23.393666 118.41699,20.646956 98.114695,21.155905 84.458186,21.498255 84.348379,21.51987 76.466448,25.417227 67.154673,30.021596 55.574049,40.919087 49.811308,50.5 39.080381,68.340829 31,96.575717 31,116.23145 c 0,13.84209 5.913579,29.13618 15.190447,39.28655 8.434987,9.22922 11.516788,10.29395 37.309553,12.89007 6.627643,0.66709 37.37694,-0.27509 47,-1.44011 z m -67,-13.87684 c -9.288252,-2.31332 -18.101599,-10.36485 -21.044665,-19.22559 -3.182247,-9.58085 -0.490769,-20.44869 6.357801,-25.67198 4.966057,-3.78752 13.87421,-3.7389 20.444588,0.1116 C 78.643113,113.80535 86,125.63306 86,135.22179 c 0,11.74454 -11.242361,20.67313 -22.5,17.86933 z m 61.95738,-1.95404 c -9.82723,-5.99284 -11.93715,-16.24239 -5.83603,-28.35016 8.44729,-16.76379 25.94406,-22.879538 35.22281,-12.31163 10.13653,11.54487 4.3942,32.24382 -11.08505,39.95746 -6.32377,3.15127 -13.81632,3.43961 -18.30173,0.70433 z M 91.138532,82.886662 C 78.660397,77.976842 72.953589,66.174808 77.895863,55.5 84.788499,40.612611 107.09907,36.891337 120.67209,48.365174 c 8.00429,6.766356 9.75173,19.836702 3.65858,27.364993 -6.91429,8.542841 -21.61395,11.712207 -33.192138,7.156495 z"
       id="path37398"
       inkscape:connector-curvature="0" />
    <path
       style="fill:#756963"
       d="M 89.5,183.32502 C 75.370522,182.75325 60.735835,180.87303 55.684459,178.98049 42.058576,173.87545 28.534791,156.28897 23.40198,137 18.932129,120.20241 23.718207,90.044038 34.457453,67.336474 40.973456,53.558732 47.305569,44.420426 56.869615,34.991947 70.540236,21.515102 81.296117,17.043713 100.11351,17.014781 c 16.76642,-0.02578 27.12099,3.286404 38.37225,12.274374 21.99871,17.573467 36.15522,47.160698 40.55329,84.756705 0.98452,8.41599 0.8802,10.49732 -0.94998,18.95414 -5.55214,25.65495 -22.08352,44.88397 -41.21466,47.94019 -5.96127,0.95232 -38.694698,3.29603 -39.87441,2.85501 -0.275,-0.10281 -3.65,-0.31439 -7.5,-0.47018 z m 40,-15.46155 c 12.21601,-1.30432 16.90203,-3.23895 23.91843,-9.87477 C 159.6844,152.06261 167.01515,138.50787 169.63709,128 174.49463,108.53257 164.42725,67.968566 149.39253,46.429567 139.96944,32.929899 125.26876,22.960349 112,21.071101 103.46085,19.85527 88.788881,20.53913 82.425932,22.449547 71.907113,25.607725 58.127741,36.822833 49.752146,49.042924 44.390247,56.865998 35.601118,79.479363 32.8617,92.5 c -3.18348,15.1313 -3.239931,31.2282 -0.143783,41 4.512005,14.24041 13.907827,26.43466 24.025116,31.18071 4.969284,2.33111 7.99446,2.81649 29.256967,4.69416 6.687697,0.59059 32.07426,-0.29147 43.5,-1.5114 z m -71.847021,-17.3006 c -6.37268,-3.12202 -10.17385,-6.88168 -13.176288,-13.0324 -5.208924,-10.67086 -4.174222,-20.0961 2.992964,-27.26328 4.13462,-4.13462 4.465442,-4.2669 10.648766,-4.25781 10.344495,0.0152 18.758926,5.85809 24.31376,16.88318 3.072424,6.09806 3.909026,10.34644 3.099931,15.74187 -0.732318,4.88345 -4.896603,10.46846 -9.630896,12.91665 -4.305808,2.22662 -12.6033,1.77728 -18.248237,-0.98821 z m 68.797441,1.09169 c -4.13695,-1.88491 -8.16922,-6.89654 -9.48733,-11.79165 -2.08341,-7.73717 1.83259,-18.71563 9.35581,-26.22893 14.66397,-14.644631 33.21882,-8.28071 33.13912,11.36602 -0.0438,10.81055 -5.81451,20.08025 -15.61218,25.07865 -5.24277,2.67466 -13.3683,3.41078 -17.39542,1.57591 z M 95.5,84.128627 C 84.19736,81.172286 75.995292,72.067712 76.015346,62.5 c 0.0078,-3.74076 4.744188,-12.214805 8.375013,-14.98417 10.62578,-8.104678 26.942901,-7.302976 36.447271,1.790748 10.92107,10.449209 8.99233,25.685447 -4.0922,32.326801 -5.59509,2.839916 -15.48628,4.001622 -21.24543,2.495248 z"
       id="path37396"
       inkscape:connector-curvature="0" />
    <path
       style="fill:#6b6664"
       d="M 67.398228,181.55483 C 56.088525,180.02284 50.59315,177.42186 42.325384,169.68777 27.82024,156.11892 19.928312,134.53217 22.033549,114.18362 26.722726,68.859515 51.360227,29.022258 80.639433,19.421668 88.631385,16.801123 111.83923,16.674355 120,19.206668 c 18.92832,5.873518 37.68778,26.105471 48.56124,52.372953 7.30709,17.652054 12.39328,45.419689 10.41004,56.832719 -2.8315,16.2945 -9.35682,29.91467 -19.08219,39.82981 -8.51115,8.67723 -14.33479,11.3842 -28.5664,13.27836 -13.29685,1.76974 -50.963652,1.78997 -63.924462,0.0343 z m 58.812552,-3.63817 c 14.35441,-1.51135 19.81905,-3.27571 26.1706,-8.44965 9.66721,-7.87485 17.83418,-21.78379 21.22516,-36.14796 5.42579,-22.98362 -7.94266,-68.51454 -26.69968,-90.93509 -5.65739,-6.762373 -14.64114,-14.18743 -21.23709,-17.552432 -8.56449,-4.369278 -25.64016,-6.04451 -38.236111,-3.751205 -9.990386,1.818918 -17.951284,6.41728 -27.535008,15.904732 -9.345261,9.251385 -13.776959,15.581454 -19.800657,28.282509 -6.635508,13.991063 -9.633259,23.904428 -13.048105,43.149216 -3.681926,20.74995 2.884967,42.58704 17.073736,56.77581 8.240712,8.24071 13.039488,10.52005 25.876375,12.29084 11.853017,1.63507 42.54906,1.87166 56.21078,0.43323 z M 58.5,150.55652 c -2.75,-1.33317 -5.942482,-3.24127 -7.094405,-4.24023 -7.163513,-6.21227 -11.260422,-17.53968 -9.379453,-25.93294 4.636141,-20.687387 29.737195,-18.75353 40.758035,3.14012 C 92.232072,142.29236 76.82699,159.44123 58.5,150.55652 Z m 69.1838,0.99467 c -7.49289,-2.6723 -10.85878,-7.7774 -10.8175,-16.40709 0.0715,-14.94435 12.9006,-29.11271 26.38082,-29.13472 5.20705,-0.008 6.12403,0.33114 9.75799,3.6142 7.39113,6.67744 8.55241,17.48277 3.04017,28.28767 -2.81375,5.51541 -10.41093,11.82289 -16.37283,13.59338 -6.0499,1.79663 -7.07049,1.80059 -11.98865,0.0466 z M 94.5,83.661626 C 84.920703,80.487325 78.915112,75.112181 76.999546,67.998314 74.540184,58.864942 79.359045,49.917761 89.399832,44.974698 c 6.03817,-2.972581 7.176709,-3.200042 13.839798,-2.764957 8.59193,0.561034 13.8644,2.949243 18.95789,8.587134 9.48872,10.502871 6.90331,24.581916 -5.64115,30.719348 -6.58431,3.221402 -16.03511,4.140673 -22.05637,2.145403 z"
       id="path37394"
       inkscape:connector-curvature="0" />
    <path
       style="fill:#6b625d"
       d="M 75,182.31805 C 64.112209,181.19231 57.915321,179.74057 52.392876,177.02188 40.23833,171.03821 28.329543,154.42835 23.968479,137.37676 16.487812,108.12763 31.387121,60.87526 55.960301,35.916386 68.595721,23.082645 79.596169,18.089226 97,17.287292 c 21.12034,-0.973184 33.20156,3.71727 48,18.635686 17.22316,17.362794 28.21199,40.784556 32.64359,69.577022 3.8828,25.22684 -2.33376,46.81575 -18.14359,63.00924 -8.40224,8.60614 -14.33494,11.25743 -29.12627,13.01638 -10.71017,1.27363 -45.855335,1.77657 -55.37373,0.79243 z m 59.99398,-5.28932 c 9.43409,-1.67209 14.30479,-4.18915 21.52774,-11.12498 7.73796,-7.43037 14.40834,-20.08006 17.04948,-32.33258 4.15067,-19.25538 -2.09993,-48.762138 -15.75905,-74.39259 C 150.75977,45.945257 142.9274,36.405647 133.92268,30.081882 123.61701,22.844493 117.70438,20.873503 104.5,20.273767 91.156849,19.667729 83.586749,20.940057 75.120975,25.211581 67.57993,29.01652 55.627617,39.854147 49.542403,48.404667 36.813441,66.290521 25.994286,99.248614 25.875664,120.5 c -0.09663,17.31209 6.5527,33.95156 18.206774,45.56111 7.333702,7.30568 13.156402,10.00096 24.917562,11.53413 11.539845,1.50431 56.48719,1.11848 65.99398,-0.56651 z M 61.993526,152.06566 C 57.434487,150.67886 53.547002,148.21352 49.79935,144.33242 39.037536,133.1874 39.135329,115.57761 50,108.2011 c 2.965177,-2.01319 4.443655,-2.3182 9.675491,-1.99606 5.020489,0.30914 7.134895,1.02689 11.305173,3.83761 6.304954,4.24947 12.462337,13.10934 14.054225,20.22265 3.281781,14.66454 -8.829421,26.12344 -23.041363,21.80036 z m 66.797834,-0.032 C 117.55401,148.55475 113.73088,136.30727 119.8844,123.5 c 3.28027,-6.82719 9.86329,-13.67604 15.33348,-15.95266 2.04484,-0.85104 6.04155,-1.54734 8.88158,-1.54734 4.74347,0 5.50861,0.34587 9.40184,4.25 9.13422,9.15977 7.52267,25.17154 -3.53932,35.16538 -6.37816,5.76228 -15.11407,8.49326 -21.17062,6.61826 z M 94.950561,83.697305 C 84.307681,80.688206 77.924319,74.132534 77.206291,65.474051 76.604074,58.21211 77.394077,55.678033 81.77538,50.817869 91.516006,40.012627 108.62478,38.99523 119.7955,48.55695 135.3969,61.911165 127.04051,82.692 105.34313,84.49739 102.0343,84.772711 97.526806,84.4257 94.950561,83.697305 Z"
       id="path37392"
       inkscape:connector-curvature="0" />
    <path
       style="fill:#645b58"
       d="M 71.798469,181.98157 C 56.159586,180.19791 48.903594,176.85882 40.012418,167.35412 32.839215,159.68594 25.847696,146.19704 23.442205,135.38482 18.988862,115.3679 26.339148,80.323972 39.822669,57.287743 53.208163,34.418992 70.218821,20.796111 89,17.904382 c 9.46397,-1.457164 23.64003,-0.583428 31.81498,1.960903 30.91223,9.620968 57.55903,56.135378 57.6508,100.634715 0.0249,12.0693 -0.19734,13.62723 -3.10422,21.76121 -4.11425,11.51244 -8.51732,18.77272 -15.93859,26.28134 -7.11988,7.20367 -14.40341,10.98968 -24.09686,12.52566 -8.86593,1.40485 -53.581538,2.04775 -63.527641,0.91336 z M 118,178.98058 c 23.59826,-1.77347 28.43149,-3.18844 37.1518,-10.87651 9.07549,-8.00121 16.32767,-21.80737 19.36776,-36.87087 1.55767,-7.71822 1.55774,-9.13616 9.6e-4,-21.36723 C 172.34085,92.741118 168.33158,79.331573 160.86164,64.18206 151.40628,45.005979 140.62558,32.726478 127,25.61278 118.79557,21.329375 112.43878,20 100.16088,20 84.230112,20 74.896401,23.365188 63.050478,33.379832 50.573809,43.927714 38.842197,62.941572 32.126172,83.5 c -4.17703,12.786309 -7.498916,33.30702 -6.739321,41.63166 1.897002,20.78986 14.256384,41.65698 28.919941,48.82737 6.005354,2.93659 10.189443,3.68039 30.193208,5.36742 8.791198,0.74141 20.66337,0.61884 33.5,-0.34587 z M 59.571902,150.98227 C 49.238344,146.94751 42.027577,136.4692 42.009769,125.46189 41.991018,113.87209 48.531677,106 58.180002,106 c 6.35249,0 10.634319,1.86589 16.330258,7.11622 14.293124,13.17494 14.815347,31.74387 1.068339,37.98745 -5.169845,2.34803 -9.771543,2.31312 -16.006697,-0.1214 z m 64.303148,-1.42121 c -10.44493,-7.09751 -8.69026,-25.16118 3.53459,-36.38732 5.58168,-5.12568 10.03764,-7.17374 15.6079,-7.17374 5.23575,0 9.16832,2.06605 12.66927,6.65603 2.33229,3.0578 2.84999,4.84235 3.15458,10.87422 0.42891,8.49365 -1.49888,13.87111 -7.25804,20.24581 -7.42897,8.22299 -20.19738,10.88881 -27.7083,5.785 z M 94.950561,83.697305 C 81.691007,79.948385 75.169844,70.569107 77.433495,58.502808 78.26343,54.078875 83.913372,47.595004 89.359394,44.816651 c 5.548176,-2.830468 14.009386,-3.432777 20.739336,-1.476326 9.71778,2.825034 17.93288,12.347849 17.87931,20.725399 -0.0467,7.298401 -5.79536,15.289834 -13.23414,18.397198 -5.2532,2.194392 -14.38389,2.763815 -19.793339,1.234383 z"
       id="path37390"
       inkscape:connector-curvature="0" />
    <path
       style="fill:#5a5655"
       d="M 72.5,181.89929 C 60.578754,180.65548 55.618397,179.19928 49.223469,175.06604 41.130668,169.83541 34.597207,162.01127 29.544919,151.5 21.680363,135.13782 20.291883,122.83586 23.991038,102.29249 27.992242,80.071685 37.347873,58.48826 49.63563,43.130463 66.123362,22.523345 84.436335,14.81317 109.83469,17.785298 c 13.83125,1.618539 23.6294,6.595074 34.66141,17.604724 16.79636,16.762326 27.77137,39.500853 32.56001,67.459348 2.4535,14.32475 2.44573,22.49901 -0.0312,32.83047 -5.18442,21.62441 -19.31818,39.40072 -34.66339,43.59687 -12.47827,3.41218 -49.112565,4.78742 -69.86149,2.62258 z m 55.36079,-3.41113 c 15.7512,-1.75963 20.05964,-3.40817 27.63741,-10.5749 10.07569,-9.52917 17.22599,-23.30268 19.61873,-37.79127 2.16639,-13.11798 -1.75167,-36.994373 -9.15224,-55.773107 C 160.02133,59.267761 152.43714,47.302937 142.56695,37.436548 127.99995,22.875163 119.0515,19.481495 97.03196,20.167561 85.087822,20.539706 84.087263,20.736576 76.98026,24.112941 58.601268,32.844354 43.622559,51.60262 33.551516,78.5 c -8.092173,21.61228 -10.503934,47.99107 -5.622825,61.5 6.653149,18.41322 16.366888,30.46482 28.713347,35.62393 9.702961,4.0545 47.100832,5.55854 71.218752,2.86423 z M 60.969379,151.51581 c -5.661725,-1.81 -12.176238,-7.30628 -15.6153,-13.17459 -3.815025,-6.50985 -4.427812,-16.49173 -1.396804,-22.75296 6.016305,-12.42803 21.158099,-12.65589 32.53819,-0.48965 14.166705,15.14535 10.564907,35.49895 -6.615666,37.38483 -2.45518,0.2695 -6.370694,-0.1557 -8.91042,-0.96763 z m 65.475951,-0.47472 c -2.84408,-1.15183 -8.28194,-7.5419 -9.06161,-10.64835 -0.35484,-1.41382 -0.39978,-4.94814 -0.0999,-7.85406 C 118.6818,118.99389 131.35513,106 143.16784,106 c 15.68265,0 21.3903,22.64174 9.27551,36.79514 -6.35657,7.42623 -18.50662,11.27994 -25.99802,8.24595 z M 95,83.434854 C 83.859952,80.448979 77.048016,72.955159 77.01645,63.651129 76.99546,57.463685 79.215119,52.827675 84.270318,48.500613 97.219347,37.416727 118.67183,41.508337 125.59784,56.38297 c 2.85184,6.124753 2.97697,9.754889 0.5225,15.1584 C 121.5005,81.711906 107.92654,86.899565 95,83.434854 Z"
       id="path37388"
       inkscape:connector-curvature="0" />
    <path
       style="fill:#4a4544"
       d="m 80.5,182.31662 c -14.14383,-1.2276 -21.272746,-2.52378 -26.142587,-4.75327 -14.617045,-6.6919 -25.568193,-21.80461 -30.39811,-41.94973 -2.456908,-10.24752 -2.4604,-17.48377 -0.01534,-31.78585 4.656372,-27.236847 15.475753,-50.187228 31.40618,-66.619685 8.521516,-8.79006 15.693287,-13.709631 24.537132,-16.831566 5.614917,-1.982103 8.58034,-2.337517 19.652625,-2.355427 18.94803,-0.03065 27.36097,2.60567 39.73402,12.451236 11.97881,9.531866 25.37038,30.225031 31.72373,49.020724 7.07838,20.940628 9.38297,44.011238 5.74453,57.506948 -5.32789,19.76224 -19.86196,37.81277 -33.90791,42.11179 -8.85041,2.70883 -46.026886,4.62021 -62.33427,3.20483 z m 55.3619,-4.24866 c 11.63495,-2.09893 19.86991,-7.61279 27.5948,-18.47656 C 177.90044,139.27867 179.74231,116.17612 169.52313,83.5 160.75376,55.459667 145.01222,34.058129 126.35814,24.814665 L 117.65078,20.5 H 100.57539 83.5 l -7.624085,3.727017 c -8.844774,4.323748 -20.639224,14.761386 -27.320559,24.17765 -13.426409,18.92236 -23.708177,50.166451 -23.846284,72.463753 -0.09939,16.04589 6.581083,33.02357 17.650503,44.85681 7.586777,8.11029 14.995154,11.76017 26.640425,13.12491 10.900147,1.27742 58.53394,0.72018 66.8619,-0.78218 z M 62.803211,151.59138 c -15.156031,-4.05034 -24.756163,-21.19254 -19.250163,-34.3735 7.256825,-17.3723 29.535102,-13.25709 39.068716,7.21672 5.44078,11.68429 0.959207,24.99414 -9.121764,27.09077 -1.65,0.34317 -3.675,0.78083 -4.5,0.97257 -0.825,0.19175 -3.613555,-0.2162 -6.196789,-0.90656 z M 124.98983,149.75 c -5.89967,-4.01528 -7.49201,-7.12208 -7.47118,-14.57688 0.0312,-11.14294 6.76615,-21.71909 17.0282,-26.73985 21.26714,-10.405037 33.76178,18.19143 15.79749,36.15572 -7.38202,7.38202 -18.70474,9.68681 -25.35451,5.16101 z M 89.103751,80.893981 C 79.258315,75.974159 74.907698,66.869766 77.969249,57.593175 83.252071,41.586068 108.00987,37.16372 120.79042,49.944267 c 4.75038,4.750382 6.59218,8.857382 6.53919,14.581679 -0.11098,11.989402 -9.42507,19.408705 -24.41989,19.452092 -6.516013,0.01885 -8.469991,-0.417637 -13.805969,-3.084057 z"
       id="path37386"
       inkscape:connector-curvature="0" />
    <path
       style="fill:#46403e"
       d="M 79.100906,181.87598 C 57.720579,180.43316 50.573341,177.64378 40.405271,166.77408 29.051618,154.63699 22.543726,137.89731 22.609662,121 22.67762,103.58432 28.397102,81.121669 37.250417,63.5 43.232311,51.593617 48.411539,44.399012 57.410082,35.49567 70.786574,22.260695 81.280198,18 100.5,18 c 16.84819,0 27.5146,3.564353 38.70466,12.933789 20.24589,16.951889 33.43163,44.015726 38.45282,78.924761 1.42085,9.87819 1.47868,12.6544 0.39789,19.09983 -3.32591,19.83438 -13.71645,37.46032 -27.18892,46.12175 -5.85264,3.76266 -14.40354,5.54896 -32.86645,6.86586 -16.13861,1.15111 -20.931923,1.14248 -38.899094,-0.07 z M 131.5,178.99999 c 12.14079,-1.48996 19.4741,-5.07943 27.15735,-13.29285 6.70134,-7.16375 12.11605,-16.84992 15.4887,-27.70714 4.82163,-15.52176 1.66572,-41.200249 -8.03762,-65.399271 C 157.49895,51.129685 141.84587,31.94765 127,24.675368 117.84333,20.189953 107.38746,18.501624 94.587992,19.441739 79.405207,20.556906 69.207088,25.519948 57.352413,37.562898 38.225979,56.993094 24.800062,91.246302 24.648335,121 c -0.05055,9.91226 0.311308,12.60451 2.620922,19.5 3.525257,10.52486 8.937625,19.6016 15.83674,26.5588 8.406185,8.47696 13.962055,10.78195 30.029674,12.45856 14.819787,1.5464 43.628829,1.29102 58.364329,-0.51737 z M 58.379218,150.02525 C 43.23217,143.2858 37.234183,122.33748 47.310181,111.36598 c 10.158085,-11.06088 30.114746,-2.14936 36.382856,16.24653 4.401024,12.9163 -3.010228,24.47548 -15.59092,24.31685 -3.118516,-0.0393 -7.428994,-0.88348 -9.722899,-1.90411 z m 68.123012,0.46283 c -4.63751,-2.51627 -6.2927,-4.37257 -8.08613,-9.06859 -5.9651,-15.61939 13.4831,-39.06195 28.63909,-34.5211 6.51635,1.95235 11.92188,10.17892 11.93923,18.17011 0.0188,8.65323 -7.11453,19.91148 -15.24381,24.05873 -5.52001,2.8161 -13.41792,3.43922 -17.24838,1.36085 z M 91.581217,81.985801 C 72.255873,74.439785 72.354654,52.451045 91.750392,44.327085 c 5.529943,-2.316232 14.761048,-2.023044 21.015298,0.667464 5.39178,2.319483 11.60837,8.228911 13.27894,12.622828 2.67013,7.022975 -0.17355,17.202047 -5.95592,21.319456 -7.40152,5.27035 -19.50367,6.564714 -28.507493,3.048968 z"
       id="path37384"
       inkscape:connector-curvature="0" />
    <path
       style="fill:#433d40"
       d="M 79.5,181.88166 C 57.637771,180.36465 50.540225,177.60838 40.295806,166.65706 29.190864,154.78585 22.599702,137.88947 22.680344,121.5 22.835578,89.950523 38.787492,51.702394 59.469044,33.291216 71.949296,22.181016 82.919921,18 99.591868,18 c 20.339842,0 30.795362,4.204683 44.520502,17.903898 16.65495,16.623494 26.19026,35.933402 32.0021,64.807272 4.24342,21.08185 2.49731,35.5386 -6.36908,52.73224 -4.93872,9.57712 -14.8179,20.03702 -22.12532,23.42588 -9.28194,4.30456 -42.78913,6.77007 -68.12007,5.01237 z m 46.60384,-2.34693 c 7.48211,-0.79412 15.43288,-2.07402 17.66837,-2.84421 18.45188,-6.35718 34.64585,-35.5412 32.84433,-59.19052 C 174.69257,92.243085 166.75073,68.529036 153.56162,48.658801 147.7136,39.848382 134.94,28.347824 126.60694,24.39047 110.68648,16.829878 87.84857,17.17405 72.762641,25.201915 65.773742,28.921006 51.803558,42.050084 47.439947,49 32.300248,73.112971 24.64976,97.176166 24.548756,121 c -0.04052,9.55703 0.352312,12.68268 2.325073,18.5 3.845794,11.34056 9.139259,20.49223 15.759813,27.24655 9.344308,9.53309 15.093934,11.59357 37.866358,13.57007 10.487681,0.91026 33.35452,0.5182 45.60384,-0.78189 z M 60.172551,150.7837 c -4.788395,-1.60807 -12.645349,-9.0632 -15.273624,-14.49249 -2.903387,-5.9976 -3.114621,-15.18219 -0.473721,-20.59766 5.684259,-11.65621 20.094144,-12.20631 31.12719,-1.18827 6.129074,6.12073 8.947604,12.6323 8.947604,20.67139 0,7.18874 -1.440248,10.19636 -6.798351,14.19676 -3.168207,2.36541 -12.459148,3.11289 -17.529098,1.41027 z M 128.5,151.33676 c -6.98706,-1.8883 -12.26935,-10.72066 -11.09502,-18.55166 3.11257,-20.75616 25.46757,-33.805784 36.46159,-21.28428 11.86963,13.51875 0.22423,38.44439 -18.68496,39.99303 -2.57489,0.21088 -5.58161,0.14019 -6.68161,-0.15709 z M 91.284944,81.891043 C 80.330043,77.679815 74.781003,67.098884 78.466447,57.448686 82.028516,48.121541 90.147745,43.043924 101.5,43.043924 c 18.44095,0 30.77864,15.688766 23.52264,29.911699 -4.98357,9.768596 -20.72498,13.937705 -33.737696,8.93542 z"
       id="path37382"
       inkscape:connector-curvature="0" />
    <path
       style="fill:#423c3a"
       d="M 70,181.03069 C 55.495097,179.20537 48.799895,175.87165 39.529668,165.8587 29.250924,154.75643 22.652375,137.36592 22.698476,121.5 22.787759,90.772673 37.030883,55.537982 57.462755,35.5 70.693941,22.523888 81.373474,18.148467 100,18.072427 c 19.76318,-0.08068 30.37255,4.227834 44.04892,17.888482 19.34007,19.317833 29.9729,43.744447 33.99013,78.084951 0.98452,8.41599 0.8802,10.49732 -0.94998,18.95414 -2.89202,13.36326 -9.43552,26.29824 -17.41867,34.43268 -7.16591,7.30171 -13.88171,11.02327 -22.8085,12.63932 -7.67592,1.38961 -57.734,2.10735 -66.8619,0.95869 z m 56,-1.51794 c 17.06008,-1.85239 19.51331,-2.58028 26.81659,-7.95665 14.7068,-10.82653 25.26609,-34.8095 23.79995,-54.0561 C 174.69257,92.243085 166.75073,68.529036 153.56162,48.658801 147.7136,39.848382 134.94,28.347824 126.60694,24.39047 115.20648,18.976418 99.815893,17.484048 85.868929,20.440252 64.194088,25.03446 44.669771,46.214565 32.73334,78.082082 24.550185,99.929217 22.114043,125.46424 26.873829,139.5 c 5.905757,17.41503 16.253897,30.91028 27.759813,36.20224 10.534824,4.84532 44.924946,6.68153 71.366358,3.81051 z M 59,149.97697 C 42.647549,142.38171 36.986816,122.01318 48.13122,110.86878 51.768868,107.23113 52.360837,107 58.039838,107 c 9.952916,0 18.133669,5.62753 23.671266,16.28343 2.135822,4.10992 2.719191,6.63297 2.749908,11.89324 0.04202,7.19652 -1.377985,10.17898 -6.759363,14.19676 -3.9877,2.97725 -12.967197,3.26703 -18.701649,0.60354 z m 69.5,1.35979 c -6.9888,-1.88877 -12.32091,-10.80163 -11.08518,-18.52942 1.98923,-12.44 13.35445,-25.14061 23.09906,-25.81317 7.05629,-0.48701 8.73863,0.023 12.50767,3.79208 13.0679,13.06791 1.65462,39.11102 -17.83994,40.7076 -2.57489,0.21088 -5.58161,0.14019 -6.68161,-0.15709 z M 93,82.463418 C 84.287557,79.75815 77.07756,71.176806 77.021962,63.446344 76.988935,58.854129 81.477487,50.86218 85.750422,47.905164 91.00773,44.266929 95.338975,42.996546 102.39922,43.021962 116.01217,43.070967 127,52.697092 127,64.574007 c 0,14.19936 -17.02863,23.159128 -34,17.889411 z"
       id="path37380"
       inkscape:connector-curvature="0" />
    <path
       style="fill:#302c4b"
       d="m 73.5,181.0929 c -2.75,-0.3261 8.95,-0.5929 26,-0.5929 17.05,0 28.525,0.293 25.5,0.6511 -6.75348,0.7995 -44.627862,0.75669 -51.5,-0.0582 z m -10.230968,-1.78589 c 0.972967,-0.25354 2.322967,-0.23687 3,0.0371 0.677032,0.27393 -0.119032,0.48137 -1.769032,0.46099 -1.65,-0.0204 -2.203936,-0.2445 -1.230968,-0.49804 z m 70.999998,0 c 0.97297,-0.25354 2.32297,-0.23687 3,0.0371 0.67703,0.27393 -0.11903,0.48137 -1.76903,0.46099 -1.65,-0.0204 -2.20394,-0.2445 -1.23097,-0.49804 z m -81.11069,-2.9154 C 42.388151,171.0246 32.480544,158.95127 27.161845,144.71249 c -3.149308,-8.43107 -2.536648,-9.455 0.725483,-1.21249 3.847303,9.72107 5.733226,13.14769 10.789584,19.6041 5.016561,6.40559 11.446229,11.35279 18.175019,13.98446 2.556438,0.99984 3.948924,1.83894 3.094413,1.86467 -0.85451,0.0257 -3.909112,-1.127 -6.788004,-2.56162 z m 95.18119,-1.5074 c 11.54716,-6.47205 21.12938,-19.86288 26.39361,-36.88421 1.36862,-4.4253 2.06756,-5.86016 1.7049,-3.5 -1.99539,12.98553 -12.43706,30.55878 -22.60498,38.04398 -3.32919,2.45081 -6.41677,4.45602 -6.86128,4.45602 -0.44451,0 -1.63251,0.26037 -2.63999,0.5786 -1.00749,0.31823 0.796,-0.89425 4.00774,-2.69439 z M 61.993526,151.11851 C 50.489105,147.37646 42.8,136.92752 42.8,125.0359 c 0,-10.99427 6.036277,-18.02478 15.482119,-18.03216 6.325857,-0.005 11.273508,2.17521 16.552067,7.2936 11.590376,11.23866 13.196429,27.0011 3.5044,34.39357 -3.734003,2.84807 -11.504367,4.00213 -16.34506,2.4276 z m 66.974944,-0.0375 c -13.90994,-4.34728 -15.309,-22.07727 -2.81194,-35.63498 C 131.60935,109.5304 136.59936,107 142.81228,107 c 16.17852,0 21.12285,21.61493 8.28812,36.23287 -5.27875,6.01216 -15.92589,9.78771 -22.13193,7.84813 z M 24.078947,133.41667 c 0.04798,-1.16495 0.284941,-1.4019 0.604167,-0.60417 0.288871,0.72187 0.253344,1.58437 -0.07895,1.91667 -0.332292,0.33229 -0.568641,-0.25834 -0.52522,-1.3125 z M 23.232003,128 c 0,-1.925 0.205795,-2.7125 0.457323,-1.75 0.251527,0.9625 0.251527,2.5375 0,3.5 -0.251528,0.9625 -0.457323,0.175 -0.457323,-1.75 z m 154.002317,-7 c 0.0138,-8.60916 0.0892,-8.98939 0.80498,-4.05485 0.43438,2.99483 0.42754,7.26983 -0.0152,9.5 -0.63221,3.18458 -0.80172,2.01592 -0.78979,-5.44515 z M 23.286014,115.5 c 0.0075,-2.75 0.201713,-3.75631 0.431567,-2.23625 0.229855,1.52006 0.223712,3.77006 -0.01365,5 C 23.466569,119.49369 23.278507,118.25 23.286014,115.5 Z M 175.61538,105.38462 c -0.36634,-3.117 -0.46678,-5.866554 -0.2232,-6.110133 0.24358,-0.243578 0.7594,2.090593 1.14628,5.187053 0.38688,3.09646 0.48732,5.84601 0.22321,6.11013 -0.26412,0.26411 -0.77994,-2.07006 -1.14629,-5.18705 z M 24.194949,106.5 c 0.02038,-1.65 0.244498,-2.20394 0.498042,-1.23097 0.253543,0.97297 0.236869,2.32297 -0.03705,3 C 24.382014,108.94606 24.174569,108.15 24.194949,106.5 Z m 0.962946,-5.5 c 0,-1.375 0.226973,-1.9375 0.504386,-1.25 0.277412,0.6875 0.277412,1.8125 0,2.5 -0.277413,0.6875 -0.504386,0.125 -0.504386,-1.25 z m 1.041465,-4.5 c 0,-1.1 0.360288,-3.125 0.80064,-4.5 0.633973,-1.979583 0.80064,-2.083666 0.80064,-0.5 0,1.1 -0.360288,3.125 -0.80064,4.5 -0.633973,1.979583 -0.80064,2.083666 -0.80064,0.5 z M 173.057,92.256159 c -4.69972,-21.40188 -18.89538,-46.862074 -33.35299,-59.819274 -4.15501,-3.723798 -4.3593,-4.028879 -1.01347,-1.513476 8.37576,6.296929 18.52499,19.480659 25.07841,32.576591 4.99467,9.981027 12.34201,32.722371 11.00425,34.060136 -0.2487,0.248699 -1.02099,-2.13809 -1.7162,-5.303977 z M 28.532104,86.5 C 29.925876,79.53932 40.873098,55 42.584551,55 c 0.240774,0 -1.425762,3.706381 -3.703412,8.236402 -2.27765,4.530022 -5.673107,12.292522 -7.545461,17.25 C 29.463325,85.443881 28.201717,88.15 28.532104,86.5 Z M 95.5,83.086746 C 90.202647,81.61411 87.460672,80.25851 84.157713,77.479253 72.757409,67.88653 76.341154,51.401412 91.21814,45.001505 c 7.441675,-3.201323 17.79827,-2.515704 24.48962,1.621241 14.86505,9.190354 14.88979,26.930139 0.0481,34.501795 C 111.386,83.353887 100.31781,84.426072 95.5,83.086746 Z M 43.970194,52.055694 c 0.572308,-1.069369 1.534818,-2.249775 2.13891,-2.623124 0.604092,-0.373349 0.324918,0.501588 -0.620387,1.944306 -2.001622,3.054861 -3.038114,3.518198 -1.518523,0.678818 z M 48.043043,46.5 c 4.059213,-5.612124 8.655235,-10.651735 12.822303,-14.059855 3.204129,-2.620562 2.023862,-1.035708 -3.82386,5.134654 C 46.346777,48.859574 46.309982,48.896069 48.043043,46.5 Z M 127,24 c -0.90129,-0.58246 -1.02463,-0.975486 -0.30902,-0.984687 0.65504,-0.0084 1.4691,0.434687 1.80902,0.984687 0.7673,1.241525 0.42112,1.241525 -1.5,0 z M 96.776433,18.266503 c 2.352038,-0.211245 5.952037,-0.208273 7.999997,0.0066 2.04796,0.214878 0.12357,0.387715 -4.27643,0.384083 -4.4,-0.0036 -6.075605,-0.179441 -3.723567,-0.390687 z"
       id="path37378"
       inkscape:connector-curvature="0" />
    <path
       style="fill:#2d2b48"
       d="m 73.5,181.0929 c -2.75,-0.3261 8.95,-0.5929 26,-0.5929 17.05,0 28.525,0.293 25.5,0.6511 -6.75348,0.7995 -44.627862,0.75669 -51.5,-0.0582 z m -10.230968,-1.78589 c 0.972967,-0.25354 2.322967,-0.23687 3,0.0371 0.677032,0.27393 -0.119032,0.48137 -1.769032,0.46099 -1.65,-0.0204 -2.203936,-0.2445 -1.230968,-0.49804 z m 70.999998,0 c 0.97297,-0.25354 2.32297,-0.23687 3,0.0371 0.67703,0.27393 -0.11903,0.48137 -1.76903,0.46099 -1.65,-0.0204 -2.20394,-0.2445 -1.23097,-0.49804 z m -81.11069,-2.9154 C 42.388151,171.0246 32.480544,158.95127 27.161845,144.71249 c -3.149308,-8.43107 -2.536648,-9.455 0.725483,-1.21249 3.847303,9.72107 5.733226,13.14769 10.789584,19.6041 5.016561,6.40559 11.446229,11.35279 18.175019,13.98446 2.556438,0.99984 3.948924,1.83894 3.094413,1.86467 -0.85451,0.0257 -3.909112,-1.127 -6.788004,-2.56162 z m 95.18119,-1.5074 c 11.54716,-6.47205 21.12938,-19.86288 26.39361,-36.88421 1.36862,-4.4253 2.06756,-5.86016 1.7049,-3.5 -1.99539,12.98553 -12.43706,30.55878 -22.60498,38.04398 -3.32919,2.45081 -6.41677,4.45602 -6.86128,4.45602 -0.44451,0 -1.63251,0.26037 -2.63999,0.5786 -1.00749,0.31823 0.796,-0.89425 4.00774,-2.69439 z M 61.993526,151.11851 C 50.489105,147.37646 42.8,136.92752 42.8,125.0359 c 0,-10.99427 6.036277,-18.02478 15.482119,-18.03216 6.325857,-0.005 11.273508,2.17521 16.552067,7.2936 11.590376,11.23866 13.196429,27.0011 3.5044,34.39357 -3.734003,2.84807 -11.504367,4.00213 -16.34506,2.4276 z M 72,134.85113 c 0,-1.29175 0.584042,-1.84074 1.75,-1.64497 1.387591,0.23299 1.811327,-0.53814 2.046135,-3.72362 C 76.095348,125.42333 73.707914,118 72.103211,118 c -0.478471,0 -1.105304,-0.9 -1.39296,-2 -0.287656,-1.1 -1.359305,-2 -2.381441,-2 -1.022135,0 -3.600144,-0.9335 -5.728908,-2.07445 -4.789547,-2.56705 -8.039654,-1.90963 -10.081713,2.03928 -2.921926,5.65038 -1.070786,13.83473 4.267988,18.86984 4.391414,4.14164 6.147106,4.81991 11.22318,4.33583 C 71.160484,136.86999 72,136.38206 72,134.85113 Z m -7.664167,-8.41835 c -0.788135,-2.05384 0.793721,-3.58878 2.568243,-2.49206 C 68.415353,124.87474 67.7193,128 66,128 c -0.584523,0 -1.333399,-0.70525 -1.664167,-1.56722 z M 55,121 c 0,-1.86667 0.266667,-2.13333 1.2,-1.2 0.933333,0.93333 0.933333,1.46667 0,2.4 -0.933333,0.93333 -1.2,0.66667 -1.2,-1.2 z m 73.96847,30.081 c -13.90994,-4.34728 -15.309,-22.07727 -2.81194,-35.63498 C 131.60935,109.5304 136.59936,107 142.81228,107 c 16.17852,0 21.12285,21.61493 8.28812,36.23287 -5.27875,6.01216 -15.92589,9.78771 -22.13193,7.84813 z m 10.73279,-15.58186 c 7.23368,-3.60863 11.04323,-9.89751 7.89973,-13.04101 -2.04635,-2.04635 -2.04129,-4.11235 0.0129,-5.26193 2.19686,-1.22942 0.92916,-4.99165 -2.15557,-6.39714 C 142.96999,109.6653 137,111.30438 137,113.12132 137,113.60459 136.03711,114 134.86024,114 c -5.9439,0 -11.26125,15.12707 -7.30354,20.77749 1.87644,2.679 7.54569,3.01587 12.14456,0.72165 z M 134,120 c 0,-0.55 0.45,-1 1,-1 0.55,0 1,0.45 1,1 0,0.55 -0.45,1 -1,1 -0.55,0 -1,-0.45 -1,-1 z M 24.078947,133.41667 c 0.04798,-1.16495 0.284941,-1.4019 0.604167,-0.60417 0.288871,0.72187 0.253344,1.58437 -0.07895,1.91667 -0.332292,0.33229 -0.568641,-0.25834 -0.52522,-1.3125 z M 23.232003,128 c 0,-1.925 0.205795,-2.7125 0.457323,-1.75 0.251527,0.9625 0.251527,2.5375 0,3.5 -0.251528,0.9625 -0.457323,0.175 -0.457323,-1.75 z m 154.002317,-7 c 0.0138,-8.60916 0.0892,-8.98939 0.80498,-4.05485 0.43438,2.99483 0.42754,7.26983 -0.0152,9.5 -0.63221,3.18458 -0.80172,2.01592 -0.78979,-5.44515 z M 23.286014,115.5 c 0.0075,-2.75 0.201713,-3.75631 0.431567,-2.23625 0.229855,1.52006 0.223712,3.77006 -0.01365,5 C 23.466569,119.49369 23.278507,118.25 23.286014,115.5 Z M 175.61538,105.38462 c -0.36634,-3.117 -0.46678,-5.866554 -0.2232,-6.110133 0.24358,-0.243578 0.7594,2.090593 1.14628,5.187053 0.38688,3.09646 0.48732,5.84601 0.22321,6.11013 -0.26412,0.26411 -0.77994,-2.07006 -1.14629,-5.18705 z M 24.194949,106.5 c 0.02038,-1.65 0.244498,-2.20394 0.498042,-1.23097 0.253543,0.97297 0.236869,2.32297 -0.03705,3 C 24.382014,108.94606 24.174569,108.15 24.194949,106.5 Z m 0.962946,-5.5 c 0,-1.375 0.226973,-1.9375 0.504386,-1.25 0.277412,0.6875 0.277412,1.8125 0,2.5 -0.277413,0.6875 -0.504386,0.125 -0.504386,-1.25 z m 1.041465,-4.5 c 0,-1.1 0.360288,-3.125 0.80064,-4.5 0.633973,-1.979583 0.80064,-2.083666 0.80064,-0.5 0,1.1 -0.360288,3.125 -0.80064,4.5 -0.633973,1.979583 -0.80064,2.083666 -0.80064,0.5 z M 173.057,92.256159 c -4.69972,-21.40188 -18.89538,-46.862074 -33.35299,-59.819274 -4.15501,-3.723798 -4.3593,-4.028879 -1.01347,-1.513476 8.37576,6.296929 18.52499,19.480659 25.07841,32.576591 4.99467,9.981027 12.34201,32.722371 11.00425,34.060136 -0.2487,0.248699 -1.02099,-2.13809 -1.7162,-5.303977 z M 28.532104,86.5 C 29.925876,79.53932 40.873098,55 42.584551,55 c 0.240774,0 -1.425762,3.706381 -3.703412,8.236402 -2.27765,4.530022 -5.673107,12.292522 -7.545461,17.25 C 29.463325,85.443881 28.201717,88.15 28.532104,86.5 Z M 95.5,83.086746 C 90.202647,81.61411 87.460672,80.25851 84.157713,77.479253 72.757409,67.88653 76.341154,51.401412 91.21814,45.001505 c 7.441675,-3.201323 17.79827,-2.515704 24.48962,1.621241 14.86505,9.190354 14.88979,26.930139 0.0481,34.501795 C 111.386,83.353887 100.31781,84.426072 95.5,83.086746 Z M 111.60525,68.52047 c 4.0594,-1.696127 7.31298,-5.174167 7.36148,-7.869341 0.0183,-1.016879 -0.693,-3.379379 -1.58067,-5.25 C 116.20342,52.908893 115.12277,52 113.34222,52 c -1.75946,0 -2.34882,-0.482847 -2.13606,-1.75 0.20455,-1.218187 -0.37372,-1.759128 -1.90286,-1.780036 -1.20819,-0.01652 -2.52069,-0.35402 -2.91667,-0.75 -1.12927,-1.12927 -7.525258,-0.815778 -11.481199,0.562739 -1.977014,0.688924 -5.077302,2.735322 -6.889531,4.54755 -3.159065,3.159066 -3.247217,3.454313 -2.137368,7.158658 1.564707,5.222526 6.262816,9.132819 10.060313,8.37332 1.574581,-0.314916 3.694987,-0.08893 4.712015,0.502188 2.60861,1.516183 6.81886,1.383988 10.95439,-0.343949 z m 0.46851,-3.931597 c -0.87053,-1.04892 -0.86997,-2.512556 0.002,-5.97657 C 113.52238,52.868358 115,53.569629 115,60 c 0,5.204586 -1.04943,6.850288 -2.92624,4.588873 z M 43.970194,52.055694 c 0.572308,-1.069369 1.534818,-2.249775 2.13891,-2.623124 0.604092,-0.373349 0.324918,0.501588 -0.620387,1.944306 -2.001622,3.054861 -3.038114,3.518198 -1.518523,0.678818 z M 48.043043,46.5 c 4.059213,-5.612124 8.655235,-10.651735 12.822303,-14.059855 3.204129,-2.620562 2.023862,-1.035708 -3.82386,5.134654 C 46.346777,48.859574 46.309982,48.896069 48.043043,46.5 Z M 127,24 c -0.90129,-0.58246 -1.02463,-0.975486 -0.30902,-0.984687 0.65504,-0.0084 1.4691,0.434687 1.80902,0.984687 0.7673,1.241525 0.42112,1.241525 -1.5,0 z M 96.776433,18.266503 c 2.352038,-0.211245 5.952037,-0.208273 7.999997,0.0066 2.04796,0.214878 0.12357,0.387715 -4.27643,0.384083 -4.4,-0.0036 -6.075605,-0.179441 -3.723567,-0.390687 z"
       id="path37376"
       inkscape:connector-curvature="0" />
    <path
       style="fill:#332f33"
       d="m 73.5,181.0929 c -2.75,-0.3261 8.95,-0.5929 26,-0.5929 17.05,0 28.525,0.293 25.5,0.6511 -6.75348,0.7995 -44.627862,0.75669 -51.5,-0.0582 z m -10.230968,-1.78589 c 0.972967,-0.25354 2.322967,-0.23687 3,0.0371 0.677032,0.27393 -0.119032,0.48137 -1.769032,0.46099 -1.65,-0.0204 -2.203936,-0.2445 -1.230968,-0.49804 z m 70.999998,0 c 0.97297,-0.25354 2.32297,-0.23687 3,0.0371 0.67703,0.27393 -0.11903,0.48137 -1.76903,0.46099 -1.65,-0.0204 -2.20394,-0.2445 -1.23097,-0.49804 z m -81.11069,-2.9154 C 42.388151,171.0246 32.480544,158.95127 27.161845,144.71249 c -3.149308,-8.43107 -2.536648,-9.455 0.725483,-1.21249 3.847303,9.72107 5.733226,13.14769 10.789584,19.6041 5.016561,6.40559 11.446229,11.35279 18.175019,13.98446 2.556438,0.99984 3.948924,1.83894 3.094413,1.86467 -0.85451,0.0257 -3.909112,-1.127 -6.788004,-2.56162 z m 95.18119,-1.5074 c 11.54716,-6.47205 21.12938,-19.86288 26.39361,-36.88421 1.36862,-4.4253 2.06756,-5.86016 1.7049,-3.5 -1.99539,12.98553 -12.43706,30.55878 -22.60498,38.04398 -3.32919,2.45081 -6.41677,4.45602 -6.86128,4.45602 -0.44451,0 -1.63251,0.26037 -2.63999,0.5786 -1.00749,0.31823 0.796,-0.89425 4.00774,-2.69439 z M 61.993526,151.11851 C 50.489105,147.37646 42.8,136.92752 42.8,125.0359 c 0,-10.99427 6.036277,-18.02478 15.482119,-18.03216 6.325857,-0.005 11.273508,2.17521 16.552067,7.2936 11.590376,11.23866 13.196429,27.0011 3.5044,34.39357 -3.734003,2.84807 -11.504367,4.00213 -16.34506,2.4276 z M 75.545455,136.54545 C 82.222887,129.86802 75.205541,114.22188 63.840171,110.44691 54.314792,107.28309 50,110.43982 50,120.57247 c 0,5.2349 0.4414,6.73679 3.030243,10.31058 4.243722,5.85829 8.339193,8.10868 14.765212,8.11321 4.29197,0.003 5.760588,-0.46139 7.75,-2.45081 z M 128.96847,151.081 c -13.90994,-4.34728 -15.309,-22.07727 -2.81194,-35.63498 C 131.60935,109.5304 136.59936,107 142.81228,107 c 16.17852,0 21.12285,21.61493 8.28812,36.23287 -5.27875,6.01216 -15.92589,9.78771 -22.13193,7.84813 z m 11.81671,-13.76562 c 7.68164,-4.76666 10.35768,-9.15118 10.35768,-16.97036 0,-9.23793 -4.20361,-12.84182 -12.18839,-10.44953 -8.38816,2.51316 -14.25701,10.6503 -14.38243,19.94119 -0.0601,4.45106 0.31973,5.6542 2.28874,7.25 2.98654,2.42046 10.20134,2.53896 13.9244,0.2287 z M 24.078947,133.41667 c 0.04798,-1.16495 0.284941,-1.4019 0.604167,-0.60417 0.288871,0.72187 0.253344,1.58437 -0.07895,1.91667 -0.332292,0.33229 -0.568641,-0.25834 -0.52522,-1.3125 z M 23.232003,128 c 0,-1.925 0.205795,-2.7125 0.457323,-1.75 0.251527,0.9625 0.251527,2.5375 0,3.5 -0.251528,0.9625 -0.457323,0.175 -0.457323,-1.75 z m 154.002317,-7 c 0.0138,-8.60916 0.0892,-8.98939 0.80498,-4.05485 0.43438,2.99483 0.42754,7.26983 -0.0152,9.5 -0.63221,3.18458 -0.80172,2.01592 -0.78979,-5.44515 z M 23.286014,115.5 c 0.0075,-2.75 0.201713,-3.75631 0.431567,-2.23625 0.229855,1.52006 0.223712,3.77006 -0.01365,5 C 23.466569,119.49369 23.278507,118.25 23.286014,115.5 Z M 175.61538,105.38462 c -0.36634,-3.117 -0.46678,-5.866554 -0.2232,-6.110133 0.24358,-0.243578 0.7594,2.090593 1.14628,5.187053 0.38688,3.09646 0.48732,5.84601 0.22321,6.11013 -0.26412,0.26411 -0.77994,-2.07006 -1.14629,-5.18705 z M 24.194949,106.5 c 0.02038,-1.65 0.244498,-2.20394 0.498042,-1.23097 0.253543,0.97297 0.236869,2.32297 -0.03705,3 C 24.382014,108.94606 24.174569,108.15 24.194949,106.5 Z m 0.962946,-5.5 c 0,-1.375 0.226973,-1.9375 0.504386,-1.25 0.277412,0.6875 0.277412,1.8125 0,2.5 -0.277413,0.6875 -0.504386,0.125 -0.504386,-1.25 z m 1.041465,-4.5 c 0,-1.1 0.360288,-3.125 0.80064,-4.5 0.633973,-1.979583 0.80064,-2.083666 0.80064,-0.5 0,1.1 -0.360288,3.125 -0.80064,4.5 -0.633973,1.979583 -0.80064,2.083666 -0.80064,0.5 z M 173.057,92.256159 c -4.69972,-21.40188 -18.89538,-46.862074 -33.35299,-59.819274 -4.15501,-3.723798 -4.3593,-4.028879 -1.01347,-1.513476 8.37576,6.296929 18.52499,19.480659 25.07841,32.576591 4.99467,9.981027 12.34201,32.722371 11.00425,34.060136 -0.2487,0.248699 -1.02099,-2.13809 -1.7162,-5.303977 z M 28.532104,86.5 C 29.925876,79.53932 40.873098,55 42.584551,55 c 0.240774,0 -1.425762,3.706381 -3.703412,8.236402 -2.27765,4.530022 -5.673107,12.292522 -7.545461,17.25 C 29.463325,85.443881 28.201717,88.15 28.532104,86.5 Z M 95.5,83.086746 C 90.202647,81.61411 87.460672,80.25851 84.157713,77.479253 72.757409,67.88653 76.341154,51.401412 91.21814,45.001505 c 7.441675,-3.201323 17.79827,-2.515704 24.48962,1.621241 14.86505,9.190354 14.88979,26.930139 0.0481,34.501795 C 111.386,83.353887 100.31781,84.426072 95.5,83.086746 Z M 110.76356,70.477575 C 117.13494,68.585477 120,65.235248 120,59.677021 120,51.171833 113.21044,46 102.04486,46 94.805245,46 91.473002,47.184145 87.25,51.257501 c -6.132951,5.915623 -3.355762,14.673723 5.854219,18.461777 6.401127,2.632776 10.722441,2.818335 17.659341,0.758297 z M 43.970194,52.055694 c 0.572308,-1.069369 1.534818,-2.249775 2.13891,-2.623124 0.604092,-0.373349 0.324918,0.501588 -0.620387,1.944306 -2.001622,3.054861 -3.038114,3.518198 -1.518523,0.678818 z M 48.043043,46.5 c 4.059213,-5.612124 8.655235,-10.651735 12.822303,-14.059855 3.204129,-2.620562 2.023862,-1.035708 -3.82386,5.134654 C 46.346777,48.859574 46.309982,48.896069 48.043043,46.5 Z M 127,24 c -0.90129,-0.58246 -1.02463,-0.975486 -0.30902,-0.984687 0.65504,-0.0084 1.4691,0.434687 1.80902,0.984687 0.7673,1.241525 0.42112,1.241525 -1.5,0 z M 96.776433,18.266503 c 2.352038,-0.211245 5.952037,-0.208273 7.999997,0.0066 2.04796,0.214878 0.12357,0.387715 -4.27643,0.384083 -4.4,-0.0036 -6.075605,-0.179441 -3.723567,-0.390687 z"
       id="path37374"
       inkscape:connector-curvature="0" />
    <path
       style="fill:#211d30"
       d="M 63.331982,151.0712 C 47.998017,147.2713 38.595102,129.04435 45.25,116.02043 c 4.51746,-8.84086 12.643875,-11.26407 22.160503,-6.60802 17.119397,8.37574 22.8263,33.49014 9.089497,40.0002 -4.089585,1.93811 -9.360802,2.60205 -13.168018,1.65859 z M 75.545455,136.54545 C 82.222887,129.86802 75.205541,114.22188 63.840171,110.44691 54.314792,107.28309 50,110.43982 50,120.57247 c 0,5.2349 0.4414,6.73679 3.030243,10.31058 4.243722,5.85829 8.339193,8.10868 14.765212,8.11321 4.29197,0.003 5.760588,-0.46139 7.75,-2.45081 z m 49.695405,12.45995 c -5.52576,-3.36909 -7.43273,-7.48389 -6.95413,-15.0054 0.69299,-10.89084 6.64001,-19.86004 16.30277,-24.58759 7.3283,-3.5854 13.12281,-3.05282 17.97728,1.65231 1.86755,1.81011 3.91057,4.85165 4.54005,6.75898 1.53282,4.64448 0.58715,13.89566 -1.92348,18.81691 -2.41672,4.73715 -9.06057,10.99232 -13.76167,12.95656 -4.89224,2.04411 -12.3021,1.77312 -16.18082,-0.59177 z m 15.54432,-11.69002 c 7.68164,-4.76666 10.35768,-9.15118 10.35768,-16.97036 0,-9.23793 -4.20361,-12.84182 -12.18839,-10.44953 -8.38816,2.51316 -14.25701,10.6503 -14.38243,19.94119 -0.0601,4.45106 0.31973,5.6542 2.28874,7.25 2.98654,2.42046 10.20134,2.53896 13.9244,0.2287 z M 95.081368,82.454003 C 87.578413,80.37795 83.409813,77.555434 80.491152,72.575115 77.228438,67.007714 77.152799,60.056626 80.294464,54.5 83.037194,49.648967 91.349997,44.369979 97.759778,43.408773 114.19906,40.94355 130.20489,55.359661 126.12981,68.961062 c -1.58598,5.293552 -4.57565,8.724432 -9.99587,11.471066 -6.2323,3.158144 -14.18554,3.921968 -21.052572,2.021875 z M 110.76356,70.477575 C 117.13494,68.585477 120,65.235248 120,59.677021 120,51.143119 113.21158,46 101.94764,46 87.90911,46 80.613367,54.167136 85.854219,64.015602 c 1.381961,2.596942 3.228494,4.049635 7.25,5.703676 6.401127,2.632776 10.722441,2.818335 17.659341,0.758297 z"
       id="path37372"
       inkscape:connector-curvature="0" />
    <path
       style="fill:#191629"
       d="M 58.461292,149.12153 C 50.46512,145.48934 42.986508,133.85071 43.005577,125.0685 c 0.01683,-7.75278 6.271221,-17.15187 11.315625,-17.00511 2.09849,0.0611 2.10508,0.0936 0.178798,0.88197 -4.444058,1.81891 -6,4.90736 -6,11.90963 0,5.78609 0.386512,7.18174 2.990235,10.7974 5.883593,8.17025 14.908849,11.29684 22.932393,7.94438 8.247531,-3.44603 6.49904,-17.01417 -3.337818,-25.90118 -2.646449,-2.39091 -5.457014,-3.89138 -8.072417,-4.3096 C 60.805577,109.03311 59,108.39929 59,107.9775 c 0,-0.42178 1.4625,-0.43566 3.25,-0.0308 11.574602,2.62137 20.576301,13.3348 21.445842,25.52392 0.516305,7.23751 -1.471401,11.83754 -6.593725,15.25948 -4.301647,2.87368 -12.784116,3.05182 -18.640825,0.39146 z m 67.756888,0.21539 c -5.52091,-2.72115 -7.72524,-6.84038 -7.67213,-14.33692 0.0533,-7.52287 2.50394,-13.22476 8.30997,-19.33473 3.90974,-4.11441 9.94489,-7.69272 12.85414,-7.62138 0.98441,0.0241 0.0597,0.66078 -2.05497,1.41476 -7.77458,2.77202 -13.58809,10.7098 -14.39981,19.66155 -0.39972,4.40822 -0.12582,6.42858 1.13169,8.34779 1.51482,2.3119 2.27015,2.53201 8.68904,2.53201 5.75556,0 7.66468,-0.43128 10.531,-2.379 5.34609,-3.63276 8.19161,-8.16188 8.95212,-14.24878 0.78195,-6.2585 -0.57179,-10.45034 -4.32945,-13.40611 C 146.57274,108.66268 146.23586,108 147.23028,108 c 4.55037,0 10.7055,9.20227 10.74776,16.0685 0.10623,17.26117 -18.29782,31.90359 -31.75986,25.26842 z M 90.5,80.616709 C 82.279596,76.730508 78,70.870301 78,63.5 c 0,-19.047908 30.69228,-26.828401 43.67943,-11.072736 8.24925,10.007773 5.68148,22.224067 -5.8826,27.986688 C 108.6554,83.972679 97.783146,84.059821 90.5,80.616709 Z m 22.71967,-9.0628 c 8.5442,-3.263061 11.14653,-12.01778 5.80293,-19.522172 -3.19692,-4.489659 -7.51668,-6.315435 -16.0226,-6.772061 -6.390414,-0.343059 -8.157091,-0.05917 -11.941457,1.918849 -5.903888,3.085863 -8.550215,6.847636 -8.416071,11.963507 0.140323,5.351552 2.785787,8.754138 9.417764,12.113093 4.5245,2.291563 6.400225,2.686726 11.148144,2.348601 3.13961,-0.223587 7.64469,-1.146005 10.01129,-2.049817 z"
       id="path37370"
       inkscape:connector-curvature="0" />
    <path
       style="fill:#141119"
       d="m 58.459135,148.68897 c -10.645005,-5.07488 -17.27932,-18.2156 -14.467824,-28.6567 0.625785,-2.32399 2.710135,-5.8287 4.676128,-7.86262 2.675883,-2.76835 3.025125,-2.95552 1.421942,-0.76207 -1.168823,1.59918 -2.82402,5.31168 -3.678216,8.25 -1.416836,4.87375 -1.409085,5.83775 0.08835,10.98876 2.954361,10.16264 11.025254,17.29571 20.224875,17.87477 5.904293,0.37164 9.669775,-1.01241 12.766297,-4.69241 4.335304,-5.15222 2.988437,-15.88043 -3.179878,-25.3287 -2.406889,-3.68673 -2.434536,-3.84337 -0.353023,-2 3.125871,2.76824 6.966398,10.66774 7.665264,15.76653 1.463031,10.67397 -4.141157,17.82803 -14.470824,18.47281 -4.410409,0.27529 -6.75973,-0.17518 -10.693094,-2.05037 z m 68.991285,0.90443 c -4.10213,-1.78677 -8.22519,-6.87589 -9.02509,-11.13973 -0.81083,-4.32211 0.94468,-11.6458 4.08296,-17.03339 4.11335,-7.06154 5.52598,-6.87338 1.93413,0.25762 -2.83015,5.61879 -3.4368,7.9361 -3.43934,13.13784 -0.004,7.84256 1.06068,9.89072 6.33244,12.18392 10.26789,4.4665 23.39687,-3.03511 26.81691,-15.32258 1.35608,-4.87209 1.39787,-6.48212 0.29174,-11.24053 -0.71008,-3.05465 -2.01088,-6.65251 -2.89066,-7.99523 -2.14778,-3.27792 -0.23674,-3.12537 2.37052,0.18923 4.9773,6.3276 4.98544,16.44964 0.0202,25.14339 -3.33631,5.84166 -7.70661,9.52529 -13.88867,11.70644 -5.21861,1.84124 -8.56854,1.87127 -12.60518,0.11302 z M 92.590729,81.492703 C 83.905822,78.164076 78,70.881253 78,63.5 c 0,-4.148341 2.787274,-10.122236 6.065485,-13 2.322367,-2.038681 2.024587,-1.132873 -1.150606,3.5 -0.942373,1.375 -1.974208,4.96106 -2.292967,7.969023 -0.716795,6.764018 1.455423,10.52344 8.841757,15.302277 4.163286,2.693578 6.11394,3.2695 12.097191,3.57164 6.07822,0.306936 7.95272,-0.02731 12.67095,-2.259391 4.79769,-2.269673 5.82001,-3.27651 7.6528,-7.536966 2.74056,-6.370592 2.66755,-9.616969 -0.35033,-15.57805 -3.25393,-6.427331 -2.42742,-6.946322 1.41452,-0.888217 5.77115,9.100156 3.71562,18.194885 -5.59056,24.73551 -3.56895,2.508356 -5.21825,2.941995 -12.48521,3.282655 -5.856202,0.274528 -9.548107,-0.05786 -12.282301,-1.105778 z"
       id="path37368"
       inkscape:connector-curvature="0" />
  </g>
</svg>
